v 669.238 730.531 125.348
v 669.238 667.027 125.348
v 666.032 730.531 188.771
v 666.032 667.027 188.771
v 666.542 730.531 125.211
v 666.542 667.027 125.211
v 663.336 730.531 188.634
v 663.336 667.027 188.634
v 667.008 725.531 130.241
v 666.681 671.73 129.928
v 663.949 671.73 183.956
v 664.307 725.531 183.677
v 667.987 725.531 130.291
v 667.987 672.027 130.291
v 665.286 672.027 183.727
v 665.286 725.531 183.727
v 666.27 730.234 125.495
v 666.27 667.324 125.495
v 663.094 730.234 188.325
v 663.094 667.324 188.325
v 666.681 725.828 129.928
v 667.008 672.027 130.241
v 664.307 672.027 183.677
v 663.949 725.828 183.956
vn 0.998725 -1.62921e-007 0.0504879
vn 0.0504879 4.47035e-008 -0.998725
vn -1.60456e-007 -1 -5.2872e-008
vn -0.0504879 -4.47035e-008 0.998725
vn 1.60456e-007 1 5.2872e-008
vn -0.995734 1.54893e-007 0.0922747
vn -0.988543 0.14243 -0.0499731
vn -0.988543 0.14243 -0.0499731
vn -0.981352 1.67627e-007 -0.192221
vn -0.988543 -0.142429 -0.0499731
vn -0.988543 -0.142429 -0.0499731
vn -0.0504878 -4.47035e-008 0.998725
vn 0.0504878 4.47035e-008 -0.998725
vn -0.721764 1.52406e-007 -0.69214
vn -0.754824 -0.654816 -0.0381581
vn -0.754824 -0.654816 -0.0381581
vn -0.787884 9.38609e-008 0.615823
vn -0.754824 0.654817 -0.0381581
vn -0.754824 0.654817 -0.0381581
vn -0.69214 7.2897e-008 0.721763
vn -0.69214 7.2897e-008 0.721763
vn -0.653982 0.755787 -0.0330603
vn -0.653982 0.755787 -0.0330603
vn -0.615824 1.4047e-007 -0.787884
vn -0.615824 1.4047e-007 -0.787884
vn -0.653982 -0.755787 -0.0330604
vn -0.653982 -0.755787 -0.0330604
vt 1 0
vt 0 0
vt 1 1
vt 0 1
vt 0 0
vt 1 0
vt 0 0.9
vt 1 0.9
vt 0 0
vt 1 0
vt 0 0.9
vt 1 0.9
vt 0 0
vt 1 0
vt 0 0.9
vt 1 0.9
vt 0 0
vt 1 0
vt 0 0.9
vt 1 0.9
vt 0 0
vt 1 0.0593883
vt 1 1
vt 0 1
vt 0 0
vt 1 0
vt 1 1
vt 0 1
vt 0.940612 0.940612
vt 0 0.940612
vt 1 0.940612
vt 0.0593883 0.940612
vt 0.940612 1
vt 0 1
vt 1 1
vt 0.0593883 1
vt 0.0593883 0.0593883
vt 1 0
vt 1 1
vt 0.0593883 1
f 1/1/1 3/3/1 4/4/1
f 4/4/1 2/2/1 1/1/1
f 1/5/2 2/6/2 6/8/2
f 6/8/2 5/7/2 1/5/2
f 2/9/3 4/10/3 8/12/3
f 8/12/3 6/11/3 2/9/3
f 4/13/4 3/14/4 7/16/4
f 7/16/4 8/15/4 4/13/4
f 3/17/5 1/18/5 5/20/5
f 5/20/5 7/19/5 3/17/5
f 17/30/6 18/31/6 10/22/6
f 10/22/6 21/37/6 17/30/6
f 18/32/7 20/35/7 11/23/7
f 11/23/8 10/22/8 18/32/8
f 20/36/9 19/33/9 24/40/9
f 24/40/9 11/23/9 20/36/9
f 19/34/10 17/29/10 21/37/10
f 21/37/11 24/40/11 19/34/11
f 9/21/12 22/38/12 14/26/12
f 14/26/12 13/25/12 9/21/12
f 22/38/5 23/39/5 15/27/5
f 15/27/5 14/26/5 22/38/5
f 23/39/13 12/24/13 16/28/13
f 16/28/13 15/27/13 23/39/13
f 12/24/3 9/21/3 13/25/3
f 13/25/3 16/28/3 12/24/3
f 17/29/14 5/7/14 6/8/14
f 6/8/14 18/31/14 17/29/14
f 18/31/15 6/8/15 8/12/15
f 8/12/16 20/35/16 18/31/16
f 20/35/17 8/12/17 7/16/17
f 7/16/17 19/33/17 20/35/17
f 19/33/18 7/16/18 5/7/18
f 5/7/19 17/29/19 19/33/19
f 9/21/20 21/37/20 10/22/20
f 10/22/21 22/38/21 9/21/21
f 22/38/22 10/22/22 11/23/22
f 11/23/23 23/39/23 22/38/23
f 23/39/24 11/23/24 24/40/24
f 24/40/25 12/24/25 23/39/25
f 12/24/26 24/40/26 21/37/26
f 21/37/27 9/21/27 12/24/27
