v 268.786 14.0474 0
v 463.786 14.0474 0
v 268.786 68.3474 0
v 463.786 68.3474 0
v 268.786 14.0474 270
v 463.786 14.0474 270
v 268.786 68.3474 270
v 463.786 68.3474 270
vn 0 0 -1
vn 0 0 1
vn 0 -1 0
vn 1 0 0
vn 0 1 0
vn -1 0 0
vt 0 0
vt 1 0
vt 0 1
vt 1 1
vt 0 0
vt 1 0
vt 0 1
vt 1 1
vt 0 0
vt 1 0
vt 0 1
vt 1 1
f 1/10/1 3/12/1 4/11/1
f 4/11/1 2/9/1 1/10/1
f 5/9/2 6/10/2 8/12/2
f 8/12/2 7/11/2 5/9/2
f 1/5/3 2/6/3 6/8/3
f 6/8/3 5/7/3 1/5/3
f 2/1/4 4/2/4 8/4/4
f 8/4/4 6/3/4 2/1/4
f 4/5/5 3/6/5 7/8/5
f 7/8/5 8/7/5 4/5/5
f 3/1/6 1/2/6 5/4/6
f 5/4/6 7/3/6 3/1/6
