v 667.987 465.55 130.291
v 667.987 412.046 130.291
v 665.286 412.046 183.727
v 665.286 465.55 183.727
v 667.482 455.55 140.278
v 667.482 422.046 140.278
v 665.791 422.046 173.739
v 665.791 455.55 173.739
v 667.982 455.55 140.303
v 667.982 422.046 140.303
v 666.29 422.046 173.765
v 666.29 455.55 173.765
vn 0.0504879 4.47035e-008 -0.998725
vn -1.60456e-007 -1 -5.2872e-008
vn -0.0504879 -4.47035e-008 0.998725
vn 1.60456e-007 1 5.2872e-008
vn -0.998725 1.62921e-007 -0.0504879
vn -0.998725 1.62921e-007 -0.0504878
vt 0 0
vt 1 0
vt 1 1
vt 0 1
vt 0 0
vt 1 0
vt 1 1
vt 0 1
vt 0 0
vt 1 0
vt 1 1
vt 0 1
f 1/1/5 2/2/5 6/6/5
f 6/6/6 5/5/6 1/1/6
f 2/2/5 3/3/5 7/7/5
f 7/7/6 6/6/6 2/2/6
f 3/3/5 4/4/5 8/8/5
f 8/8/6 7/7/6 3/3/6
f 4/4/5 1/1/5 5/5/5
f 5/5/6 8/8/6 4/4/6
f 5/5/3 6/6/3 10/10/3
f 10/10/3 9/9/3 5/5/3
f 6/6/4 7/7/4 11/11/4
f 11/11/4 10/10/4 6/6/4
f 7/7/1 8/8/1 12/12/1
f 12/12/1 11/11/1 7/7/1
f 8/8/2 5/5/2 9/9/2
f 9/9/2 12/12/2 8/8/2
