v 483 422.6 53.5201
v 524.07 471.421 53.4636
v 481.093 445.047 53.4636
v 526.038 448.922 53.5201
v 503.535 447.01 53.4636
v 482.077 433.798 53.4636
v 504.519 435.761 53.4636
v 492.286 446.026 53.4636
v 516.748 425.552 53.4636
v 527.022 437.673 53.5201
v 514.784 447.994 53.4636
v 524.993 460.223 53.4636
v 502.551 458.259 53.4636
v 490.323 468.468 53.4636
v 480.048 456.347 53.5201
v 493.27 434.777 53.4636
v 515.768 436.745 53.4636
v 513.8 459.243 53.4636
v 491.302 457.275 53.4636
v 482.569 428.173 53.4636
v 488.573 423.031 53.4636
v 493.762 429.152 53.4636
v 487.646 434.285 53.4636
v 499.874 424.076 53.4636
v 505.011 430.137 53.4636
v 498.895 435.269 53.4636
v 504.027 441.386 53.4636
v 497.91 446.518 53.4636
v 492.778 440.401 53.4636
v 486.661 445.534 53.4636
v 522.372 426.044 53.4636
v 521.393 437.237 53.4636
v 516.26 431.121 53.4636
v 526.469 443.349 53.4636
v 520.409 448.486 53.4636
v 515.276 442.37 53.4636
v 509.16 447.502 53.4636
v 510.144 436.253 53.4636
v 511.072 424.999 53.5201
v 524.552 465.908 53.4636
v 518.497 470.99 53.5201
v 513.308 464.868 53.4636
v 519.425 459.736 53.4636
v 507.196 469.944 53.4636
v 502.059 463.884 53.4636
v 508.175 458.751 53.4636
v 503.043 452.635 53.4636
v 514.292 453.619 53.4636
v 485.677 456.783 53.4636
v 490.81 462.9 53.4636
v 480.601 450.671 53.4636
v 491.794 451.651 53.4636
v 496.926 457.767 53.4636
v 495.998 469.021 53.5201
v 488.138 428.66 53.4636
v 499.387 429.644 53.4636
v 498.403 440.894 53.4636
v 487.153 439.909 53.4636
v 521.885 431.613 53.4636
v 520.901 442.862 53.4636
v 509.652 441.878 53.4636
v 510.636 430.629 53.4636
v 518.932 465.36 53.4636
v 507.683 464.376 53.4636
v 508.668 453.127 53.4636
v 519.917 454.111 53.4636
v 485.185 462.408 53.4636
v 486.169 451.159 53.4636
v 497.418 452.143 53.4636
v 496.434 463.392 53.4636
v 483.061 422.549 53.4636
v 524.009 471.472 53.5201
v 481.032 445.098 53.5201
v 481.042 444.986 53.5201
v 505.56 424.517 53.5201
v 505.498 424.568 53.4636
v 525.977 448.974 53.4636
v 501.51 469.504 53.5201
v 501.572 469.452 53.4636
v 482.016 433.849 53.5201
v 494.311 423.533 53.5201
v 494.249 423.584 53.4636
v 516.696 425.491 53.5201
v 516.809 425.501 53.5201
v 526.961 437.725 53.4636
v 525.054 460.171 53.5201
v 512.76 470.488 53.5201
v 512.821 470.436 53.4636
v 490.374 468.529 53.5201
v 490.261 468.519 53.5201
v 480.109 456.296 53.4636
v 482.508 428.224 53.5201
v 482.518 428.112 53.5201
v 488.625 423.092 53.4636
v 499.823 424.015 53.5201
v 481.534 439.361 53.5201
v 481.585 439.422 53.4636
v 522.321 425.983 53.5201
v 527.505 432.161 53.5201
v 527.453 432.1 53.4636
v 526.53 443.298 53.5201
v 526.52 443.41 53.5201
v 511.123 425.06 53.4636
v 524.501 465.847 53.4636
v 524.562 465.796 53.5201
v 518.445 470.928 53.4636
v 507.248 470.005 53.5201
v 525.536 454.659 53.5201
v 525.485 454.598 53.4636
v 484.698 467.976 53.4636
v 484.749 468.037 53.5201
v 479.565 461.859 53.5201
v 479.617 461.92 53.4636
v 480.54 450.723 53.5201
v 480.55 450.61 53.5201
v 495.947 468.96 53.4636
vn 0 0 1
vn 0.70441 0.0616277 0.707113
vn -0.0616289 0.704423 0.7071
vn 0.0616289 -0.704423 0.7071
vn 0.70441 0.0616277 0.707113
vn -0.70441 -0.0616277 0.707113
vn -0.44227 0.371116 0.816499
vn 0.70441 0.0616277 0.707113
vn 0.70441 0.0616277 0.707113
vn -0.0616289 0.704423 0.7071
vn -0.0616289 0.704423 0.7071
vn 0.70441 0.0616277 0.707113
vn -0.70441 -0.0616277 0.707113
vn -0.70441 -0.0616277 0.707113
vn -0.70441 -0.0616277 0.707113
vn -0.70441 -0.0616277 0.707113
vn 0.0616289 -0.704423 0.7071
vn 0.0616289 -0.704423 0.7071
vt 0.9 0.899
vt 0.101 0.5
vt 0.5 0.5
vt 0.101 0.3
vt 0.5 0.3
vt 0.3 0.5
vt 0.7 0.101
vt 0.7 0.5
vt 0.899 0.7
vt 0.5 0.7
vt 0.3 0.899
vt 0.3 0.3
vt 0.7 0.3
vt 0.7 0.7
vt 0.3 0.7
vt 0.101 0.2
vt 0.199 0.1
vt 0.3 0.2
vt 0.2 0.3
vt 0.4 0.101
vt 0.5 0.2
vt 0.4 0.3
vt 0.5 0.4
vt 0.4 0.5
vt 0.3 0.4
vt 0.2 0.5
vt 0.8 0.101
vt 0.8 0.3
vt 0.7 0.2
vt 0.899 0.4
vt 0.8 0.5
vt 0.7 0.4
vt 0.6 0.5
vt 0.6 0.3
vt 0.52475 0.599
vt 0.9 0.801
vt 0.47525 0.801
vt 0.7 0.8
vt 0.8 0.7
vt 0.6 0.899
vt 0.5 0.8
vt 0.6 0.7
vt 0.5 0.6
vt 0.7 0.6
vt 0.2 0.7
vt 0.3 0.8
vt 0.101 0.6
vt 0.3 0.6
vt 0.4 0.7
vt 0.47525 0.401
vt 0.2 0.2
vt 0.4 0.2
vt 0.4 0.4
vt 0.2 0.4
vt 0.8 0.2
vt 0.8 0.4
vt 0.6 0.4
vt 0.6 0.2
vt 0.8 0.8
vt 0.6 0.8
vt 0.6 0.6
vt 0.8 0.6
vt 0.2 0.8
vt 0.2 0.6
vt 0.4 0.6
vt 0.4 0.8
vt 0.101 0.1
vt 0.47525 0.899
vt 0.52475 0.501
vt 0.5 0.101
vt 0.899 0.5
vt 0.47525 0.499
vt 0.5 0.899
vt 0.52475 0.301
vt 0.3 0.101
vt 0.52475 0.699
vt 0.52475 0.701
vt 0.899 0.3
vt 0.47525 0.699
vt 0.7 0.899
vt 0.47525 0.301
vt 0.47525 0.299
vt 0.101 0.7
vt 0.2 0.101
vt 0.52475 0.399
vt 0.101 0.4
vt 0.52475 0.799
vt 0.899 0.2
vt 0.6 0.101
vt 0.899 0.8
vt 0.8 0.899
vt 0.47525 0.601
vt 0.899 0.6
vt 0.2 0.899
vt 0.47525 0.201
vt 0.101 0.8
vt 0.4 0.899
vt 0.1 0.501
vt 0.1 0.499
vt 0.52375 0.7
vt 0.47625 0.3
vt 0.1 0.201
vt 0.1 0.199
vt 0.9 0.399
vt 0.9 0.401
vt 0.9 0.799
vt 0.1 0.601
vt 0.1 0.599
vt 0.1 0.199
vt 0.0999999 0.101
vt 0.52375 0.3
vt 0.52375 0.4
vt 0.1 0.399
vt 0.1 0.301
vt 0.9 0.201
vt 0.9 0.299
vt 0.52375 0.7
vt 0.52375 0.8
vt 0.9 0.401
vt 0.9 0.499
vt 0.52375 0.5
vt 0.52375 0.6
vt 0.47625 0.9
vt 0.47625 0.8
vt 0.47625 0.7
vt 0.47625 0.6
vt 0.9 0.601
vt 0.9 0.699
vt 0.1 0.799
vt 0.1 0.701
vt 0.47625 0.3
vt 0.47625 0.2
vt 0.1 0.599
vt 0.1 0.501
vt 0.47625 0.5
vt 0.47625 0.4
f 71/67/1 21/17/1 94/84/1
f 20/16/1 71/67/1 94/84/1
f 20/16/1 94/84/1 55/51/1
f 23/19/1 55/51/1 22/18/1
f 22/18/1 16/12/1 23/19/1
f 26/22/1 56/52/1 25/21/1
f 25/21/1 7/5/1 26/22/1
f 24/20/1 56/52/1 22/18/1
f 22/18/1 82/75/1 24/20/1
f 28/24/1 57/53/1 27/23/1
f 27/23/1 5/3/1 28/24/1
f 26/22/1 57/53/1 29/25/1
f 29/25/1 16/12/1 26/22/1
f 23/19/1 58/54/1 97/86/1
f 97/86/1 6/4/1 23/19/1
f 30/26/1 58/54/1 29/25/1
f 29/25/1 8/6/1 30/26/1
f 32/28/1 59/55/1 100/88/1
f 100/88/1 85/78/1 32/28/1
f 31/27/1 59/55/1 33/29/1
f 33/29/1 9/7/1 31/27/1
f 35/31/1 60/56/1 34/30/1
f 34/30/1 77/71/1 35/31/1
f 32/28/1 60/56/1 36/32/1
f 36/32/1 17/13/1 32/28/1
f 38/34/1 61/57/1 27/23/1
f 27/23/1 7/5/1 38/34/1
f 37/33/1 61/57/1 36/32/1
f 36/32/1 11/8/1 37/33/1
f 103/89/1 62/58/1 25/21/1
f 25/21/1 76/70/1 103/89/1
f 38/34/1 62/58/1 33/29/1
f 33/29/1 17/13/1 38/34/1
f 40/36/1 2/1/1 106/91/1
f 40/36/1 106/91/1 63/59/1
f 104/90/1 40/36/1 63/59/1
f 43/39/1 63/59/1 42/38/1
f 42/38/1 18/14/1 43/39/1
f 46/42/1 64/60/1 45/41/1
f 45/41/1 13/10/1 46/42/1
f 44/40/1 64/60/1 42/38/1
f 42/38/1 88/80/1 44/40/1
f 37/33/1 65/61/1 47/43/1
f 47/43/1 5/3/1 37/33/1
f 46/42/1 65/61/1 48/44/1
f 48/44/1 18/14/1 46/42/1
f 43/39/1 66/62/1 109/93/1
f 109/93/1 12/9/1 43/39/1
f 35/31/1 66/62/1 48/44/1
f 48/44/1 11/8/1 35/31/1
f 49/45/1 67/63/1 113/96/1
f 113/96/1 91/83/1 49/45/1
f 110/94/1 67/63/1 50/46/1
f 50/46/1 14/11/1 110/94/1
f 30/26/1 68/64/1 51/47/1
f 51/47/1 3/2/1 30/26/1
f 49/45/1 68/64/1 52/48/1
f 52/48/1 19/15/1 49/45/1
f 53/49/1 69/65/1 47/43/1
f 47/43/1 13/10/1 53/49/1
f 28/24/1 69/65/1 52/48/1
f 52/48/1 8/6/1 28/24/1
f 116/97/1 70/66/1 45/41/1
f 45/41/1 79/73/1 116/97/1
f 53/49/1 70/66/1 50/46/1
f 50/46/1 19/15/1 53/49/1
f 3/2/2 73/98/2 74/99/2
f 9/100/3 83/76/3 84/77/3
f 14/101/4 89/81/4 90/82/4
f 20/16/5 92/102/5 93/103/5
f 34/30/6 101/104/6 102/105/6
f 40/36/7 104/90/7 105/106/7
f 51/47/5 114/107/5 115/108/5
f 20/16/8 93/109/8 1/110/8
f 1/110/9 71/67/9 20/16/9
f 82/111/3 81/74/3 95/85/3
f 95/85/11 24/112/11 82/111/11
f 97/86/9 96/113/9 80/114/9
f 80/114/9 6/4/9 97/86/9
f 100/88/13 99/115/13 10/116/13
f 10/116/15 85/78/15 100/88/15
f 9/117/3 84/77/3 98/87/3
f 98/87/10 31/118/10 9/117/10
f 34/30/16 102/119/16 4/120/16
f 4/120/15 77/71/15 34/30/15
f 76/121/3 75/69/3 39/35/3
f 39/35/11 103/122/11 76/121/11
f 2/123/4 72/68/4 41/37/4
f 41/37/17 106/124/17 2/123/17
f 88/125/4 87/79/4 107/92/4
f 107/92/17 44/126/17 88/125/17
f 109/93/14 108/127/14 86/128/14
f 86/128/15 12/9/15 109/93/15
f 113/96/8 112/129/8 15/130/8
f 15/130/9 91/83/9 113/96/9
f 14/131/4 90/82/4 111/95/4
f 111/95/17 110/132/17 14/131/17
f 51/47/12 115/133/12 73/134/12
f 73/134/9 3/2/9 51/47/9
f 79/135/18 78/72/18 54/50/18
f 54/50/17 116/136/17 79/135/17
