v 21.7859 15.4036 0.0444794
v 699.786 15.4036 0.0444794
v 699.786 835.004 0.0444794
v 21.7859 835.004 0.0444794
v 699.786 15.4036 -9.95552
v 21.7859 15.4036 -9.95552
v 21.7859 835.004 -9.95552
v 699.786 835.004 -9.95552
v 699.786 15.4036 0.0444794
v 21.7859 15.4036 0.0444794
v 21.7859 15.4036 -9.95552
v 699.786 15.4036 -9.95552
v 21.7859 15.4036 0.0444794
v 21.7859 835.004 0.0444794
v 21.7859 835.004 -9.95552
v 21.7859 15.4036 -9.95552
v 21.7859 835.004 0.0444794
v 699.786 835.004 0.0444794
v 699.786 835.004 -9.95552
v 21.7859 835.004 -9.95552
v 699.786 835.004 0.0444794
v 699.786 15.4036 0.0444794
v 699.786 15.4036 -9.95552
v 699.786 835.004 -9.95552
vn 0 0 1
vn -0 0 -1
vn 4.37114e-008 -1 0
vn -1 -4.37114e-008 0
vn -4.37114e-008 1 0
vn 1 4.37114e-008 0
vt -0.0650001 -0.183
vt 1.065 -0.183
vt 1.065 1.183
vt -0.0649999 1.183
vt 1.065 -0.183
vt -0.0650001 -0.183
vt -0.0649999 1.183
vt 1.065 1.183
vt 1.065 -0.183
vt -0.0650001 -0.183
vt -0.0650001 -0.183
vt 1.065 -0.183
vt -0.0650001 -0.183
vt -0.0649999 1.183
vt -0.0649999 1.183
vt -0.0650001 -0.183
vt -0.0649999 1.183
vt 1.065 1.183
vt 1.065 1.183
vt -0.0649999 1.183
vt 1.065 1.183
vt 1.065 -0.183
vt 1.065 -0.183
vt 1.065 1.183
f 3/3/1 4/4/1 1/1/1
f 1/1/1 2/2/1 3/3/1
f 7/7/2 8/8/2 5/5/2
f 5/5/2 6/6/2 7/7/2
f 11/11/3 12/12/3 9/9/3
f 9/9/3 10/10/3 11/11/3
f 15/15/4 16/16/4 13/13/4
f 13/13/4 14/14/4 15/15/4
f 19/19/5 20/20/5 17/17/5
f 17/17/5 18/18/5 19/19/5
f 23/23/6 24/24/6 21/21/6
f 21/21/6 22/22/6 23/23/6
