v 140.559 781.45 258.474
v 140.556 781.45 258.498
v 140.556 781.46 258.496
v 140.556 781.468 258.49
v 140.556 781.473 258.482
v 140.556 781.474 258.472
v 140.556 781.471 258.462
v 140.556 781.465 258.455
v 140.556 781.455 258.451
v 140.556 781.445 258.451
v 140.556 781.436 258.455
v 140.556 781.429 258.462
v 140.556 781.426 258.472
v 140.556 781.427 258.482
v 140.556 781.432 258.49
v 140.556 781.441 258.496
v 140.548 781.45 258.518
v 140.548 781.468 258.515
v 140.548 781.483 258.504
v 140.548 781.492 258.488
v 140.548 781.494 258.47
v 140.548 781.489 258.452
v 140.548 781.476 258.439
v 140.548 781.46 258.431
v 140.548 781.441 258.431
v 140.548 781.424 258.439
v 140.548 781.412 258.452
v 140.548 781.406 258.47
v 140.548 781.408 258.488
v 140.548 781.418 258.504
v 140.548 781.432 258.515
v 140.537 781.45 258.531
v 140.537 781.473 258.526
v 140.537 781.492 258.512
v 140.537 781.504 258.492
v 140.537 781.506 258.468
v 140.537 781.499 258.446
v 140.537 781.484 258.429
v 140.537 781.462 258.419
v 140.537 781.439 258.419
v 140.537 781.417 258.429
v 140.537 781.401 258.446
v 140.537 781.394 258.468
v 140.537 781.397 258.492
v 140.537 781.408 258.512
v 140.537 781.427 258.526
v 140.524 781.45 258.533
v 140.524 781.474 258.528
v 140.524 781.494 258.514
v 140.524 781.506 258.493
v 140.524 781.509 258.468
v 140.524 781.501 258.445
v 140.524 781.485 258.427
v 140.524 781.463 258.417
v 140.524 781.438 258.417
v 140.524 781.416 258.427
v 140.524 781.399 258.445
v 140.524 781.392 258.468
v 140.524 781.394 258.493
v 140.524 781.406 258.514
v 140.524 781.426 258.528
vn 1 -1.40324e-007 3.74326e-006
vn 0.969108 -2.11095e-005 0.246636
vn 0.969123 0.100336 0.22524
vn 0.969124 0.183259 0.16497
vn 0.969119 0.234525 0.0761972
vn 0.969117 0.245252 -0.0257647
vn 0.969117 0.213574 -0.123278
vn 0.969114 0.144992 -0.19949
vn 0.969121 0.0512681 -0.241197
vn 0.969119 -0.0512797 -0.241204
vn 0.969114 -0.144972 -0.199501
vn 0.969121 -0.213569 -0.123261
vn 0.969118 -0.245247 -0.025766
vn 0.96912 -0.23452 0.0761974
vn 0.969121 -0.183257 0.164987
vn 0.969115 -0.100341 0.225272
vn 0.851236 0.213406 0.479432
vn 0.851218 -1.71641e-005 0.524812
vn 0.851235 0.38998 0.351162
vn 0.851233 0.499108 0.162156
vn 0.851236 0.521908 -0.0548616
vn 0.851247 0.454456 -0.26239
vn 0.851228 0.308504 -0.424543
vn 0.851206 0.109166 -0.513352
vn 0.851221 -0.109147 -0.513331
vn 0.85124 -0.308495 -0.424524
vn 0.851242 -0.45447 -0.262382
vn 0.851231 -0.521916 -0.0548665
vn 0.851231 -0.499111 0.162155
vn 0.851247 -0.389968 0.351146
vn 0.851251 -0.213375 0.479418
vn 0.508049 0.350264 0.786894
vn 0.50811 1.09542e-005 0.861292
vn 0.508025 0.640095 0.576358
vn 0.508101 0.819158 0.266109
vn 0.508095 0.856583 -0.0900239
vn 0.508144 0.745875 -0.430651
vn 0.508162 0.506201 -0.696801
vn 0.507989 0.179101 -0.842538
vn 0.508003 -0.179059 -0.842539
vn 0.508155 -0.506242 -0.696776
vn 0.508132 -0.745879 -0.430658
vn 0.508107 -0.856576 -0.090026
vn 0.508075 -0.819166 0.266134
vn 0.507998 -0.640136 0.576337
vn 0.508086 -0.350245 0.786878
vn 0.192595 0.399113 0.896446
vn 0.192696 3.30868e-005 0.981258
vn 0.192452 0.729253 0.656622
vn 0.19265 0.93324 0.303232
vn 0.19269 0.975882 -0.102587
vn 0.192698 0.849799 -0.490622
vn 0.192832 0.57665 -0.793909
vn 0.192578 0.203967 -0.95985
vn 0.192477 -0.203919 -0.95988
vn 0.192765 -0.576715 -0.793877
vn 0.192725 -0.849783 -0.490638
vn 0.192673 -0.975886 -0.102588
vn 0.192718 -0.933213 0.303271
vn 0.192478 -0.729293 0.65657
vn 0.192479 -0.399128 0.896465
vt 0 1
vt 0.0666667 1
vt 0.133333 1
vt 0.2 1
vt 0.266667 1
vt 0.333333 1
vt 0.4 1
vt 0.466667 1
vt 0.533333 1
vt 0.6 1
vt 0.666667 1
vt 0.733333 1
vt 0.8 1
vt 0.866667 1
vt 0.933333 1
vt 0 0.866667
vt 0.0666667 0.866667
vt 0.133333 0.866667
vt 0.2 0.866667
vt 0.266667 0.866667
vt 0.333333 0.866667
vt 0.4 0.866667
vt 0.466667 0.866667
vt 0.533333 0.866667
vt 0.6 0.866667
vt 0.666667 0.866667
vt 0.733333 0.866667
vt 0.8 0.866667
vt 0.866667 0.866667
vt 0.933333 0.866667
vt 1 0.866667
vt 0 0.733333
vt 0.0666667 0.733333
vt 0.133333 0.733333
vt 0.2 0.733333
vt 0.266667 0.733333
vt 0.333333 0.733333
vt 0.4 0.733333
vt 0.466667 0.733333
vt 0.533333 0.733333
vt 0.6 0.733333
vt 0.666667 0.733333
vt 0.733333 0.733333
vt 0.8 0.733333
vt 0.866667 0.733333
vt 0.933333 0.733333
vt 1 0.733333
vt 0 0.6
vt 0.0666667 0.6
vt 0.133333 0.6
vt 0.2 0.6
vt 0.266667 0.6
vt 0.333333 0.6
vt 0.4 0.6
vt 0.466667 0.6
vt 0.533333 0.6
vt 0.6 0.6
vt 0.666667 0.6
vt 0.733333 0.6
vt 0.8 0.6
vt 0.866667 0.6
vt 0.933333 0.6
vt 1 0.6
vt 0 0.466667
vt 0.0666667 0.466667
vt 0.133333 0.466667
vt 0.2 0.466667
vt 0.266667 0.466667
vt 0.333333 0.466667
vt 0.4 0.466667
vt 0.466667 0.466667
vt 0.533333 0.466667
vt 0.6 0.466667
vt 0.666667 0.466667
vt 0.733333 0.466667
vt 0.8 0.466667
vt 0.866667 0.466667
vt 0.933333 0.466667
vt 1 0.466667
f 3/17/3 2/16/2 1/1/1
f 4/18/4 3/17/3 1/2/1
f 5/19/5 4/18/4 1/3/1
f 6/20/6 5/19/5 1/4/1
f 7/21/7 6/20/6 1/5/1
f 8/22/8 7/21/7 1/6/1
f 9/23/9 8/22/8 1/7/1
f 10/24/10 9/23/9 1/8/1
f 11/25/11 10/24/10 1/9/1
f 12/26/12 11/25/11 1/10/1
f 13/27/13 12/26/12 1/11/1
f 14/28/14 13/27/13 1/12/1
f 15/29/15 14/28/14 1/13/1
f 16/30/16 15/29/15 1/14/1
f 2/31/2 16/30/16 1/15/1
f 2/16/2 3/17/3 18/33/17
f 18/33/17 17/32/18 2/16/2
f 3/17/3 4/18/4 19/34/19
f 19/34/19 18/33/17 3/17/3
f 4/18/4 5/19/5 20/35/20
f 20/35/20 19/34/19 4/18/4
f 5/19/5 6/20/6 21/36/21
f 21/36/21 20/35/20 5/19/5
f 6/20/6 7/21/7 22/37/22
f 22/37/22 21/36/21 6/20/6
f 7/21/7 8/22/8 23/38/23
f 23/38/23 22/37/22 7/21/7
f 8/22/8 9/23/9 24/39/24
f 24/39/24 23/38/23 8/22/8
f 9/23/9 10/24/10 25/40/25
f 25/40/25 24/39/24 9/23/9
f 10/24/10 11/25/11 26/41/26
f 26/41/26 25/40/25 10/24/10
f 11/25/11 12/26/12 27/42/27
f 27/42/27 26/41/26 11/25/11
f 12/26/12 13/27/13 28/43/28
f 28/43/28 27/42/27 12/26/12
f 13/27/13 14/28/14 29/44/29
f 29/44/29 28/43/28 13/27/13
f 14/28/14 15/29/15 30/45/30
f 30/45/30 29/44/29 14/28/14
f 15/29/15 16/30/16 31/46/31
f 31/46/31 30/45/30 15/29/15
f 16/30/16 2/31/2 17/47/18
f 17/47/18 31/46/31 16/30/16
f 17/32/18 18/33/17 33/49/32
f 33/49/32 32/48/33 17/32/18
f 18/33/17 19/34/19 34/50/34
f 34/50/34 33/49/32 18/33/17
f 19/34/19 20/35/20 35/51/35
f 35/51/35 34/50/34 19/34/19
f 20/35/20 21/36/21 36/52/36
f 36/52/36 35/51/35 20/35/20
f 21/36/21 22/37/22 37/53/37
f 37/53/37 36/52/36 21/36/21
f 22/37/22 23/38/23 38/54/38
f 38/54/38 37/53/37 22/37/22
f 23/38/23 24/39/24 39/55/39
f 39/55/39 38/54/38 23/38/23
f 24/39/24 25/40/25 40/56/40
f 40/56/40 39/55/39 24/39/24
f 25/40/25 26/41/26 41/57/41
f 41/57/41 40/56/40 25/40/25
f 26/41/26 27/42/27 42/58/42
f 42/58/42 41/57/41 26/41/26
f 27/42/27 28/43/28 43/59/43
f 43/59/43 42/58/42 27/42/27
f 28/43/28 29/44/29 44/60/44
f 44/60/44 43/59/43 28/43/28
f 29/44/29 30/45/30 45/61/45
f 45/61/45 44/60/44 29/44/29
f 30/45/30 31/46/31 46/62/46
f 46/62/46 45/61/45 30/45/30
f 31/46/31 17/47/18 32/63/33
f 32/63/33 46/62/46 31/46/31
f 32/48/33 33/49/32 48/65/47
f 48/65/47 47/64/48 32/48/33
f 33/49/32 34/50/34 49/66/49
f 49/66/49 48/65/47 33/49/32
f 34/50/34 35/51/35 50/67/50
f 50/67/50 49/66/49 34/50/34
f 35/51/35 36/52/36 51/68/51
f 51/68/51 50/67/50 35/51/35
f 36/52/36 37/53/37 52/69/52
f 52/69/52 51/68/51 36/52/36
f 37/53/37 38/54/38 53/70/53
f 53/70/53 52/69/52 37/53/37
f 38/54/38 39/55/39 54/71/54
f 54/71/54 53/70/53 38/54/38
f 39/55/39 40/56/40 55/72/55
f 55/72/55 54/71/54 39/55/39
f 40/56/40 41/57/41 56/73/56
f 56/73/56 55/72/55 40/56/40
f 41/57/41 42/58/42 57/74/57
f 57/74/57 56/73/56 41/57/41
f 42/58/42 43/59/43 58/75/58
f 58/75/58 57/74/57 42/58/42
f 43/59/43 44/60/44 59/76/59
f 59/76/59 58/75/58 43/59/43
f 44/60/44 45/61/45 60/77/60
f 60/77/60 59/76/59 44/60/44
f 45/61/45 46/62/46 61/78/61
f 61/78/61 60/77/60 45/61/45
f 46/62/46 32/63/33 47/79/48
f 47/79/48 61/78/61 46/62/46
