v 102.554 793.057 261.699
v 102.572 793.057 261.825
v 102.622 793.057 261.942
v 102.703 793.057 262.04
v 102.807 793.057 262.114
v 102.926 793.057 262.156
v 103.053 793.057 262.165
v 103.178 793.057 262.139
v 103.291 793.057 262.081
v 103.384 793.057 261.994
v 103.45 793.057 261.885
v 103.484 793.057 261.762
v 103.484 793.057 261.635
v 103.45 793.057 261.513
v 103.384 793.057 261.404
v 103.291 793.057 261.317
v 103.178 793.057 261.259
v 103.053 793.057 261.233
v 102.926 793.057 261.241
v 102.807 793.057 261.284
v 102.703 793.057 261.357
v 102.622 793.057 261.456
v 102.572 793.057 261.573
v 102.554 782.799 261.699
v 102.572 782.799 261.825
v 102.622 782.799 261.942
v 102.703 782.799 262.04
v 102.807 782.799 262.114
v 102.926 782.799 262.156
v 103.053 782.799 262.165
v 103.178 782.799 262.139
v 103.291 782.799 262.081
v 103.384 782.799 261.994
v 103.45 782.799 261.885
v 103.484 782.799 261.762
v 103.484 782.799 261.635
v 103.45 782.799 261.513
v 103.384 782.799 261.404
v 103.291 782.799 261.317
v 103.178 782.799 261.259
v 103.053 782.799 261.233
v 102.926 782.799 261.241
v 102.807 782.799 261.284
v 102.703 782.799 261.357
v 102.622 782.799 261.456
v 102.572 782.799 261.573
v 102.788 793.057 261.699
v 102.797 793.057 261.762
v 102.822 793.057 261.82
v 102.862 793.057 261.87
v 102.914 793.057 261.906
v 102.974 793.057 261.928
v 103.037 793.057 261.932
v 103.1 793.057 261.919
v 103.156 793.057 261.89
v 103.203 793.057 261.846
v 103.236 793.057 261.792
v 103.253 793.057 261.731
v 103.253 793.057 261.667
v 103.236 793.057 261.606
v 103.203 793.057 261.551
v 103.156 793.057 261.508
v 103.1 793.057 261.479
v 103.037 793.057 261.466
v 102.974 793.057 261.47
v 102.914 793.057 261.491
v 102.862 793.057 261.528
v 102.822 793.057 261.577
v 102.797 793.057 261.636
v 103.022 793.057 261.699
v 102.788 782.799 261.699
v 102.797 782.799 261.762
v 102.822 782.799 261.82
v 102.862 782.799 261.87
v 102.914 782.799 261.906
v 102.974 782.799 261.928
v 103.037 782.799 261.932
v 103.1 782.799 261.919
v 103.156 782.799 261.89
v 103.203 782.799 261.846
v 103.236 782.799 261.792
v 103.253 782.799 261.731
v 103.253 782.799 261.667
v 103.236 782.799 261.606
v 103.203 782.799 261.551
v 103.156 782.799 261.508
v 103.1 782.799 261.479
v 103.037 782.799 261.466
v 102.974 782.799 261.47
v 102.914 782.799 261.491
v 102.862 782.799 261.528
v 102.822 782.799 261.577
v 102.797 782.799 261.636
v 103.022 782.799 261.699
vn -1 -9.90548e-007 -3.78073e-006
vn -0.96291 -6.99593e-007 0.269823
vn -0.962916 -9.60098e-007 0.269803
vn -1 -9.40269e-007 1.64394e-007
vn -0.854402 -3.19167e-007 0.519612
vn -0.85442 -7.49126e-007 0.519583
vn -0.682548 -1.50028e-007 0.730841
vn -0.682561 -3.70494e-007 0.730829
vn -0.46007 -3.29163e-007 0.887883
vn -0.460056 -1.2661e-007 0.88789
vn -0.203452 -3.89208e-007 0.979085
vn -0.203451 -3.79054e-007 0.979085
vn 0.0682718 8.42335e-008 0.997667
vn 0.068236 -3.65422e-007 0.997669
vn 0.334864 2.7595e-007 0.942266
vn 0.334866 2.87825e-007 0.942266
vn 0.576682 6.09777e-007 0.816968
vn 0.576677 5.21612e-007 0.816972
vn 0.775722 8.21538e-007 0.631075
vn 0.775722 8.19803e-007 0.631075
vn 0.917208 9.0488e-007 0.39841
vn 0.917214 1.10674e-006 0.398395
vn 0.990686 1.08984e-006 0.136168
vn 0.990686 1.09947e-006 0.136168
vn 0.990685 1.20776e-006 -0.136176
vn 0.990686 1.09862e-006 -0.136167
vn 0.917211 1.23274e-006 -0.398403
vn 0.917214 1.12452e-006 -0.398395
vn 0.775718 1.12591e-006 -0.63108
vn 0.775722 1.05172e-006 -0.631075
vn 0.576686 8.41818e-007 -0.816966
vn 0.576677 9.89357e-007 -0.816972
vn 0.334889 3.43286e-007 -0.942257
vn 0.334866 6.56389e-007 -0.942266
vn 0.0682424 6.22088e-008 -0.997669
vn 0.0682358 1.42833e-007 -0.997669
vn -0.203454 5.14059e-008 -0.979085
vn -0.203452 2.26069e-008 -0.979085
vn -0.460046 -7.3046e-008 -0.887895
vn -0.460056 6.98556e-008 -0.88789
vn -0.682561 1.40781e-007 -0.730829
vn -0.682547 -1.0599e-007 -0.730842
vn -0.854412 -9.7531e-008 -0.519596
vn -0.854417 1.33046e-008 -0.519588
vn -0.962909 -7.94222e-007 -0.269827
vn -0.962919 -3.36764e-007 -0.269792
vn 1.85252e-006 1 -3.56184e-007
vn 1.43393e-006 1 -1.64929e-006
vn 8.10845e-007 1 3.13929e-007
vn 7.60826e-007 1 -5.02853e-008
vn 1.58309e-006 1 -9.76571e-007
vn 6.14343e-007 1 -3.87398e-007
vn 1.15628e-006 1 -1.50118e-006
vn 3.82451e-007 1 -6.72562e-007
vn 6.0374e-007 1 -1.89122e-006
vn 8.20589e-008 1 -8.84527e-007
vn -3.36285e-008 1 -2.11766e-006
vn -2.6427e-007 1 -1.00757e-006
vn 1.58768e-006 1 -2.32098e-006
vn -1.49529e-007 1 -5.98294e-007
vn 1.13995e-006 1 -8.2478e-007
vn -5.38883e-007 1 3.13916e-007
vn 8.20163e-008 1 -1.90224e-006
vn 3.17e-008 1 5.79144e-009
vn 1.78065e-006 -1 -1.46455e-006
vn 1.7346e-006 -1 -6.48948e-007
vn 1.18873e-006 -1 -4.95996e-007
vn 9.80615e-007 -1 -5.3924e-007
vn 1.59988e-006 -1 -9.59119e-007
vn 1.11551e-006 -1 -6.64564e-007
vn 1.38646e-006 -1 -1.22143e-006
vn 9.99522e-007 -1 -8.07153e-007
vn 1.11017e-006 -1 -1.41646e-006
vn 8.49362e-007 -1 -9.13108e-007
vn 7.91517e-007 -1 -1.52971e-006
vn 6.76181e-007 -1 -9.7469e-007
vn 1.45085e-006 -1 -1.36501e-006
vn 4.92841e-007 -1 -9.87195e-007
vn 1.62308e-006 -1 -6.99243e-007
vn 6.73129e-007 -1 -6.09067e-007
vn -3.9203e-007 -1 6.5574e-007
vn -1.34115e-006 -1 1.01315e-006
vn -1.8727e-007 -1 5.7864e-007
vn -1.39178e-006 -1 7.91483e-007
vn 1.16416e-006 -1 -1.11251e-006
vn 1.89276e-008 -1 -5.39774e-007
vn 1.92577e-006 -1 -1.2848e-006
vn 4.45557e-007 -1 -5.54182e-007
vn 1.76908e-006 -1 -4.83005e-007
vn 6.45855e-007 -1 -3.28619e-007
vn 1.67785e-006 -1 -8.08629e-007
vn 6.3791e-007 -1 -3.56927e-007
vn 1.50215e-006 -1 -1.09757e-006
vn 6.22658e-007 -1 -3.82073e-007
vn 1.25498e-006 -1 -1.3284e-006
vn 6.01158e-007 -1 -4.02142e-007
vn 9.54718e-007 -1 -1.484e-006
vn 5.75035e-007 -1 -4.15631e-007
vn 1.58545e-006 -1 -1.23107e-006
vn 5.46247e-007 -1 -4.21707e-007
vn 1.66546e-006 -1 -5.48023e-007
vn 8.27381e-007 -1 -3.2954e-008
vn -5.1543e-007 -1 5.19989e-007
vn -1.24358e-006 -1 1.24812e-006
vn -3.02051e-007 -1 4.71462e-007
vn -1.13741e-006 -1 9.32645e-007
vn 5.38883e-007 -1 -3.13916e-007
vn 1.04958e-006 -1 -1.19016e-006
vn -7.48223e-008 -1 1.85364e-007
vt 5.85119 -5.97686
vt 5.87142 -5.97686
vt 5.89016 -5.97686
vt 5.906 -5.97686
vt -0.334369 -5.97686
vt -0.315123 -5.97686
vt -0.294746 -5.97686
vt -0.274748 -5.97686
vt -0.256613 -5.97686
vt -0.241686 -5.97686
vt -4.88107 -5.97686
vt -4.8614 -5.97686
vt -4.84097 -5.97686
vt -4.82131 -5.97686
vt -4.80386 -5.97686
vt 1.25661 -5.97686
vt 1.27475 -5.97686
vt 1.29475 -5.97686
vt 1.31512 -5.97686
vt 1.33437 -5.97686
vt 1.35106 -5.97686
vt 5.81222 -5.97686
vt 5.83095 -5.97686
vt 5.85119 -5.56672
vt 5.87142 -5.56672
vt 5.89016 -5.56672
vt 5.906 -5.56672
vt -0.334369 -5.56672
vt -0.315123 -5.56672
vt -0.294746 -5.56672
vt -0.274748 -5.56672
vt -0.256613 -5.56672
vt -0.241686 -5.56672
vt -4.88107 -5.56672
vt -4.8614 -5.56672
vt -4.84097 -5.56672
vt -4.82131 -5.56672
vt -4.80386 -5.56672
vt 1.25661 -5.56672
vt 1.27475 -5.56672
vt 1.29475 -5.56672
vt 1.31512 -5.56672
vt 1.33437 -5.56672
vt 1.35106 -5.56672
vt 5.81222 -5.56672
vt 5.83095 -5.56672
vt -4.85119 -0.337364
vt -4.8613 -0.335973
vt -4.87067 -0.331905
vt -4.87859 -0.32546
vt -4.88448 -0.317116
vt -4.8879 -0.307494
vt -4.8886 -0.297305
vt -4.88652 -0.287306
vt -4.88182 -0.278239
vt -4.87485 -0.270775
vt -4.86613 -0.265469
vt -4.85629 -0.262713
vt -4.84608 -0.262713
vt -4.83625 -0.265469
vt -4.82752 -0.270775
vt -4.82055 -0.278239
vt -4.81585 -0.287306
vt -4.81377 -0.297305
vt -4.81447 -0.307494
vt -4.81789 -0.317116
vt -4.82378 -0.32546
vt -4.8317 -0.331905
vt -4.84107 -0.335973
vt -4.85119 -0.299864
vt 5.85119 -0.337364
vt 5.8613 -0.335973
vt 5.87067 -0.331905
vt 5.87859 -0.32546
vt 5.88448 -0.317116
vt 5.8879 -0.307494
vt 5.8886 -0.297305
vt 5.88652 -0.287306
vt 5.88182 -0.278239
vt 5.87485 -0.270775
vt 5.86613 -0.265469
vt 5.85629 -0.262713
vt 5.84608 -0.262713
vt 5.83625 -0.265469
vt 5.82752 -0.270775
vt 5.82055 -0.278239
vt 5.81585 -0.287306
vt 5.81378 -0.297305
vt 5.81447 -0.307494
vt 5.81789 -0.317116
vt 5.82378 -0.32546
vt 5.8317 -0.331905
vt 5.84107 -0.335973
vt 5.85119 -0.299864
vt -0.351055 -5.97686
vt -0.351055 -5.56672
vt -4.89852 -5.97686
vt -4.89852 -5.56672
vt 1.24169 -5.97686
vt 1.24169 -5.56672
vt 5.79637 -5.97686
vt 5.79637 -5.56672
vt -4.87142 -0.372083
vt -4.85119 -0.374864
vt -4.89016 -0.363945
vt -4.87142 -0.372083
vt -4.906 -0.351055
vt -4.89016 -0.363945
vt -4.91778 -0.334369
vt -4.906 -0.351055
vt -4.92462 -0.315123
vt -4.91778 -0.334369
vt -4.92601 -0.294746
vt -4.92462 -0.315123
vt -4.92186 -0.274748
vt -4.92601 -0.294746
vt -4.91246 -0.256613
vt -4.92186 -0.274748
vt -4.89852 -0.241686
vt -4.91246 -0.256613
vt -4.88107 -0.231073
vt -4.89852 -0.241686
vt -4.8614 -0.225563
vt -4.88107 -0.231073
vt -4.84097 -0.225563
vt -4.8614 -0.225563
vt -4.82131 -0.231073
vt -4.84097 -0.225563
vt -4.80386 -0.241686
vt -4.82131 -0.231073
vt -4.78991 -0.256613
vt -4.80386 -0.241686
vt -4.78052 -0.274748
vt -4.78991 -0.256613
vt -4.77636 -0.294746
vt -4.78052 -0.274748
vt -4.77776 -0.315123
vt -4.77636 -0.294746
vt -4.7846 -0.334369
vt -4.77776 -0.315123
vt -4.79637 -0.351055
vt -4.7846 -0.334369
vt -4.81222 -0.363945
vt -4.79637 -0.351055
vt -4.83095 -0.372083
vt -4.81222 -0.363945
vt -4.85119 -0.374864
vt -4.83095 -0.372083
vt 5.85119 -0.374864
vt 5.87142 -0.372082
vt 5.87142 -0.372082
vt 5.89016 -0.363945
vt 5.89016 -0.363945
vt 5.906 -0.351055
vt 5.906 -0.351055
vt 5.91778 -0.334369
vt 5.91778 -0.334369
vt 5.92462 -0.315123
vt 5.92462 -0.315123
vt 5.92601 -0.294746
vt 5.92601 -0.294746
vt 5.92186 -0.274748
vt 5.92186 -0.274748
vt 5.91246 -0.256613
vt 5.91246 -0.256613
vt 5.89852 -0.241686
vt 5.89852 -0.241686
vt 5.88107 -0.231073
vt 5.88107 -0.231073
vt 5.8614 -0.225563
vt 5.8614 -0.225563
vt 5.84097 -0.225563
vt 5.84097 -0.225563
vt 5.82131 -0.231073
vt 5.82131 -0.231073
vt 5.80386 -0.241686
vt 5.80386 -0.241686
vt 5.78991 -0.256613
vt 5.78991 -0.256613
vt 5.78052 -0.274748
vt 5.78052 -0.274748
vt 5.77636 -0.294746
vt 5.77636 -0.294746
vt 5.77776 -0.315123
vt 5.77776 -0.315123
vt 5.7846 -0.334369
vt 5.7846 -0.334369
vt 5.79637 -0.351055
vt 5.79637 -0.351055
vt 5.81222 -0.363945
vt 5.81222 -0.363945
vt 5.83095 -0.372082
vt 5.83095 -0.372082
vt 5.85119 -0.374864
f 25/25/3 2/2/2 1/1/1
f 1/1/1 24/24/4 25/25/3
f 26/26/6 3/3/5 2/2/2
f 2/2/2 25/25/3 26/26/6
f 27/27/8 4/4/7 3/3/5
f 3/3/5 26/26/6 27/27/8
f 28/28/10 5/5/9 4/95/7
f 4/95/7 27/96/8 28/28/10
f 29/29/12 6/6/11 5/5/9
f 5/5/9 28/28/10 29/29/12
f 30/30/14 7/7/13 6/6/11
f 6/6/11 29/29/12 30/30/14
f 31/31/16 8/8/15 7/7/13
f 7/7/13 30/30/14 31/31/16
f 32/32/18 9/9/17 8/8/15
f 8/8/15 31/31/16 32/32/18
f 33/33/20 10/10/19 9/9/17
f 9/9/17 32/32/18 33/33/20
f 34/34/22 11/11/21 10/97/19
f 10/97/19 33/98/20 34/34/22
f 35/35/24 12/12/23 11/11/21
f 11/11/21 34/34/22 35/35/24
f 36/36/26 13/13/25 12/12/23
f 12/12/23 35/35/24 36/36/26
f 37/37/28 14/14/27 13/13/25
f 13/13/25 36/36/26 37/37/28
f 38/38/30 15/15/29 14/14/27
f 14/14/27 37/37/28 38/38/30
f 39/39/32 16/16/31 15/99/29
f 15/99/29 38/100/30 39/39/32
f 40/40/34 17/17/33 16/16/31
f 16/16/31 39/39/32 40/40/34
f 41/41/36 18/18/35 17/17/33
f 17/17/33 40/40/34 41/41/36
f 42/42/38 19/19/37 18/18/35
f 18/18/35 41/41/36 42/42/38
f 43/43/40 20/20/39 19/19/37
f 19/19/37 42/42/38 43/43/40
f 44/44/42 21/21/41 20/20/39
f 20/20/39 43/43/40 44/44/42
f 45/45/44 22/22/43 21/101/41
f 21/101/41 44/102/42 45/45/44
f 46/46/46 23/23/45 22/22/43
f 22/22/43 45/45/44 46/46/46
f 24/24/4 1/1/1 23/23/45
f 23/23/45 46/46/46 24/24/4
f 47/47/49 1/104/48 2/103/47
f 2/103/47 48/48/50 47/47/49
f 48/48/50 2/106/47 3/105/51
f 3/105/51 49/49/52 48/48/50
f 49/49/52 3/108/51 4/107/53
f 4/107/53 50/50/54 49/49/52
f 50/50/54 4/110/53 5/109/55
f 5/109/55 51/51/56 50/50/54
f 51/51/56 5/112/55 6/111/57
f 6/111/57 52/52/58 51/51/56
f 52/52/58 6/114/57 7/113/59
f 7/113/59 53/53/60 52/52/58
f 53/53/60 7/116/59 8/115/61
f 8/115/61 54/54/62 53/53/60
f 54/54/62 8/118/61 9/117/62
f 9/117/62 55/55/62 54/54/62
f 55/55/62 9/120/62 10/119/62
f 10/119/62 56/56/62 55/55/62
f 56/56/62 10/122/62 11/121/62
f 11/121/62 57/57/62 56/56/62
f 57/57/62 11/124/62 12/123/62
f 12/123/62 58/58/62 57/57/62
f 58/58/62 12/126/62 13/125/62
f 13/125/62 59/59/62 58/58/62
f 59/59/62 13/128/62 14/127/62
f 14/127/62 60/60/62 59/59/62
f 60/60/62 14/130/62 15/129/62
f 15/129/62 61/61/62 60/60/62
f 61/61/62 15/132/62 16/131/62
f 16/131/62 62/62/62 61/61/62
f 62/62/62 16/134/62 17/133/62
f 17/133/62 63/63/62 62/62/62
f 63/63/62 17/136/62 18/135/62
f 18/135/62 64/64/62 63/63/62
f 64/64/62 18/138/62 19/137/62
f 19/137/62 65/65/62 64/64/62
f 65/65/62 19/140/62 20/139/62
f 20/139/62 66/66/62 65/65/62
f 66/66/62 20/142/62 21/141/62
f 21/141/62 67/67/62 66/66/62
f 67/67/62 21/144/62 22/143/62
f 22/143/62 68/68/62 67/67/62
f 68/68/62 22/146/62 23/145/63
f 23/145/63 69/69/64 68/68/62
f 69/69/64 23/148/63 1/147/48
f 1/147/48 47/47/49 69/69/64
f 70/70/62 47/47/49 48/48/50
f 70/70/62 48/48/50 49/49/52
f 70/70/62 49/49/52 50/50/54
f 70/70/62 50/50/54 51/51/56
f 70/70/62 51/51/56 52/52/58
f 70/70/62 52/52/58 53/53/60
f 70/70/62 53/53/60 54/54/62
f 70/70/62 54/54/62 55/55/62
f 70/70/62 55/55/62 56/56/62
f 70/70/62 56/56/62 57/57/62
f 70/70/62 57/57/62 58/58/62
f 70/70/62 58/58/62 59/59/62
f 70/70/62 59/59/62 60/60/62
f 70/70/62 60/60/62 61/61/62
f 70/70/62 61/61/62 62/62/62
f 70/70/62 62/62/62 63/63/62
f 70/70/62 63/63/62 64/64/62
f 70/70/62 64/64/62 65/65/62
f 70/70/62 65/65/62 66/66/62
f 70/70/62 66/66/62 67/67/62
f 70/70/62 67/67/62 68/68/62
f 70/70/62 68/68/62 69/69/64
f 70/70/62 69/69/64 47/47/49
f 72/72/67 25/150/66 24/149/65
f 24/149/65 71/71/68 72/72/67
f 73/73/70 26/152/69 25/151/66
f 25/151/66 72/72/67 73/73/70
f 74/74/72 27/154/71 26/153/69
f 26/153/69 73/73/70 74/74/72
f 75/75/74 28/156/73 27/155/71
f 27/155/71 74/74/72 75/75/74
f 76/76/76 29/158/75 28/157/73
f 28/157/73 75/75/74 76/76/76
f 77/77/78 30/160/77 29/159/75
f 29/159/75 76/76/76 77/77/78
f 78/78/80 31/162/79 30/161/77
f 30/161/77 77/77/78 78/78/80
f 79/79/82 32/164/81 31/163/79
f 31/163/79 78/78/80 79/79/82
f 80/80/84 33/166/83 32/165/81
f 32/165/81 79/79/82 80/80/84
f 81/81/86 34/168/85 33/167/83
f 33/167/83 80/80/84 81/81/86
f 82/82/88 35/170/87 34/169/85
f 34/169/85 81/81/86 82/82/88
f 83/83/90 36/172/89 35/171/87
f 35/171/87 82/82/88 83/83/90
f 84/84/92 37/174/91 36/173/89
f 36/173/89 83/83/90 84/84/92
f 85/85/94 38/176/93 37/175/91
f 37/175/91 84/84/92 85/85/94
f 86/86/96 39/178/95 38/177/93
f 38/177/93 85/85/94 86/86/96
f 87/87/98 40/180/97 39/179/95
f 39/179/95 86/86/96 87/87/98
f 88/88/100 41/182/99 40/181/97
f 40/181/97 87/87/98 88/88/100
f 89/89/102 42/184/101 41/183/99
f 41/183/99 88/88/100 89/89/102
f 90/90/104 43/186/103 42/185/101
f 42/185/101 89/89/102 90/90/104
f 91/91/106 44/188/105 43/187/103
f 43/187/103 90/90/104 91/91/106
f 92/92/107 45/190/107 44/189/105
f 44/189/105 91/91/106 92/92/107
f 93/93/107 46/192/108 45/191/107
f 45/191/107 92/92/107 93/93/107
f 71/71/68 24/194/65 46/193/108
f 46/193/108 93/93/107 71/71/68
f 94/94/109 72/72/67 71/71/68
f 94/94/109 73/73/70 72/72/67
f 94/94/109 74/74/72 73/73/70
f 94/94/109 75/75/74 74/74/72
f 94/94/109 76/76/76 75/75/74
f 94/94/109 77/77/78 76/76/76
f 94/94/109 78/78/80 77/77/78
f 94/94/109 79/79/82 78/78/80
f 94/94/109 80/80/84 79/79/82
f 94/94/109 81/81/86 80/80/84
f 94/94/109 82/82/88 81/81/86
f 94/94/109 83/83/90 82/82/88
f 94/94/109 84/84/92 83/83/90
f 94/94/109 85/85/94 84/84/92
f 94/94/109 86/86/96 85/85/94
f 94/94/109 87/87/98 86/86/96
f 94/94/109 88/88/100 87/87/98
f 94/94/109 89/89/102 88/88/100
f 94/94/109 90/90/104 89/89/102
f 94/94/109 91/91/106 90/90/104
f 94/94/109 92/92/107 91/91/106
f 94/94/109 93/93/107 92/92/107
f 94/94/109 71/71/68 93/93/107
