v 102.344 783.097 262.21
v 102.344 782.972 261.731
v 102.344 782.854 261.231
v 102.344 782.721 260.773
v 102.344 782.552 260.419
v 102.344 782.328 260.191
v 102.344 782.066 260.055
v 102.344 781.792 259.985
v 102.344 781.532 259.958
v 102.344 781.279 259.978
v 102.344 781.023 260.055
v 102.344 780.789 260.17
v 102.344 780.602 260.301
v 102.344 780.468 260.445
v 102.344 780.375 260.613
v 102.344 780.315 260.806
v 102.344 780.284 261.028
v 102.344 780.292 261.292
v 102.344 780.337 261.591
v 102.344 780.397 261.904
v 102.344 780.449 262.21
v 102.344 780.761 262.21
v 102.344 780.714 261.905
v 102.344 780.661 261.591
v 102.344 780.62 261.296
v 102.344 780.609 261.05
v 102.344 780.631 260.862
v 102.344 780.677 260.717
v 102.344 780.747 260.602
v 102.344 780.841 260.503
v 102.344 780.964 260.413
v 102.344 781.113 260.341
v 102.344 781.28 260.295
v 102.344 781.454 260.284
v 102.344 781.644 260.289
v 102.344 781.851 260.313
v 102.344 782.057 260.395
v 102.344 782.24 260.574
v 102.344 782.393 260.889
v 102.344 782.528 261.308
v 102.344 782.655 261.769
v 102.344 782.785 262.21
v 103.668 783.097 262.21
v 103.668 782.972 261.731
v 103.668 782.854 261.231
v 103.668 782.721 260.773
v 103.668 782.552 260.419
v 103.668 782.328 260.191
v 103.668 782.066 260.055
v 103.668 781.792 259.985
v 103.668 781.532 259.958
v 103.668 781.279 259.978
v 103.668 781.023 260.055
v 103.668 780.789 260.17
v 103.668 780.602 260.301
v 103.668 780.468 260.445
v 103.668 780.375 260.613
v 103.668 780.315 260.806
v 103.668 780.284 261.028
v 103.668 780.292 261.292
v 103.668 780.337 261.591
v 103.668 780.397 261.904
v 103.668 780.449 262.21
v 103.668 780.761 262.21
v 103.668 780.714 261.905
v 103.668 780.661 261.591
v 103.668 780.62 261.296
v 103.668 780.609 261.049
v 103.668 780.631 260.862
v 103.668 780.677 260.717
v 103.668 780.747 260.602
v 103.668 780.841 260.503
v 103.668 780.964 260.413
v 103.668 781.113 260.341
v 103.668 781.28 260.295
v 103.668 781.454 260.284
v 103.668 781.644 260.289
v 103.668 781.851 260.313
v 103.668 782.057 260.395
v 103.668 782.24 260.574
v 103.668 782.393 260.889
v 103.668 782.528 261.308
v 103.668 782.655 261.769
v 103.668 782.785 262.21
vn -5.7313e-007 0.970503 -0.24109
vn -5.50095e-007 0.967513 -0.252821
vn -5.71486e-007 0.967513 -0.252821
vn -5.83827e-007 0.970503 -0.24109
vn -5.77332e-007 0.967279 -0.253717
vn -5.75847e-007 0.967279 -0.253717
vn -5.1666e-007 0.934428 -0.356152
vn -1.43979e-006 0.934427 -0.356155
vn -2.50918e-006 0.818679 -0.574251
vn -1.79934e-006 0.818682 -0.574247
vn -1.77689e-006 0.594468 -0.804119
vn -1.23912e-007 0.594474 -0.804115
vn 8.16536e-008 0.355723 -0.934592
vn 6.06408e-008 0.355722 -0.934592
vn 1.86444e-007 0.175849 -0.984417
vn 2.04368e-007 0.175849 -0.984417
vn 3.35686e-007 0.0126507 -0.99992
vn 3.37291e-007 0.0126507 -0.99992
vn 4.52401e-007 -0.185309 -0.98268
vn 4.32349e-007 -0.185309 -0.98268
vn 5.47988e-007 -0.364941 -0.931031
vn 5.70873e-007 -0.364941 -0.931031
vn 6.46159e-007 -0.50848 -0.861074
vn -1.44234e-006 -0.50849 -0.861068
vn -1.4972e-006 -0.657638 -0.753334
vn -1.82014e-006 -0.657638 -0.753334
vn -1.01386e-006 -0.808723 -0.58819
vn 7.54214e-007 -0.808716 -0.5882
vn 7.63977e-007 -0.919726 -0.392561
vn 7.63977e-007 -0.919726 -0.392561
vn 7.42967e-007 -0.976363 -0.216136
vn 7.43179e-007 -0.976363 -0.216136
vn 7.03577e-007 -0.998463 -0.0554213
vn 7.03831e-007 -0.998463 -0.0554213
vn 6.53122e-007 -0.996083 0.0884272
vn 1.01719e-006 -0.996083 0.0884256
vn 1.21612e-006 -0.985681 0.168623
vn 1.12356e-006 -0.985681 0.168623
vn 1.07006e-006 -0.983891 0.178769
vn 6.06243e-007 -0.983891 0.17877
vn 6.15862e-007 -0.98559 0.169154
vn 6.00045e-007 -0.98559 0.169154
vn -4.32714e-007 1.07132e-007 1
vn -4.48833e-007 1.75639e-007 1
vn -3.55385e-007 -2.21515e-007 1
vn -3.39265e-007 -2.90021e-007 1
vn -6.2305e-007 0.987231 -0.159295
vn -6.26153e-007 0.988325 -0.15236
vn -6.2305e-007 0.987231 -0.159295
vn -6.26369e-007 0.9884 -0.151876
vn -6.26368e-007 0.9884 -0.151876
vn -6.52157e-007 0.995857 -0.0909376
vn -7.63349e-007 0.995857 -0.0909382
vn -3.7715e-007 0.999325 0.0367301
vn -7.94219e-007 0.999325 0.0367268
vn -4.37558e-007 0.977321 0.211762
vn -7.4456e-007 0.977322 0.21176
vn -7.69498e-007 0.90994 0.414739
vn -7.6712e-007 0.90994 0.41474
vn -7.54404e-007 0.795019 0.606584
vn -7.50546e-007 0.795019 0.606584
vn -7.11064e-007 0.661527 0.749921
vn 1.43227e-006 0.661514 0.749933
vn 2.0987e-006 0.514526 0.857475
vn 1.87139e-006 0.514527 0.857474
vn 1.81657e-006 0.35072 0.93648
vn -5.28716e-007 0.350737 0.936474
vn -4.15814e-007 0.165186 0.986262
vn -4.17734e-007 0.165187 0.986262
vn -3.25622e-007 0.0180485 0.999837
vn -3.53682e-007 0.0180488 0.999837
vn -2.93727e-007 -0.0715526 0.997437
vn -2.90937e-007 -0.0715526 0.997437
vn -1.65031e-007 -0.245206 0.969471
vn -1.51561e-007 -0.245206 0.969471
vn 1.09988e-007 -0.545068 0.838392
vn 1.91106e-006 -0.545075 0.838387
vn 1.86619e-006 -0.81051 0.585725
vn 2.63283e-006 -0.810514 0.58572
vn 1.56547e-006 -0.927962 0.372674
vn 1.25433e-006 -0.927962 0.372675
vn 1.54634e-006 -0.958459 0.285231
vn 1.62895e-006 -0.958459 0.28523
vn 1.17537e-006 -0.961507 0.27478
vn 5.66226e-007 -0.961507 0.274782
vn 5.61043e-007 -0.958706 0.284399
vn -3.55385e-007 -2.21515e-007 1
vn -4.32714e-007 1.07134e-007 1
vn -4.48833e-007 1.7564e-007 1
vn -1 -6.77859e-007 -1.77454e-006
vn -1 -6.85851e-007 -1.20131e-007
vn -1 3.28675e-007 -1.33619e-006
vn -1 1.9184e-006 -1.54653e-006
vn -1 2.88353e-006 -7.12213e-007
vn -1 2.86494e-006 -4.67057e-007
vn -1 2.86777e-006 -4.34212e-007
vn -1 2.88081e-006 3.49326e-008
vn -1 2.87589e-006 7.92141e-008
vn -1 3.33174e-006 -2.12701e-006
vn -1 -1.00403e-007 1.29546e-006
vn -1 -1.42033e-006 -1.7911e-006
vn -1 -5.14786e-006 1.78681e-006
vn -1 -5.02297e-006 1.65309e-007
vn -1 -3.13892e-006 -4.80128e-007
vn -1 -3.01743e-006 1.01073e-006
vn -1 1.00434e-006 -1.08969e-006
vn -1 2.93903e-006 -1.58755e-006
vn -1 5.60267e-007 -9.79786e-007
vn -1 -1.66512e-006 -1.30803e-007
vn -1 -3.78236e-006 7.3912e-007
vn -1 -2.82732e-006 2.69413e-007
vn 1 6.85851e-007 1.20131e-007
vt 5.93318 -5.61443
vt 5.93318 -5.23943
vt -4.93318 -5.61443
vt -4.93318 -5.23943
vt -4.93318 -0.408593
vt -4.8563 -0.408593
vt -4.8563 -0.196093
vt -4.93318 -0.196093
vt -4.8563 -0.408593
vt -4.77608 -0.408593
vt -4.77608 -0.196093
vt -4.8563 -0.196093
vt -4.77608 -0.408593
vt -4.70254 -0.408593
vt -4.70254 -0.196093
vt -4.77608 -0.196093
vt -4.70254 -0.408593
vt -4.64568 -0.408593
vt -4.64568 -0.196092
vt -4.70254 -0.196093
vt -4.64568 -0.408593
vt -4.60915 -0.408592
vt -4.60915 -0.196092
vt -4.64568 -0.196092
vt 1.40859 -5.49103
vt 1.40859 -5.44896
vt 1.19609 -5.44896
vt 1.19609 -5.49103
vt 1.40859 -5.44896
vt 1.40859 -5.40495
vt 1.19609 -5.40495
vt 1.19609 -5.44896
vt 1.40859 -5.40495
vt 1.40859 -5.36325
vt 1.19609 -5.36325
vt 1.19609 -5.40495
vt 1.40859 -5.36325
vt 1.40859 -5.32261
vt 1.19609 -5.32261
vt 1.19609 -5.36325
vt 1.40859 -5.32261
vt 1.40859 -5.28154
vt 1.19609 -5.28154
vt 1.19609 -5.32261
vt 1.40859 -5.28154
vt 1.40859 -5.244
vt 1.19609 -5.244
vt 1.19609 -5.28154
vt 1.40859 -5.244
vt 1.40859 -5.21392
vt 1.19609 -5.21392
vt 1.19609 -5.244
vt 5.62684 -0.408592
vt 5.64999 -0.408592
vt 5.64999 -0.196092
vt 5.62684 -0.196092
vt 5.64999 -0.408592
vt 5.6768 -0.408592
vt 5.6768 -0.196092
vt 5.64999 -0.196092
vt 5.6768 -0.408592
vt 5.70782 -0.408593
vt 5.70782 -0.196092
vt 5.6768 -0.196092
vt 5.70782 -0.408593
vt 5.74357 -0.408593
vt 5.74357 -0.196093
vt 5.70782 -0.196092
vt 5.74357 -0.408593
vt 5.78585 -0.408593
vt 5.78585 -0.196093
vt 5.74357 -0.196093
vt 5.78585 -0.408593
vt 5.83382 -0.408593
vt 5.83382 -0.196093
vt 5.78585 -0.196093
vt 5.83382 -0.408593
vt 5.88407 -0.408593
vt 5.88407 -0.196093
vt 5.83382 -0.196093
vt 5.88407 -0.408593
vt 5.93318 -0.408593
vt 5.93318 -0.196093
vt 5.88407 -0.196093
vt -0.408593 -5.18943
vt -0.408593 -5.23943
vt -0.196093 -5.23943
vt -0.196093 -5.18943
vt -4.93318 -0.408593
vt -4.88432 -0.408593
vt -4.88432 -0.196093
vt -4.93318 -0.196093
vt -4.88432 -0.408593
vt -4.83392 -0.408593
vt -4.83392 -0.196093
vt -4.88432 -0.196093
vt -4.83392 -0.408593
vt -4.78659 -0.408593
vt -4.78659 -0.196093
vt -4.83392 -0.196093
vt -4.78659 -0.408593
vt -4.74695 -0.408593
vt -4.74695 -0.196093
vt -4.78659 -0.196093
vt -4.74695 -0.408593
vt -4.71685 -0.408593
vt -4.71685 -0.196093
vt -4.74695 -0.196093
vt -4.71685 -0.408593
vt -4.69361 -0.408593
vt -4.69361 -0.196092
vt -4.71685 -0.196093
vt -4.69361 -0.408593
vt -4.67509 -0.408592
vt -4.67509 -0.196092
vt -4.69361 -0.196092
vt -4.67509 -0.408592
vt -4.65915 -0.408592
vt -4.65915 -0.196092
vt -4.67509 -0.196092
vt -0.408592 -5.25238
vt -0.408592 -5.27203
vt -0.196092 -5.27203
vt -0.196092 -5.25238
vt -0.408592 -5.27203
vt -0.408592 -5.29602
vt -0.196092 -5.29602
vt -0.196092 -5.27203
vt -0.408592 -5.29602
vt -0.408592 -5.32278
vt -0.196092 -5.32278
vt -0.196092 -5.29602
vt -0.408592 -5.32278
vt -0.408592 -5.35076
vt -0.196092 -5.35076
vt -0.196092 -5.32278
vt -0.408592 -5.35076
vt -0.408592 -5.38125
vt -0.196092 -5.38125
vt -0.196092 -5.35076
vt -0.408592 -5.38125
vt -0.408592 -5.41453
vt -0.196092 -5.41453
vt -0.196092 -5.38125
vt -0.408592 -5.41453
vt -0.408592 -5.44746
vt -0.196092 -5.44746
vt -0.196092 -5.41453
vt -0.408592 -5.44746
vt -0.408593 -5.47693
vt -0.196092 -5.47693
vt -0.196092 -5.44746
vt 5.67068 -0.408593
vt 5.72113 -0.408593
vt 5.72113 -0.196093
vt 5.67068 -0.196092
vt 5.72113 -0.408593
vt 5.78844 -0.408593
vt 5.78844 -0.196093
vt 5.72113 -0.196093
vt 5.78844 -0.408593
vt 5.8625 -0.408593
vt 5.8625 -0.196093
vt 5.78844 -0.196093
vt 5.8625 -0.408593
vt 5.93318 -0.408593
vt 5.93318 -0.196093
vt 5.8625 -0.196093
vt -0.408593 -5.56443
vt -0.408593 -5.61443
vt -0.196093 -5.61443
vt -0.196093 -5.56443
vt 5.93318 -5.56443
vt 5.8563 -5.59434
vt 5.8625 -5.54346
vt 5.93318 -5.18943
vt 5.88432 -5.2319
vt 5.88407 -5.181
vt 5.83392 -5.2234
vt 5.83382 -5.17137
vt 5.78659 -5.21683
vt 5.78585 -5.16415
vt 5.77608 -5.57544
vt 5.78844 -5.5231
vt 5.74695 -5.21508
vt 5.74357 -5.16297
vt 5.70782 -5.16796
vt 5.71685 -5.21864
vt 5.6768 -5.17746
vt 5.69361 -5.22606
vt 5.64999 -5.19245
vt 5.67509 -5.23732
vt 5.62684 -5.21392
vt 5.65915 -5.25238
vt 5.60571 -5.244
vt 5.64476 -5.27203
vt 5.63321 -5.29602
vt 5.70254 -5.55416
vt 5.72113 -5.50153
vt 5.64568 -5.52693
vt 5.67068 -5.47693
vt 5.60915 -5.49103
vt 5.64193 -5.44746
vt 5.5873 -5.44896
vt 5.62878 -5.41453
vt 5.57614 -5.40495
vt 5.62492 -5.38125
vt 5.57173 -5.36325
vt 5.62407 -5.35076
vt 5.57499 -5.32261
vt 5.62586 -5.32278
vt 5.58737 -5.28154
vt -4.93318 -5.56443
vt -4.8563 -5.59434
vt -4.8625 -5.54346
vt -4.93318 -5.18943
vt -4.88432 -5.2319
vt -4.88407 -5.181
vt -4.83392 -5.2234
vt -4.83382 -5.17137
vt -4.78659 -5.21683
vt -4.78585 -5.16415
vt -4.77608 -5.57544
vt -4.78844 -5.5231
vt -4.74695 -5.21508
vt -4.74357 -5.16297
vt -4.70782 -5.16796
vt -4.71685 -5.21864
vt -4.6768 -5.17746
vt -4.69361 -5.22606
vt -4.64999 -5.19245
vt -4.67509 -5.23732
vt -4.62684 -5.21392
vt -4.65915 -5.25238
vt -4.60571 -5.244
vt -4.64476 -5.27203
vt -4.63321 -5.29602
vt -4.70254 -5.55416
vt -4.72113 -5.50153
vt -4.64568 -5.52693
vt -4.67068 -5.47693
vt -4.60915 -5.49103
vt -4.64194 -5.44746
vt -4.5873 -5.44896
vt -4.62878 -5.41453
vt -4.57614 -5.40495
vt -4.62492 -5.38125
vt -4.57173 -5.36325
vt -4.62407 -5.35076
vt -4.57499 -5.32261
vt -4.62586 -5.32278
vt -4.58737 -5.28154
f 1/5/3 43/8/2 44/7/1
f 44/7/1 2/6/4 1/5/3
f 2/9/4 44/12/1 45/11/5
f 45/11/5 3/10/6 2/9/4
f 3/13/6 45/16/5 46/15/7
f 46/15/7 4/14/8 3/13/6
f 4/17/8 46/20/7 47/19/9
f 47/19/9 5/18/10 4/17/8
f 5/21/10 47/24/9 48/23/11
f 48/23/11 6/22/12 5/21/10
f 6/25/12 48/28/11 49/27/13
f 49/27/13 7/26/14 6/25/12
f 7/29/14 49/32/13 50/31/15
f 50/31/15 8/30/16 7/29/14
f 8/33/16 50/36/15 51/35/17
f 51/35/17 9/34/18 8/33/16
f 9/37/18 51/40/17 52/39/19
f 52/39/19 10/38/20 9/37/18
f 10/41/20 52/44/19 53/43/21
f 53/43/21 11/42/22 10/41/20
f 11/45/22 53/48/21 54/47/23
f 54/47/23 12/46/24 11/45/22
f 12/49/24 54/52/23 55/51/25
f 55/51/25 13/50/26 12/49/24
f 13/53/26 55/56/25 56/55/27
f 56/55/27 14/54/28 13/53/26
f 14/57/28 56/60/27 57/59/29
f 57/59/29 15/58/30 14/57/28
f 15/61/30 57/64/29 58/63/31
f 58/63/31 16/62/32 15/61/30
f 16/65/32 58/68/31 59/67/33
f 59/67/33 17/66/34 16/65/32
f 17/69/34 59/72/33 60/71/35
f 60/71/35 18/70/36 17/69/34
f 18/73/36 60/76/35 61/75/37
f 61/75/37 19/74/38 18/73/36
f 19/77/38 61/80/37 62/79/39
f 62/79/39 20/78/40 19/77/38
f 20/81/40 62/84/39 63/83/41
f 63/83/41 21/82/42 20/81/40
f 21/85/45 63/88/44 64/87/43
f 64/87/43 22/86/46 21/85/45
f 22/89/48 64/92/48 65/91/47
f 65/91/47 23/90/49 22/89/48
f 23/93/49 65/96/47 66/95/50
f 66/95/50 24/94/51 23/93/49
f 24/97/51 66/100/50 67/99/52
f 67/99/52 25/98/53 24/97/51
f 25/101/53 67/104/52 68/103/54
f 68/103/54 26/102/55 25/101/53
f 26/105/55 68/108/54 69/107/56
f 69/107/56 27/106/57 26/105/55
f 27/109/57 69/112/56 70/111/58
f 70/111/58 28/110/59 27/109/57
f 28/113/59 70/116/58 71/115/60
f 71/115/60 29/114/61 28/113/59
f 29/117/61 71/120/60 72/119/62
f 72/119/62 30/118/63 29/117/61
f 30/121/63 72/124/62 73/123/64
f 73/123/64 31/122/65 30/121/63
f 31/125/65 73/128/64 74/127/66
f 74/127/66 32/126/67 31/125/65
f 32/129/67 74/132/66 75/131/68
f 75/131/68 33/130/69 32/129/67
f 33/133/69 75/136/68 76/135/70
f 76/135/70 34/134/71 33/133/69
f 34/137/71 76/140/70 77/139/72
f 77/139/72 35/138/73 34/137/71
f 35/141/73 77/144/72 78/143/74
f 78/143/74 36/142/75 35/141/73
f 36/145/75 78/148/74 79/147/76
f 79/147/76 37/146/77 36/145/75
f 37/149/77 79/152/76 80/151/78
f 80/151/78 38/150/79 37/149/77
f 38/153/79 80/156/78 81/155/80
f 81/155/80 39/154/81 38/153/79
f 39/157/81 81/160/80 82/159/82
f 82/159/82 40/158/83 39/157/81
f 40/161/83 82/164/82 83/163/84
f 83/163/84 41/162/85 40/161/83
f 41/165/85 83/168/84 84/167/86
f 84/167/86 42/166/86 41/165/85
f 42/169/88 84/172/46 43/171/87
f 43/171/87 1/170/89 42/169/88
f 21/176/91 22/2/91 23/177/90
f 20/178/92 21/176/91 23/177/90
f 20/178/92 23/177/90 24/179/93
f 19/180/94 20/178/92 24/179/93
f 19/180/94 24/179/93 25/181/95
f 18/182/96 19/180/94 25/181/95
f 18/182/96 25/181/95 26/185/97
f 17/186/98 18/182/96 26/185/97
f 16/187/99 17/186/98 26/185/97
f 16/187/99 26/185/97 27/188/100
f 15/189/101 16/187/99 27/188/100
f 15/189/101 27/188/100 28/190/102
f 14/191/103 15/189/101 28/190/102
f 14/191/103 28/190/102 29/192/104
f 13/193/105 14/191/103 29/192/104
f 13/193/105 29/192/104 30/194/91
f 12/195/91 13/193/105 30/194/91
f 12/195/91 30/194/91 31/196/91
f 11/212/91 12/195/91 31/196/91
f 11/212/91 31/196/91 32/197/91
f 11/212/91 32/197/91 33/211/91
f 10/210/106 11/212/91 33/211/91
f 10/210/106 33/211/91 34/209/107
f 9/208/108 10/210/106 34/209/107
f 9/208/108 34/209/107 35/207/109
f 8/206/110 9/208/108 35/207/109
f 8/206/110 35/207/109 36/205/111
f 7/204/91 8/206/110 36/205/111
f 7/204/91 36/205/111 37/203/91
f 6/202/91 7/204/91 37/203/91
f 6/202/91 37/203/91 38/201/91
f 5/200/91 6/202/91 38/201/91
f 5/200/91 38/201/91 39/199/91
f 4/198/91 5/200/91 39/199/91
f 4/198/91 39/199/91 40/184/91
f 3/183/91 4/198/91 40/184/91
f 3/183/91 40/184/91 41/175/91
f 2/174/91 3/183/91 41/175/91
f 2/174/91 41/175/91 42/173/91
f 1/1/91 2/174/91 42/173/91
f 44/214/112 43/3/112 84/213/112
f 65/217/112 64/4/112 63/216/112
f 65/217/112 63/216/112 62/218/112
f 66/219/112 65/217/112 62/218/112
f 66/219/112 62/218/112 61/220/112
f 67/221/112 66/219/112 61/220/112
f 67/221/112 61/220/112 60/222/112
f 68/225/112 67/221/112 60/222/112
f 68/225/112 60/222/112 59/226/112
f 68/225/112 59/226/112 58/227/112
f 69/228/112 68/225/112 58/227/112
f 69/228/112 58/227/112 57/229/112
f 70/230/112 69/228/112 57/229/112
f 70/230/112 57/229/112 56/231/112
f 71/232/112 70/230/112 56/231/112
f 71/232/112 56/231/112 55/233/112
f 72/234/112 71/232/112 55/233/112
f 72/234/112 55/233/112 54/235/112
f 73/236/112 72/234/112 54/235/112
f 73/236/112 54/235/112 53/252/112
f 74/237/112 73/236/112 53/252/112
f 75/251/112 74/237/112 53/252/112
f 75/251/112 53/252/112 52/250/112
f 76/249/112 75/251/112 52/250/112
f 76/249/112 52/250/112 51/248/112
f 77/247/112 76/249/112 51/248/112
f 77/247/112 51/248/112 50/246/112
f 78/245/112 77/247/112 50/246/112
f 78/245/112 50/246/112 49/244/112
f 79/243/112 78/245/112 49/244/112
f 79/243/112 49/244/112 48/242/112
f 80/241/112 79/243/112 48/242/112
f 80/241/112 48/242/112 47/240/112
f 81/239/112 80/241/112 47/240/112
f 81/239/112 47/240/112 46/238/112
f 82/224/112 81/239/112 46/238/112
f 82/224/112 46/238/112 45/223/112
f 83/215/112 82/224/112 45/223/112
f 83/215/112 45/223/112 44/214/112
f 83/215/112 44/214/112 84/213/112
