v 231.036 793.057 261.699
v 231.054 793.057 261.825
v 231.104 793.057 261.942
v 231.185 793.057 262.04
v 231.289 793.057 262.114
v 231.408 793.057 262.156
v 231.535 793.057 262.165
v 231.66 793.057 262.139
v 231.773 793.057 262.081
v 231.866 793.057 261.994
v 231.932 793.057 261.885
v 231.966 793.057 261.762
v 231.966 793.057 261.635
v 231.932 793.057 261.513
v 231.866 793.057 261.404
v 231.773 793.057 261.317
v 231.66 793.057 261.259
v 231.535 793.057 261.233
v 231.408 793.057 261.241
v 231.289 793.057 261.284
v 231.185 793.057 261.357
v 231.104 793.057 261.456
v 231.054 793.057 261.573
v 231.036 782.799 261.699
v 231.054 782.799 261.825
v 231.104 782.799 261.942
v 231.185 782.799 262.04
v 231.289 782.799 262.114
v 231.408 782.799 262.156
v 231.535 782.799 262.165
v 231.66 782.799 262.139
v 231.773 782.799 262.081
v 231.866 782.799 261.994
v 231.932 782.799 261.885
v 231.966 782.799 261.762
v 231.966 782.799 261.635
v 231.932 782.799 261.513
v 231.866 782.799 261.404
v 231.773 782.799 261.317
v 231.66 782.799 261.259
v 231.535 782.799 261.233
v 231.408 782.799 261.241
v 231.289 782.799 261.284
v 231.185 782.799 261.357
v 231.104 782.799 261.456
v 231.054 782.799 261.573
v 231.27 793.057 261.699
v 231.279 793.057 261.762
v 231.304 793.057 261.82
v 231.344 793.057 261.87
v 231.396 793.057 261.906
v 231.456 793.057 261.928
v 231.519 793.057 261.932
v 231.582 793.057 261.919
v 231.638 793.057 261.89
v 231.685 793.057 261.846
v 231.718 793.057 261.792
v 231.735 793.057 261.731
v 231.735 793.057 261.667
v 231.718 793.057 261.606
v 231.685 793.057 261.551
v 231.638 793.057 261.508
v 231.582 793.057 261.479
v 231.519 793.057 261.466
v 231.456 793.057 261.47
v 231.396 793.057 261.491
v 231.344 793.057 261.528
v 231.304 793.057 261.577
v 231.279 793.057 261.636
v 231.503 793.057 261.699
v 231.27 782.799 261.699
v 231.279 782.799 261.762
v 231.304 782.799 261.82
v 231.344 782.799 261.87
v 231.396 782.799 261.906
v 231.456 782.799 261.928
v 231.519 782.799 261.932
v 231.582 782.799 261.919
v 231.638 782.799 261.89
v 231.685 782.799 261.846
v 231.718 782.799 261.792
v 231.735 782.799 261.731
v 231.735 782.799 261.667
v 231.718 782.799 261.606
v 231.685 782.799 261.551
v 231.638 782.799 261.508
v 231.582 782.799 261.479
v 231.519 782.799 261.466
v 231.456 782.799 261.47
v 231.396 782.799 261.491
v 231.344 782.799 261.528
v 231.304 782.799 261.577
v 231.279 782.799 261.636
v 231.503 782.799 261.699
vn -1 -7.65139e-007 -4.03928e-006
vn -0.96292 -8.92237e-007 0.269787
vn -0.962917 -7.4537e-007 0.269799
vn -1 -7.1492e-007 1.61006e-009
vn -0.854415 -7.3208e-007 0.519591
vn -0.854423 -9.06005e-007 0.519579
vn -0.682544 -4.23215e-007 0.730845
vn -0.68256 -7.11336e-007 0.730829
vn -0.460083 -6.7284e-007 0.887876
vn -0.460056 -2.9492e-007 0.88789
vn -0.20345 -5.14012e-007 0.979085
vn -0.203451 -5.34316e-007 0.979085
vn 0.0682654 1.5201e-008 0.997667
vn 0.0682361 -3.52096e-007 0.997669
vn 0.334868 1.92348e-007 0.942265
vn 0.334868 1.90615e-007 0.942265
vn 0.576681 3.5282e-007 0.81697
vn 0.576681 3.53467e-007 0.816969
vn 0.775712 2.95026e-007 0.631087
vn 0.775721 4.879e-007 0.631076
vn 0.917208 3.36945e-007 0.398409
vn 0.917213 4.84201e-007 0.398398
vn 0.990686 5.29567e-007 0.136164
vn 0.990686 4.84597e-007 0.136167
vn 0.990685 5.9288e-007 -0.136172
vn 0.990686 5.38161e-007 -0.136167
vn 0.917211 6.10205e-007 -0.398402
vn 0.917213 5.56406e-007 -0.398398
vn 0.775708 7.92715e-007 -0.631092
vn 0.775721 5.25213e-007 -0.631076
vn 0.576685 6.72351e-007 -0.816967
vn 0.576681 7.30817e-007 -0.81697
vn 0.334892 2.46071e-007 -0.942256
vn 0.334868 5.71217e-007 -0.942265
vn 0.0682359 7.37656e-008 -0.997669
vn 0.0682359 7.37984e-008 -0.997669
vn -0.203451 -1.03981e-007 -0.979085
vn -0.203451 -1.03883e-007 -0.979085
vn -0.460058 -2.3967e-007 -0.887889
vn -0.460056 -2.74e-007 -0.88789
vn -0.682557 -2.00051e-007 -0.730832
vn -0.682547 -3.77737e-007 -0.730842
vn -0.854425 -2.54621e-007 -0.519575
vn -0.854419 -3.99646e-007 -0.519585
vn -0.962919 -5.79716e-007 -0.269791
vn -0.96292 -5.29512e-007 -0.269787
vn -5.38883e-007 1 3.13916e-007
vn 5.38883e-007 -1 -3.13916e-007
vt 5.85119 -5.97686
vt 5.87142 -5.97686
vt 5.89016 -5.97686
vt 5.906 -5.97686
vt -0.334369 -5.97686
vt -0.315123 -5.97686
vt -0.294746 -5.97686
vt -0.274748 -5.97686
vt -0.256613 -5.97686
vt -0.241686 -5.97686
vt -4.88107 -5.97686
vt -4.8614 -5.97686
vt -4.84097 -5.97686
vt -4.82131 -5.97686
vt -4.80386 -5.97686
vt 1.25661 -5.97686
vt 1.27475 -5.97686
vt 1.29475 -5.97686
vt 1.31512 -5.97686
vt 1.33437 -5.97686
vt 1.35106 -5.97686
vt 5.81222 -5.97686
vt 5.83095 -5.97686
vt 5.85119 -5.56672
vt 5.87142 -5.56672
vt 5.89016 -5.56672
vt 5.906 -5.56672
vt -0.334369 -5.56672
vt -0.315123 -5.56672
vt -0.294746 -5.56672
vt -0.274748 -5.56672
vt -0.256613 -5.56672
vt -0.241686 -5.56672
vt -4.88107 -5.56672
vt -4.8614 -5.56672
vt -4.84097 -5.56672
vt -4.82131 -5.56672
vt -4.80386 -5.56672
vt 1.25661 -5.56672
vt 1.27475 -5.56672
vt 1.29475 -5.56672
vt 1.31512 -5.56672
vt 1.33437 -5.56672
vt 1.35106 -5.56672
vt 5.81222 -5.56672
vt 5.83095 -5.56672
vt -4.85119 -0.337364
vt -4.8613 -0.335973
vt -4.87067 -0.331905
vt -4.87859 -0.32546
vt -4.88448 -0.317116
vt -4.8879 -0.307494
vt -4.8886 -0.297305
vt -4.88652 -0.287306
vt -4.88182 -0.278239
vt -4.87485 -0.270775
vt -4.86613 -0.265469
vt -4.85629 -0.262713
vt -4.84608 -0.262713
vt -4.83625 -0.265469
vt -4.82752 -0.270775
vt -4.82055 -0.278239
vt -4.81585 -0.287306
vt -4.81377 -0.297305
vt -4.81447 -0.307494
vt -4.81789 -0.317116
vt -4.82378 -0.32546
vt -4.8317 -0.331905
vt -4.84107 -0.335973
vt -4.85119 -0.299864
vt 5.85119 -0.337364
vt 5.8613 -0.335973
vt 5.87067 -0.331905
vt 5.87859 -0.32546
vt 5.88448 -0.317116
vt 5.8879 -0.307494
vt 5.8886 -0.297305
vt 5.88652 -0.287306
vt 5.88182 -0.278239
vt 5.87485 -0.270775
vt 5.86613 -0.265469
vt 5.85629 -0.262713
vt 5.84608 -0.262713
vt 5.83625 -0.265469
vt 5.82752 -0.270775
vt 5.82055 -0.278239
vt 5.81585 -0.287306
vt 5.81378 -0.297305
vt 5.81447 -0.307494
vt 5.81789 -0.317116
vt 5.82378 -0.32546
vt 5.8317 -0.331905
vt 5.84107 -0.335973
vt 5.85119 -0.299864
vt -0.351055 -5.97686
vt -0.351055 -5.56672
vt -4.89852 -5.97686
vt -4.89852 -5.56672
vt 1.24169 -5.97686
vt 1.24169 -5.56672
vt 5.79637 -5.97686
vt 5.79637 -5.56672
vt -4.87142 -0.372083
vt -4.85119 -0.374864
vt -4.89016 -0.363945
vt -4.87142 -0.372083
vt -4.906 -0.351055
vt -4.89016 -0.363945
vt -4.91778 -0.334369
vt -4.906 -0.351055
vt -4.92462 -0.315123
vt -4.91778 -0.334369
vt -4.92601 -0.294746
vt -4.92462 -0.315123
vt -4.92186 -0.274748
vt -4.92601 -0.294746
vt -4.91246 -0.256613
vt -4.92186 -0.274748
vt -4.89852 -0.241686
vt -4.91246 -0.256613
vt -4.88107 -0.231073
vt -4.89852 -0.241686
vt -4.8614 -0.225563
vt -4.88107 -0.231073
vt -4.84097 -0.225563
vt -4.8614 -0.225563
vt -4.82131 -0.231073
vt -4.84097 -0.225563
vt -4.80386 -0.241686
vt -4.82131 -0.231073
vt -4.78991 -0.256613
vt -4.80386 -0.241686
vt -4.78052 -0.274748
vt -4.78991 -0.256613
vt -4.77636 -0.294746
vt -4.78052 -0.274748
vt -4.77776 -0.315123
vt -4.77636 -0.294746
vt -4.7846 -0.334369
vt -4.77776 -0.315123
vt -4.79637 -0.351055
vt -4.7846 -0.334369
vt -4.81222 -0.363945
vt -4.79637 -0.351055
vt -4.83095 -0.372083
vt -4.81222 -0.363945
vt -4.85119 -0.374864
vt -4.83095 -0.372083
vt 5.85119 -0.374864
vt 5.87142 -0.372082
vt 5.87142 -0.372082
vt 5.89016 -0.363945
vt 5.89016 -0.363945
vt 5.906 -0.351055
vt 5.906 -0.351055
vt 5.91778 -0.334369
vt 5.91778 -0.334369
vt 5.92462 -0.315123
vt 5.92462 -0.315123
vt 5.92601 -0.294746
vt 5.92601 -0.294746
vt 5.92186 -0.274748
vt 5.92186 -0.274748
vt 5.91246 -0.256613
vt 5.91246 -0.256613
vt 5.89852 -0.241686
vt 5.89852 -0.241686
vt 5.88107 -0.231073
vt 5.88107 -0.231073
vt 5.8614 -0.225563
vt 5.8614 -0.225563
vt 5.84097 -0.225563
vt 5.84097 -0.225563
vt 5.82131 -0.231073
vt 5.82131 -0.231073
vt 5.80386 -0.241686
vt 5.80386 -0.241686
vt 5.78991 -0.256613
vt 5.78991 -0.256613
vt 5.78052 -0.274748
vt 5.78052 -0.274748
vt 5.77636 -0.294746
vt 5.77636 -0.294746
vt 5.77776 -0.315123
vt 5.77776 -0.315123
vt 5.7846 -0.334369
vt 5.7846 -0.334369
vt 5.79637 -0.351055
vt 5.79637 -0.351055
vt 5.81222 -0.363945
vt 5.81222 -0.363945
vt 5.83095 -0.372082
vt 5.83095 -0.372082
vt 5.85119 -0.374864
f 25/25/3 2/2/2 1/1/1
f 1/1/1 24/24/4 25/25/3
f 26/26/6 3/3/5 2/2/2
f 2/2/2 25/25/3 26/26/6
f 27/27/8 4/4/7 3/3/5
f 3/3/5 26/26/6 27/27/8
f 28/28/10 5/5/9 4/95/7
f 4/95/7 27/96/8 28/28/10
f 29/29/12 6/6/11 5/5/9
f 5/5/9 28/28/10 29/29/12
f 30/30/14 7/7/13 6/6/11
f 6/6/11 29/29/12 30/30/14
f 31/31/16 8/8/15 7/7/13
f 7/7/13 30/30/14 31/31/16
f 32/32/18 9/9/17 8/8/15
f 8/8/15 31/31/16 32/32/18
f 33/33/20 10/10/19 9/9/17
f 9/9/17 32/32/18 33/33/20
f 34/34/22 11/11/21 10/97/19
f 10/97/19 33/98/20 34/34/22
f 35/35/24 12/12/23 11/11/21
f 11/11/21 34/34/22 35/35/24
f 36/36/26 13/13/25 12/12/23
f 12/12/23 35/35/24 36/36/26
f 37/37/28 14/14/27 13/13/25
f 13/13/25 36/36/26 37/37/28
f 38/38/30 15/15/29 14/14/27
f 14/14/27 37/37/28 38/38/30
f 39/39/32 16/16/31 15/99/29
f 15/99/29 38/100/30 39/39/32
f 40/40/34 17/17/33 16/16/31
f 16/16/31 39/39/32 40/40/34
f 41/41/36 18/18/35 17/17/33
f 17/17/33 40/40/34 41/41/36
f 42/42/38 19/19/37 18/18/35
f 18/18/35 41/41/36 42/42/38
f 43/43/40 20/20/39 19/19/37
f 19/19/37 42/42/38 43/43/40
f 44/44/42 21/21/41 20/20/39
f 20/20/39 43/43/40 44/44/42
f 45/45/44 22/22/43 21/101/41
f 21/101/41 44/102/42 45/45/44
f 46/46/46 23/23/45 22/22/43
f 22/22/43 45/45/44 46/46/46
f 24/24/4 1/1/1 23/23/45
f 23/23/45 46/46/46 24/24/4
f 47/47/47 1/104/47 2/103/47
f 2/103/47 48/48/47 47/47/47
f 48/48/47 2/106/47 3/105/47
f 3/105/47 49/49/47 48/48/47
f 49/49/47 3/108/47 4/107/47
f 4/107/47 50/50/47 49/49/47
f 50/50/47 4/110/47 5/109/47
f 5/109/47 51/51/47 50/50/47
f 51/51/47 5/112/47 6/111/47
f 6/111/47 52/52/47 51/51/47
f 52/52/47 6/114/47 7/113/47
f 7/113/47 53/53/47 52/52/47
f 53/53/47 7/116/47 8/115/47
f 8/115/47 54/54/47 53/53/47
f 54/54/47 8/118/47 9/117/47
f 9/117/47 55/55/47 54/54/47
f 55/55/47 9/120/47 10/119/47
f 10/119/47 56/56/47 55/55/47
f 56/56/47 10/122/47 11/121/47
f 11/121/47 57/57/47 56/56/47
f 57/57/47 11/124/47 12/123/47
f 12/123/47 58/58/47 57/57/47
f 58/58/47 12/126/47 13/125/47
f 13/125/47 59/59/47 58/58/47
f 59/59/47 13/128/47 14/127/47
f 14/127/47 60/60/47 59/59/47
f 60/60/47 14/130/47 15/129/47
f 15/129/47 61/61/47 60/60/47
f 61/61/47 15/132/47 16/131/47
f 16/131/47 62/62/47 61/61/47
f 62/62/47 16/134/47 17/133/47
f 17/133/47 63/63/47 62/62/47
f 63/63/47 17/136/47 18/135/47
f 18/135/47 64/64/47 63/63/47
f 64/64/47 18/138/47 19/137/47
f 19/137/47 65/65/47 64/64/47
f 65/65/47 19/140/47 20/139/47
f 20/139/47 66/66/47 65/65/47
f 66/66/47 20/142/47 21/141/47
f 21/141/47 67/67/47 66/66/47
f 67/67/47 21/144/47 22/143/47
f 22/143/47 68/68/47 67/67/47
f 68/68/47 22/146/47 23/145/47
f 23/145/47 69/69/47 68/68/47
f 69/69/47 23/148/47 1/147/47
f 1/147/47 47/47/47 69/69/47
f 70/70/47 47/47/47 48/48/47
f 70/70/47 48/48/47 49/49/47
f 70/70/47 49/49/47 50/50/47
f 70/70/47 50/50/47 51/51/47
f 70/70/47 51/51/47 52/52/47
f 70/70/47 52/52/47 53/53/47
f 70/70/47 53/53/47 54/54/47
f 70/70/47 54/54/47 55/55/47
f 70/70/47 55/55/47 56/56/47
f 70/70/47 56/56/47 57/57/47
f 70/70/47 57/57/47 58/58/47
f 70/70/47 58/58/47 59/59/47
f 70/70/47 59/59/47 60/60/47
f 70/70/47 60/60/47 61/61/47
f 70/70/47 61/61/47 62/62/47
f 70/70/47 62/62/47 63/63/47
f 70/70/47 63/63/47 64/64/47
f 70/70/47 64/64/47 65/65/47
f 70/70/47 65/65/47 66/66/47
f 70/70/47 66/66/47 67/67/47
f 70/70/47 67/67/47 68/68/47
f 70/70/47 68/68/47 69/69/47
f 70/70/47 69/69/47 47/47/47
f 72/72/48 25/150/48 24/149/48
f 24/149/48 71/71/48 72/72/48
f 73/73/48 26/152/48 25/151/48
f 25/151/48 72/72/48 73/73/48
f 74/74/48 27/154/48 26/153/48
f 26/153/48 73/73/48 74/74/48
f 75/75/48 28/156/48 27/155/48
f 27/155/48 74/74/48 75/75/48
f 76/76/48 29/158/48 28/157/48
f 28/157/48 75/75/48 76/76/48
f 77/77/48 30/160/48 29/159/48
f 29/159/48 76/76/48 77/77/48
f 78/78/48 31/162/48 30/161/48
f 30/161/48 77/77/48 78/78/48
f 79/79/48 32/164/48 31/163/48
f 31/163/48 78/78/48 79/79/48
f 80/80/48 33/166/48 32/165/48
f 32/165/48 79/79/48 80/80/48
f 81/81/48 34/168/48 33/167/48
f 33/167/48 80/80/48 81/81/48
f 82/82/48 35/170/48 34/169/48
f 34/169/48 81/81/48 82/82/48
f 83/83/48 36/172/48 35/171/48
f 35/171/48 82/82/48 83/83/48
f 84/84/48 37/174/48 36/173/48
f 36/173/48 83/83/48 84/84/48
f 85/85/48 38/176/48 37/175/48
f 37/175/48 84/84/48 85/85/48
f 86/86/48 39/178/48 38/177/48
f 38/177/48 85/85/48 86/86/48
f 87/87/48 40/180/48 39/179/48
f 39/179/48 86/86/48 87/87/48
f 88/88/48 41/182/48 40/181/48
f 40/181/48 87/87/48 88/88/48
f 89/89/48 42/184/48 41/183/48
f 41/183/48 88/88/48 89/89/48
f 90/90/48 43/186/48 42/185/48
f 42/185/48 89/89/48 90/90/48
f 91/91/48 44/188/48 43/187/48
f 43/187/48 90/90/48 91/91/48
f 92/92/48 45/190/48 44/189/48
f 44/189/48 91/91/48 92/92/48
f 93/93/48 46/192/48 45/191/48
f 45/191/48 92/92/48 93/93/48
f 71/71/48 24/194/48 46/193/48
f 46/193/48 93/93/48 71/71/48
f 94/94/48 72/72/48 71/71/48
f 94/94/48 73/73/48 72/72/48
f 94/94/48 74/74/48 73/73/48
f 94/94/48 75/75/48 74/74/48
f 94/94/48 76/76/48 75/75/48
f 94/94/48 77/77/48 76/76/48
f 94/94/48 78/78/48 77/77/48
f 94/94/48 79/79/48 78/78/48
f 94/94/48 80/80/48 79/79/48
f 94/94/48 81/81/48 80/80/48
f 94/94/48 82/82/48 81/81/48
f 94/94/48 83/83/48 82/82/48
f 94/94/48 84/84/48 83/83/48
f 94/94/48 85/85/48 84/84/48
f 94/94/48 86/86/48 85/85/48
f 94/94/48 87/87/48 86/86/48
f 94/94/48 88/88/48 87/87/48
f 94/94/48 89/89/48 88/88/48
f 94/94/48 90/90/48 89/89/48
f 94/94/48 91/91/48 90/90/48
f 94/94/48 92/92/48 91/91/48
f 94/94/48 93/93/48 92/92/48
f 94/94/48 71/71/48 93/93/48
