v 93.5633 782.268 261.064
v 93.5633 782.234 260.835
v 93.5633 782.133 260.626
v 93.5633 781.975 260.455
v 93.5633 781.774 260.339
v 93.5633 781.548 260.288
v 93.5633 781.316 260.305
v 93.5633 781.1 260.39
v 93.5633 780.919 260.535
v 93.5633 780.788 260.726
v 93.5633 780.719 260.948
v 93.5633 780.719 261.18
v 93.5633 780.788 261.402
v 93.5633 780.919 261.594
v 93.5633 781.1 261.739
v 93.5633 781.316 261.823
v 93.5633 781.548 261.841
v 93.5633 781.774 261.789
v 93.5633 781.975 261.673
v 93.5633 782.133 261.503
v 93.5633 782.234 261.294
v 240.012 782.268 261.064
v 240.012 782.234 260.835
v 240.012 782.133 260.626
v 240.012 781.975 260.455
v 240.012 781.774 260.339
v 240.012 781.548 260.288
v 240.012 781.316 260.305
v 240.012 781.1 260.39
v 240.012 780.919 260.535
v 240.012 780.788 260.726
v 240.012 780.719 260.948
v 240.012 780.719 261.18
v 240.012 780.788 261.402
v 240.012 780.919 261.594
v 240.012 781.1 261.739
v 240.012 781.316 261.823
v 240.012 781.548 261.841
v 240.012 781.774 261.789
v 240.012 781.975 261.673
v 240.012 782.133 261.503
v 240.012 782.234 261.294
vn 4.46318e-008 1 -4.79676e-009
vn 3.1472e-008 0.955572 -0.294758
vn 3.85738e-008 0.955573 -0.294754
vn 3.9998e-008 1 -2.89245e-006
vn 1.11496e-008 0.826238 -0.563321
vn 2.29955e-008 0.826242 -0.563315
vn -5.90936e-009 0.623491 -0.781831
vn -5.64081e-009 0.623491 -0.781831
vn 3.47969e-009 0.365344 -0.930873
vn -2.20374e-008 0.365331 -0.930878
vn 1.51463e-008 0.0747346 -0.997203
vn -1.00463e-008 0.0747217 -0.997204
vn -2.14316e-008 -0.222529 -0.974926
vn 3.04097e-009 -0.222514 -0.974929
vn -5.43833e-008 -0.500006 -0.866022
vn -2.991e-008 -0.499993 -0.86603
vn -4.20518e-008 -0.733047 -0.680178
vn -5.63692e-008 -0.733053 -0.680171
vn -3.89722e-008 -0.900968 -0.433886
vn -4.60853e-008 -0.90097 -0.433882
vn -4.54558e-008 -0.988831 -0.14904
vn -3.82679e-008 -0.988831 -0.149044
vn -3.34106e-008 -0.988831 0.14904
vn -3.36423e-008 -0.988831 0.14904
vn -1.88517e-008 -0.900968 0.433886
vn -1.86266e-008 -0.900968 0.433886
vn -2.26908e-008 -0.733047 0.680178
vn -2.37976e-009 -0.733055 0.680169
vn -5.97834e-009 -0.500006 0.866022
vn -9.9753e-009 -0.500003 0.866023
vn 2.94054e-008 -0.22253 0.974926
vn 5.55282e-009 -0.222513 0.97493
vn 4.19424e-008 0.0747346 0.997203
vn 4.22151e-008 0.0747372 0.997203
vn 5.10072e-008 0.365344 0.930872
vn 5.09712e-008 0.365344 0.930872
vn 5.5601e-008 0.623491 0.781831
vn 5.53573e-008 0.623491 0.781831
vn 5.51387e-008 0.826238 0.563321
vn 5.49553e-008 0.826238 0.563321
vn 4.99016e-008 0.955572 0.294758
vn 4.96517e-008 0.955572 0.294758
vn -1 2.85518e-006 3.79624e-007
vn -1 -1.95957e-007 -1.19249e-008
vn -1 9.26055e-006 1.40202e-005
vn -1 1.30129e-005 5.78569e-005
vn -1 4.02425e-006 2.01214e-006
vn -1 2.29784e-006 -3.87802e-007
vn -1 3.23748e-006 3.07608e-006
vn -1 4.49303e-006 1.09818e-005
vn -1 2.94846e-005 -5.14205e-005
vn -1 3.93021e-006 -8.4041e-007
vn 1 -6.73204e-006 -1.18851e-006
vn 1 1.95957e-007 1.19249e-008
vn 1 -2.99117e-005 2.42887e-005
vn 1 -6.76389e-005 0.000117506
vn 1 -1.03852e-005 1.58953e-006
vn 1 -4.99766e-006 -2.48919e-006
vn 1 -9.38365e-006 4.44344e-006
vn 1 -1.74522e-005 2.08649e-005
vn 1 -2.99956e-005 -0.00013226
vn 1 -8.25813e-006 -4.5775e-006
vt 0.75 0
vt 0.702381 0
vt 0.654762 0
vt 0.607143 0
vt 0.559524 0
vt 0.511905 0
vt 0.464286 0
vt 0.416667 0
vt 0.369048 0
vt 0.321429 0
vt 0.27381 0
vt 0.22619 0
vt 0.178571 0
vt 0.130952 0
vt 0.0833333 0
vt 0.0357143 0
vt 0.988095 0
vt 0.940476 0
vt 0.892857 0
vt 0.845238 0
vt 0.797619 0
vt 0.75 1
vt 0.702381 1
vt 0.654762 1
vt 0.607143 1
vt 0.559524 1
vt 0.511905 1
vt 0.464286 1
vt 0.416667 1
vt 0.369048 1
vt 0.321429 1
vt 0.27381 1
vt 0.22619 1
vt 0.178571 1
vt 0.130952 1
vt 0.0833333 1
vt 0.0357143 1
vt 0.988095 1
vt 0.940476 1
vt 0.892857 1
vt 0.845238 1
vt 0.797619 1
vt -0.0119048 0
vt -0.0119048 1
vt 0.352623 0.977786
vt 0.21834 0.913119
vt 0.109084 0.811745
vt 0.0345632 0.682671
vt 0.00139812 0.537365
vt 0.012536 0.38874
vt 0.0669873 0.25
vt 0.159914 0.133474
vt 0.283058 0.0495156
vt 0.425479 0.00558463
vt 0.574521 0.0055846
vt 0.716942 0.0495156
vt 0.840086 0.133474
vt 0.933013 0.25
vt 0.987464 0.38874
vt 0.998602 0.537365
vt 0.965437 0.68267
vt 0.890916 0.811745
vt 0.78166 0.913119
vt 0.647378 0.977786
vt 0.5 1
vt 0.5 1
vt 0.647378 0.977786
vt 0.78166 0.913119
vt 0.890916 0.811745
vt 0.965437 0.68267
vt 0.998602 0.537365
vt 0.987464 0.38874
vt 0.933013 0.25
vt 0.840086 0.133474
vt 0.716942 0.0495156
vt 0.574521 0.0055846
vt 0.425479 0.00558463
vt 0.283058 0.0495156
vt 0.159914 0.133474
vt 0.0669873 0.25
vt 0.012536 0.38874
vt 0.00139812 0.537365
vt 0.0345632 0.682671
vt 0.109084 0.811745
vt 0.21834 0.913119
vt 0.352623 0.977786
f 23/23/3 2/2/2 1/1/1
f 1/1/1 22/22/4 23/23/3
f 24/24/6 3/3/5 2/2/2
f 2/2/2 23/23/3 24/24/6
f 25/25/8 4/4/7 3/3/5
f 3/3/5 24/24/6 25/25/8
f 26/26/10 5/5/9 4/4/7
f 4/4/7 25/25/8 26/26/10
f 27/27/12 6/6/11 5/5/9
f 5/5/9 26/26/10 27/27/12
f 28/28/14 7/7/13 6/6/11
f 6/6/11 27/27/12 28/28/14
f 29/29/16 8/8/15 7/7/13
f 7/7/13 28/28/14 29/29/16
f 30/30/18 9/9/17 8/8/15
f 8/8/15 29/29/16 30/30/18
f 31/31/20 10/10/19 9/9/17
f 9/9/17 30/30/18 31/31/20
f 32/32/22 11/11/21 10/10/19
f 10/10/19 31/31/20 32/32/22
f 33/33/24 12/12/23 11/11/21
f 11/11/21 32/32/22 33/33/24
f 34/34/26 13/13/25 12/12/23
f 12/12/23 33/33/24 34/34/26
f 35/35/28 14/14/27 13/13/25
f 13/13/25 34/34/26 35/35/28
f 36/36/30 15/15/29 14/14/27
f 14/14/27 35/35/28 36/36/30
f 37/37/32 16/16/31 15/15/29
f 15/15/29 36/36/30 37/37/32
f 38/44/34 17/43/33 16/16/31
f 16/16/31 37/37/32 38/44/34
f 39/39/36 18/18/35 17/17/33
f 17/17/33 38/38/34 39/39/36
f 40/40/38 19/19/37 18/18/35
f 18/18/35 39/39/36 40/40/38
f 41/41/40 20/20/39 19/19/37
f 19/19/37 40/40/38 41/41/40
f 42/42/42 21/21/41 20/20/39
f 20/20/39 41/41/40 42/42/42
f 22/22/4 1/1/1 21/21/41
f 21/21/41 42/42/42 22/22/4
f 18/48/45 19/47/44 20/46/43
f 16/50/47 17/49/46 18/48/45
f 16/50/47 18/48/45 20/46/43
f 14/52/44 15/51/44 16/50/47
f 12/54/48 13/53/44 14/52/44
f 12/54/48 14/52/44 16/50/47
f 12/54/48 16/50/47 20/46/43
f 10/56/44 11/55/44 12/54/48
f 8/58/49 9/57/44 10/56/44
f 8/58/49 10/56/44 12/54/48
f 6/60/50 7/59/44 8/58/49
f 4/62/52 5/61/51 6/60/50
f 4/62/52 6/60/50 8/58/49
f 4/62/52 8/58/49 12/54/48
f 4/62/52 12/54/48 20/46/43
f 2/64/44 3/63/44 4/62/52
f 2/64/44 4/62/52 20/46/43
f 1/65/44 2/64/44 20/46/43
f 1/65/44 20/46/43 21/45/44
f 25/69/55 24/68/54 23/67/53
f 27/71/57 26/70/56 25/69/55
f 27/71/57 25/69/55 23/67/53
f 29/73/54 28/72/54 27/71/57
f 31/75/58 30/74/54 29/73/54
f 31/75/58 29/73/54 27/71/57
f 31/75/58 27/71/57 23/67/53
f 33/77/54 32/76/54 31/75/58
f 35/79/59 34/78/54 33/77/54
f 35/79/59 33/77/54 31/75/58
f 37/81/60 36/80/54 35/79/59
f 39/83/62 38/82/61 37/81/60
f 39/83/62 37/81/60 35/79/59
f 39/83/62 35/79/59 31/75/58
f 39/83/62 31/75/58 23/67/53
f 41/85/54 40/84/54 39/83/62
f 41/85/54 39/83/62 23/67/53
f 42/86/54 41/85/54 23/67/53
f 42/86/54 23/67/53 22/66/54
