v 246.23 132.441 10
v 251.23 132.441 10
v 246.23 322.441 10
v 251.23 322.441 10
v 246.23 132.441 220
v 251.23 132.441 220
v 246.23 322.441 220
v 251.23 322.441 220
vn 0 0 -1
vn 0 0 1
vn 0 -1 0
vn 1 0 0
vn 0 1 0
vn -1 0 0
vt 1.999 0.000999093
vt 0.000999033 0.000999093
vt 0.000998974 0.000999093
vt 0.000998974 0.000999093
vt 1.999 1.999
vt 0.000999033 1.999
vt 0.000998974 1.999
vt 0.000998974 1.999
vt 1.999 0.000999033
vt 1.99898 1.999
vt 0.000998974 1.999
vt 0.000998974 1.999
vt 0.00101709 0.000999033
vt 1.999 0.000999033
vt 0.000998974 0.000999033
vt 1.99898 0.000999033
vt 1.999 1.999
vt 1.999 1.999
vt 0.00101709 1.999
vt 0.000998974 0.000999033
vt 0.000998974 0.000999093
vt 1.99898 0.000999093
vt 1.99898 1.999
vt 1.99898 1.999
vt 0.000998974 1.999
vt 0.000998974 0.000999093
vt 0.000999033 0.000999093
vt 1.999 0.000999093
vt 1.999 1.999
vt 1.999 1.999
vt 0.000998974 0.000999093
vt 1.99898 0.000999093
vt 1.99898 1.999
vt 1.99898 1.999
vt 0.000998974 0.000999093
vt 1.999 1.999
f 1/9/1 3/10/1 4/11/1
f 4/12/1 2/13/1 1/14/1
f 5/15/2 6/16/2 8/17/2
f 8/18/2 7/19/2 5/20/2
f 1/21/3 2/22/3 6/23/3
f 6/24/3 5/25/3 1/26/3
f 2/27/4 4/28/4 8/29/4
f 8/30/4 6/6/4 2/2/4
f 4/31/5 3/32/5 7/33/5
f 7/34/5 8/8/5 4/4/5
f 3/35/6 1/1/6 5/36/6
f 5/5/6 7/7/6 3/3/6
