v 669.786 198.647 3.8147e-006
v 669.786 198.647 270
v 669.786 793.647 270
v 669.786 793.647 3.8147e-006
v 669.786 793.647 3.8147e-006
v 669.786 793.647 270
v 699.786 833.647 270
v 699.786 833.647 3.8147e-006
v 699.786 833.647 3.8147e-006
v 699.786 833.647 270
v 699.786 168.647 270
v 699.786 168.647 3.8147e-006
v 699.786 168.647 3.8147e-006
v 699.786 168.647 270
v 669.786 198.647 270
v 669.786 198.647 3.8147e-006
v 699.786 833.647 270
v 669.786 793.647 270
v 669.786 198.647 270
v 699.786 168.647 270
v 669.786 198.647 3.8147e-006
v 669.786 793.647 3.8147e-006
v 699.786 833.647 3.8147e-006
v 699.786 168.647 3.8147e-006
v 99.7858 793.647 250
v 51.7858 793.647 270
v 51.7858 793.647 90
v 99.7858 793.647 33.8388
v 99.7858 793.647 250
v 217.786 793.647 250
v 51.7858 793.647 270
v 51.7858 793.747 270
v 217.786 793.747 250
v 334.786 793.747 250
v 594.786 793.647 250
v 669.786 793.647 270
v 51.7858 793.647 270
v 334.786 793.647 250
v 669.786 793.647 3.8147e-006
v 669.786 793.647 270
v 594.786 793.647 250
v 594.786 793.647 3.8147e-006
v 217.786 793.647 33.8388
v 334.786 793.647 3.8147e-006
v 334.786 793.647 250
v 217.786 793.647 250
v 334.786 793.647 3.8147e-006
v 217.786 793.647 33.8388
v 99.7858 793.647 33.8388
v 51.7858 793.647 3.8147e-006
v 334.786 793.647 3.8147e-006
v 99.7858 793.647 33.8388
v 51.7858 793.647 90
v 21.7858 833.647 270
v 99.7858 833.647 270
v 99.7858 833.647 250
v 99.7858 833.647 33.8388
v 21.7858 833.647 3.8147e-006
v 21.7858 833.647 270
v 99.7858 833.647 250
v 334.786 833.647 3.8147e-006
v 21.7858 833.647 3.8147e-006
v 99.7858 833.647 33.8388
v 217.786 833.647 33.8388
v 334.786 833.647 3.8147e-006
v 217.786 833.647 33.8388
v 217.786 833.647 250
v 334.786 833.647 250
v 594.786 833.647 250
v 699.786 833.647 270
v 699.786 833.647 3.8147e-006
v 594.786 833.647 3.8147e-006
v 699.786 833.647 270
v 594.786 833.647 250
v 334.786 833.647 250
v 699.786 833.647 270
v 334.786 833.647 250
v 217.786 833.647 250
v 99.7858 833.647 270
v 699.786 833.647 270
v 217.786 833.647 250
v 99.7858 833.647 250
v 217.786 793.647 250
v 99.7858 793.647 250
v 99.7858 833.647 250
v 217.786 833.647 250
v 99.7858 793.647 250
v 99.7858 793.647 33.8388
v 99.7858 833.647 33.8388
v 99.7858 833.647 250
v 99.7858 793.647 33.8388
v 217.786 793.647 33.8388
v 217.786 833.647 33.8388
v 99.7858 833.647 33.8388
v 217.786 793.647 33.8388
v 217.786 793.647 250
v 217.786 833.647 250
v 217.786 833.647 33.8388
v 594.786 793.647 3.8147e-006
v 594.786 833.647 3.8147e-006
v 699.786 833.647 3.8147e-006
v 669.786 793.647 3.8147e-006
v 334.786 833.647 3.8147e-006
v 334.786 793.647 3.8147e-006
v 51.7858 793.647 3.8147e-006
v 21.7858 833.647 3.8147e-006
v 594.786 793.647 250
v 334.786 793.647 250
v 334.786 833.647 250
v 594.786 833.647 250
v 334.786 793.647 250
v 334.786 793.647 3.8147e-006
v 334.786 833.647 3.8147e-006
v 334.786 833.647 250
v 594.786 793.647 3.8147e-006
v 594.786 793.647 250
v 594.786 833.647 250
v 594.786 833.647 3.8147e-006
v 21.7858 833.647 3.8147e-006
v 51.7858 793.647 3.8147e-006
v 51.7858 793.647 90
v 21.7858 833.647 270
v 21.7858 833.647 3.8147e-006
v 51.7858 793.647 90
v 51.7858 793.647 270
v 699.786 833.647 3.8147e-006
v 699.786 833.647 270
v 669.786 793.647 270
v 669.786 793.647 3.8147e-006
v 669.786 793.647 270
v 699.786 833.647 270
v 99.7858 833.647 270
v 51.7858 793.647 270
v 669.786 793.647 270
v 99.7858 833.647 270
v 21.7858 833.647 270
v 51.7859 793.647 3.8147e-006
v 51.7859 793.647 270
v 51.7858 352.647 270
v 51.7858 352.647 3.8147e-006
v 51.7858 352.647 3.8147e-006
v 51.7858 352.647 270
v 21.7858 332.647 270
v 21.7858 332.647 3.8147e-006
v 21.7858 332.647 3.8147e-006
v 21.7858 332.647 270
v 21.7859 833.647 270
v 21.7859 833.647 3.8147e-006
v 21.7859 833.647 3.8147e-006
v 21.7859 833.647 270
v 51.7859 793.647 270
v 51.7859 793.647 3.8147e-006
v 21.7858 332.647 270
v 51.7858 352.647 270
v 51.7859 793.647 270
v 21.7859 833.647 270
v 51.7859 793.647 3.8147e-006
v 51.7858 352.647 3.8147e-006
v 21.7858 332.647 3.8147e-006
v 21.7859 833.647 3.8147e-006
v 51.7858 352.647 3.8147e-006
v 51.7858 352.647 270
v 268.786 352.647 270
v 268.786 352.647 3.8147e-006
v 268.786 352.647 3.8147e-006
v 268.786 352.647 270
v 238.786 332.647 270
v 238.786 332.647 3.8147e-006
v 238.786 332.647 3.8147e-006
v 238.786 332.647 270
v 21.7858 332.647 270
v 21.7858 332.647 3.8147e-006
v 21.7858 332.647 3.8147e-006
v 21.7858 332.647 270
v 51.7858 352.647 270
v 51.7858 352.647 3.8147e-006
v 238.786 332.647 270
v 268.786 352.647 270
v 51.7858 352.647 270
v 21.7858 332.647 270
v 51.7858 352.647 3.8147e-006
v 268.786 352.647 3.8147e-006
v 238.786 332.647 3.8147e-006
v 21.7858 332.647 3.8147e-006
v 248.786 332.647 230
v 248.786 122.647 230
v 248.786 122.647 3.8147e-006
v 248.786 332.647 3.8147e-006
v 248.786 332.647 3.8147e-006
v 238.786 332.647 3.8147e-006
v 268.786 352.647 3.8147e-006
v 268.786 332.647 3.8147e-006
v 248.786 122.647 3.8147e-006
v 238.786 14.0474 3.8147e-006
v 238.786 332.647 3.8147e-006
v 248.786 332.647 3.8147e-006
v 268.786 14.0474 3.8147e-006
v 238.786 14.0474 3.8147e-006
v 248.786 122.647 3.8147e-006
v 268.786 122.647 3.8147e-006
v 268.786 122.647 230
v 268.786 14.0474 270
v 268.786 14.0474 3.8147e-006
v 268.786 122.647 3.8147e-006
v 268.786 332.647 230
v 268.786 352.647 270
v 268.786 14.0474 270
v 268.786 122.647 230
v 268.786 352.647 3.8147e-006
v 268.786 352.647 270
v 268.786 332.647 230
v 268.786 332.647 3.8147e-006
v 238.786 332.647 3.8147e-006
v 238.786 332.647 270
v 268.786 352.647 270
v 268.786 352.647 3.8147e-006
v 268.786 332.647 3.8147e-006
v 268.786 332.647 230
v 248.786 332.647 230
v 248.786 332.647 3.8147e-006
v 268.786 122.647 230
v 268.786 122.647 3.8147e-006
v 248.786 122.647 3.8147e-006
v 248.786 122.647 230
v 268.786 332.647 230
v 268.786 122.647 230
v 248.786 122.647 230
v 248.786 332.647 230
v 268.786 14.0474 3.8147e-006
v 268.786 14.0474 270
v 238.786 14.0474 270
v 238.786 14.0474 3.8147e-006
v 238.786 14.0474 3.8147e-006
v 238.786 14.0474 270
v 238.786 332.647 270
v 238.786 332.647 3.8147e-006
v 238.786 14.0474 270
v 268.786 14.0474 270
v 268.786 352.647 270
v 238.786 332.647 270
v 463.786 14.0474 3.8147e-006
v 463.786 14.0474 270
v 463.786 198.647 270
v 463.786 198.647 3.8147e-006
v 463.786 198.647 3.8147e-006
v 463.786 198.647 270
v 493.786 168.647 270
v 493.786 168.647 3.8147e-006
v 493.786 168.647 3.8147e-006
v 493.786 168.647 270
v 493.786 14.0474 270
v 493.786 14.0474 3.8147e-006
v 493.786 14.0474 3.8147e-006
v 493.786 14.0474 270
v 463.786 14.0474 270
v 463.786 14.0474 3.8147e-006
v 493.786 168.647 270
v 463.786 198.647 270
v 463.786 14.0474 270
v 493.786 14.0474 270
v 463.786 14.0474 3.8147e-006
v 463.786 198.647 3.8147e-006
v 493.786 168.647 3.8147e-006
v 493.786 14.0474 3.8147e-006
vn -1 -4.94608e-008 0
vn -0.8 0.6 0
vn 1 4.1289e-008 0
vn 1 4.17191e-008 0
vn -0.707107 -0.707107 0
vn 0 0 1
vn 0 0 -1
vn 4.45285e-007 -1 -2.69085e-008
vn 3.55471e-007 -1 0
vn 7.59158e-007 -1 -1.21402e-007
vn 8.31954e-007 -1 -1.43312e-007
vn 3.55944e-007 -1 0
vn 1.28197e-006 -1 1.23622e-005
vn 1.28338e-006 -1 1.23622e-005
vn 1.28244e-006 -1 1.23622e-005
vn 1.54573e-007 -1 1.48461e-006
vn 1.55046e-007 -1 1.52786e-006
vn 8.08319e-008 -1 -5.112e-007
vn -1.4181e-009 -1 -2.73472e-006
vn 5.61569e-007 -1 0
vn 5.62987e-007 -1 0
vn 5.62515e-007 -1 0
vn -4.06523e-008 -1 0
vn -4.01796e-008 -1 0
vn 9.26495e-008 -1 4.63983e-007
vn 9.31222e-008 -1 4.63983e-007
vn 7.34105e-007 -1 3.77868e-007
vn 1.91444e-007 -1 1.14733e-006
vn 4.6372e-007 -1 7.60871e-007
vn 1.00024e-006 -1 0
vn 4.1125e-008 1 0
vn 4.06523e-008 1 0
vn -5.76696e-007 1 5.83585e-008
vn -7.53486e-007 1 0
vn -1.32829e-007 1 2.05168e-007
vn 1.13921e-007 1 2.86623e-007
vn -9.92673e-008 1 -1.42981e-006
vn -1.07776e-007 1 -1.48986e-006
vn -1.07776e-007 1 -1.48486e-006
vn -9.02859e-008 1 -1.36866e-006
vn 2.26897e-007 1 8.71771e-008
vn 3.4649e-007 1 1.43312e-007
vn 1.42756e-007 1 4.79388e-008
vn 4.01796e-008 1 0
vn -2.08461e-007 1 0
vn -2.08934e-007 1 0
vn -1.17703e-007 1 -4.78713e-007
vn -1.18175e-007 1 -4.78713e-007
vn 4.06523e-008 1 -3.37483e-006
vn 4.1125e-008 1 -3.37483e-006
vn -3.34673e-007 1 1.04844e-007
vn -1.48901e-007 1 1.21127e-006
vn -1.58355e-007 1 1.15829e-006
vn -3.52635e-007 1 0
vn 1 -8.2664e-007 -1.72221e-009
vn 1 -8.22769e-007 -9.21418e-010
vn 1 -8.23629e-007 -1.04205e-009
vn 1 -8.275e-007 -1.84284e-009
vn -1 -5.86218e-007 8.00613e-010
vn -1 -5.81917e-007 0
vn -1 -5.82347e-007 1.20603e-010
vn -1 -5.87078e-007 9.21216e-010
vn 1 5.81487e-007 0
vn -1 -2.34401e-007 0
vn -0.8 -0.6 0
vn -0.8 -0.599999 0
vn 0.8 -0.6 0
vn 1 -1.8193e-007 0
vn 0.5547 -0.832051 0
vn 0.5547 -0.832051 0
vn -1 2.59346e-007 0
vn -1 2.58916e-007 0
vn 0.8 0.599999 0
vn 0.8 0.599999 0
vn -6.90144e-008 1 0
vn -6.94871e-008 1 0
vn 0.5547 -0.83205 0
vn 7.09052e-008 -1 0
vn -0.5547 0.832051 0
vn -0.5547 0.832051 0
vn 1 -2.23649e-008 0
vn 1 -1.35479e-007 0
vn 1 -1.35049e-007 0
vn 1 -1.08814e-007 3.22531e-007
vn 1 -1.05803e-007 3.43822e-007
vn 1 -1.3849e-007 8.42945e-008
vn 1 -1.56554e-007 -5.62036e-008
vn 1 5.81917e-007 0
vn 1 5.81056e-007 0
vn -0.5547 0.83205 0
vn 3.64453e-007 -1 0
vn 3.63507e-007 -1 0
vn -3.55944e-007 1 0
vn -3.55471e-007 1 0
vn -6.75017e-007 -1 0
vn -6.74545e-007 -1 0
vn -1 1.49242e-007 0
vn -1 -5.24714e-008 0
vn -1 -5.29015e-008 0
vn 0.707107 0.707107 0
vn 1 4.08589e-008 0
vn 1 4.04288e-008 0
vn 3.54053e-007 -1 0
vt 2.32348 1.999
vt 0.147766 0.000998974
vt 0.147766 1.999
vt 0.00149918 0.000998974
vt 2.9985 1.999
vt 0.566819 0.000998974
vt 2.43318 1.999
vt 2.32348 0.000998974
vt 2.86589 1.90149
vt 2.9985 0.377879
vt 0.134109 1.90149
vt 0.00149882 0.377879
vt 0.13411 1.999
vt 0.346287 0.251406
vt 0.346287 1.851
vt 0.867889 1.851
vt 0.13411 1.999
vt 0.13411 1.999
vt 0.867889 1.851
vt 1.38507 1.851
vt 2.86589 1.999
vt 1.38507 1.851
vt 2.86589 1.999
vt 2.53436 0.000998974
vt 1.38507 0.000998974
vt 0.867889 1.851
vt 1.38507 0.000998974
vt 0.867889 0.251406
vt 0.346287 0.251406
vt 1.38507 0.000998974
vt 0.13411 0.667
vt 2.9985 1.999
vt 2.65371 1.999
vt 2.65371 1.851
vt 2.9985 0.000998974
vt 2.65371 1.851
vt 2.9985 0.000998974
vt 2.13211 0.251406
vt 2.13211 0.251406
vt 1.61493 1.851
vt 0.00149846 1.999
vt 0.465636 0.000998974
vt 0.00149846 1.999
vt 0.465636 1.851
vt 1.61493 1.851
vt 0.00149846 1.999
vt 1.61493 1.851
vt 2.13211 1.851
vt 0.00149846 1.999
vt 2.65371 1.851
vt 2.65371 1.90149
vt 2.13211 1.999
vt 2.85223 0.251406
vt 2.9985 1.851
vt 0.867889 1.90149
vt 0.346287 1.999
vt 0.147765 1.851
vt 0.00149882 0.251406
vt 0.465636 1.999
vt 0.134109 1.90149
vt 1.61493 1.90149
vt 2.9985 1.999
vt 1.61493 1.90149
vt 0.465636 1.999
vt 2.85223 0.000998974
vt 2.9985 1.851
vt 0.147766 1.851
vt 0.001499 0.000998974
vt 0.00149882 0.000998974
vt 0.147765 0.000998974
vt 0.147765 0.667
vt 0.00149882 0.000998974
vt 0.147765 1.999
vt 2.9985 1.999
vt 2.85223 0.000998974
vt 2.86589 1.90149
vt 2.9985 1.999
vt 0.346287 1.999
vt 2.86589 1.90149
vt 0.00149918 1.999
vt 2.85223 1.999
vt 1.23965 0.000998974
vt 0.134109 1.999
vt 0.00149846 0.000998974
vt 1.83349 1.999
vt 0.00149846 0.000998974
vt 2.9985 1.999
vt 2.85223 0.000998974
vt 0.134109 0.82643
vt 0.00149935 1.999
vt 2.86589 0.82643
vt 2.9985 1.999
vt 2.86589 1.999
vt 1.90667 0.000998974
vt 1.09333 1.999
vt 0.960716 0.000998974
vt 0.960716 1.999
vt 0.00149864 0.000998974
vt 2.9985 1.999
vt 2.86589 0.000998974
vt 1.09333 0.82643
vt 0.00149864 0.777675
vt 1.90667 0.82643
vt 2.9985 0.777675
vt 0.398612 1.703
vt 1.16651 0.000998974
vt 2.03928 0.777675
vt 1.90667 0.777675
vt 2.03928 0.000999153
vt 1.99508 0.777675
vt 2.03928 0.000999153
vt 1.90667 0.265742
vt 0.00149855 1.999
vt 0.398612 0.000998974
vt 1.23965 1.999
vt 0.398612 1.703
vt 1.23965 1.999
vt 1.16651 0.000998974
vt 2.03928 1.999
vt 1.90667 0.000998974
vt 1.09333 1.703
vt 1.00492 0.000998974
vt 1.90667 0.000998974
vt 1.99508 1.703
vt 1.90667 0.265742
vt 1.99508 0.777675
vt 1.09333 1.999
vt 0.960716 0.000998974
vt 2.9985 1.999
vt 1.83349 0.000998974
vt 1.09333 0.000999033
vt 0.960716 0.777675
vt 2.9985 1.999
vt 2.32348 0.000998974
vt 0.676519 1.999
vt 0.566819 0.000998974
vt 0.566819 1.999
vt 0.00149837 0.000998974
vt 2.08791 1.999
vt 1.9553 0.000998974
vt 1.9553 0.451013
vt 2.08791 0.000998914
vt 1.0447 0.451013
vt 0.912093 0.000998914
vt 0.147766 1.999
vt 2.32348 0.000998974
vt 0.00149918 1.999
vt 0.147766 0.000998974
vt 0.566819 1.999
vt 2.9985 0.000998974
vt 2.32348 1.999
vt 2.43318 0.000998974
vt 2.86589 0.451012
vt 2.9985 1.999
vt 0.00149846 1.999
vt 0.13411 0.451012
vt 0.13411 0.667
vt 0.346287 1.851
vt 0.13411 1.999
vt 2.53436 1.851
vt 2.53436 1.851
vt 2.86589 0.000998974
vt 1.38507 1.851
vt 0.867889 0.251406
vt 0.346287 0.251406
vt 0.13411 0.000998974
vt 2.9985 1.999
vt 2.65371 0.251406
vt 2.65371 0.251406
vt 1.61493 0.000998974
vt 2.13211 1.851
vt 1.61493 0.000998974
vt 0.00149846 0.000998974
vt 0.465636 1.851
vt 2.13211 1.851
vt 2.65371 1.999
vt 2.65371 1.999
vt 2.13211 1.90149
vt 2.9985 0.251406
vt 2.85223 1.851
vt 0.867889 1.999
vt 0.346287 1.90149
vt 0.00149882 1.851
vt 0.147765 0.251406
vt 0.00149846 1.999
vt 0.465636 1.90149
vt 2.86589 1.90149
vt 1.61493 1.999
vt 1.61493 1.999
vt 0.465636 1.90149
vt 2.9985 0.000998974
vt 2.85223 1.851
vt 0.001499 1.851
vt 0.147766 0.000998974
vt 0.147765 0.667
vt 0.00149882 1.999
vt 2.85223 1.999
vt 2.9985 0.000998974
vt 0.346287 1.999
vt 0.13411 1.90149
vt 1.23965 1.999
vt 2.85223 0.000998974
vt 0.00149846 1.999
vt 0.134109 0.000998974
vt 0.00149846 1.999
vt 1.83349 0.000998974
vt 2.85223 1.999
vt 2.9985 0.000998974
vt 0.13411 1.90149
vt 0.00149846 0.777675
vt 2.9985 0.777675
vt 2.86589 1.90149
vt 1.90667 1.999
vt 2.86589 0.000998974
vt 0.960716 1.999
vt 1.09333 0.000998974
vt 0.00149864 1.999
vt 0.960716 0.000998974
vt 2.86589 1.999
vt 2.9985 0.000998974
vt 0.134109 0.82643
vt 0.960716 0.777675
vt 2.03928 0.777675
vt 2.86589 0.82643
vt 0.398612 0.000998974
vt 1.16651 1.703
vt 1.90667 0.82643
vt 1.99508 0.777675
vt 2.03928 0.777675
vt 1.99508 0.265742
vt 1.99508 0.265742
vt 1.90667 0.000999033
vt 0.00149855 0.000998974
vt 0.398612 1.703
vt 0.00149855 1.999
vt 1.16651 1.703
vt 1.16651 1.703
vt 1.23965 0.000998974
vt 1.90667 1.999
vt 2.03928 0.000998974
vt 1.00492 1.703
vt 1.09333 0.000998974
vt 1.99508 0.000998974
vt 1.90667 1.703
vt 1.99508 0.265742
vt 1.90667 0.777675
vt 0.960716 1.999
vt 1.09333 0.000998974
vt 1.83349 1.999
vt 2.9985 0.000998974
vt 1.09333 0.82643
vt 0.960716 0.000999153
vt 2.32348 1.999
vt 2.9985 0.000998974
vt 0.566819 1.999
vt 0.676519 0.000998974
vt 0.00149837 1.999
vt 0.566819 0.000998974
vt 1.9553 1.999
vt 2.08791 0.000998974
vt 1.9553 0.000998914
vt 2.08791 0.377879
vt 0.912093 0.377879
vt 1.0447 0.000998914
f 1/146/1 2/1/1 3/145/1
f 3/145/1 4/2/1 1/146/1
f 5/148/2 6/3/2 7/147/2
f 7/147/2 8/4/2 5/148/2
f 9/150/3 10/5/4 11/149/3
f 11/149/3 12/6/4 9/150/3
f 13/152/5 14/7/5 15/151/5
f 15/151/5 16/8/5 13/152/5
f 17/154/6 18/9/6 19/153/6
f 19/153/6 20/10/6 17/154/6
f 21/156/7 22/11/7 23/155/7
f 23/155/7 24/12/7 21/156/7
f 25/158/8 26/13/9 27/157/10
f 27/157/10 28/14/11 25/158/8
f 29/15/12 30/16/9 31/17/12
f 32/18/13 33/19/14 34/20/15
f 35/160/16 36/21/17 37/159/18
f 37/159/18 38/22/19 35/160/16
f 39/162/20 40/23/21 41/161/22
f 41/161/22 42/24/20 39/162/20
f 43/164/23 44/25/24 45/163/24
f 45/163/24 46/26/24 43/164/23
f 47/27/25 48/28/25 49/29/26
f 50/166/27 51/30/28 52/165/29
f 52/165/29 53/31/30 50/166/27
f 54/32/31 55/33/32 56/34/31
f 57/168/33 58/35/34 59/167/35
f 59/167/35 60/36/36 57/168/33
f 61/170/37 62/37/38 63/169/39
f 63/169/39 64/38/40 61/170/37
f 65/172/41 66/39/42 67/171/43
f 67/171/43 68/40/44 65/172/41
f 69/174/45 70/41/46 71/173/45
f 71/173/45 72/42/45 69/174/45
f 73/43/47 74/44/47 75/45/48
f 76/46/49 77/47/49 78/48/50
f 79/176/51 80/49/52 81/175/53
f 81/175/53 82/50/54 79/176/51
f 83/178/7 84/51/7 85/177/7
f 85/177/7 86/52/7 83/178/7
f 87/180/55 88/53/56 89/179/57
f 89/179/57 90/54/58 87/180/55
f 91/182/6 92/55/6 93/181/6
f 93/181/6 94/56/6 91/182/6
f 95/184/59 96/57/60 97/183/61
f 97/183/61 98/58/62 95/184/59
f 99/186/7 100/59/7 101/185/7
f 101/185/7 102/60/7 99/186/7
f 103/188/7 104/61/7 105/187/7
f 105/187/7 106/62/7 103/188/7
f 107/190/7 108/63/7 109/189/7
f 109/189/7 110/64/7 107/190/7
f 111/192/63 112/65/63 113/191/63
f 113/191/63 114/66/63 111/192/63
f 115/194/64 116/67/64 117/193/64
f 117/193/64 118/68/64 115/194/64
f 119/69/65 120/70/65 121/71/65
f 122/196/65 123/72/66 124/195/66
f 124/195/66 125/73/65 122/196/65
f 126/198/67 127/74/67 128/197/67
f 128/197/67 129/75/67 126/198/67
f 130/76/6 131/77/6 132/78/6
f 133/200/6 134/79/6 135/199/6
f 135/199/6 136/80/6 133/200/6
f 137/202/68 138/81/68 139/201/68
f 139/201/68 140/82/68 137/202/68
f 141/204/69 142/83/70 143/203/69
f 143/203/69 144/84/70 141/204/69
f 145/206/71 146/85/72 147/205/71
f 147/205/71 148/86/72 145/206/71
f 149/208/73 150/87/74 151/207/73
f 151/207/73 152/88/74 149/208/73
f 153/210/6 154/89/6 155/209/6
f 155/209/6 156/90/6 153/210/6
f 157/212/7 158/91/7 159/211/7
f 159/211/7 160/92/7 157/212/7
f 161/214/75 162/93/76 163/213/75
f 163/213/75 164/94/76 161/214/75
f 165/216/77 166/95/77 167/215/77
f 167/215/77 168/96/77 165/216/77
f 169/218/78 170/97/78 171/217/78
f 171/217/78 172/98/78 169/218/78
f 173/220/79 174/99/80 175/219/79
f 175/219/79 176/100/80 173/220/79
f 177/222/6 178/101/6 179/221/6
f 179/221/6 180/102/6 177/222/6
f 181/224/7 182/103/7 183/223/7
f 183/223/7 184/104/7 181/224/7
f 185/226/81 186/105/81 187/225/81
f 187/225/81 188/106/81 185/226/81
f 189/228/7 190/107/7 191/227/7
f 191/227/7 192/108/7 189/228/7
f 193/230/7 194/109/7 195/229/7
f 195/229/7 196/110/7 193/230/7
f 197/232/7 198/111/7 199/231/7
f 199/231/7 200/112/7 197/232/7
f 201/234/82 202/113/82 203/233/82
f 203/233/82 204/114/83 201/234/82
f 205/236/84 206/115/85 207/235/86
f 207/235/86 208/116/87 205/236/84
f 209/238/88 210/117/63 211/237/89
f 211/237/89 212/118/88 209/238/88
f 213/240/90 214/119/90 215/239/90
f 215/239/90 216/120/90 213/240/90
f 217/242/91 218/121/92 219/241/91
f 219/241/91 220/122/92 217/242/91
f 221/244/93 222/123/94 223/243/93
f 223/243/93 224/124/94 221/244/93
f 225/246/7 226/125/7 227/245/7
f 227/245/7 228/126/7 225/246/7
f 229/248/95 230/127/96 231/247/95
f 231/247/95 232/128/96 229/248/95
f 233/250/97 234/129/97 235/249/97
f 235/249/97 236/130/97 233/250/97
f 237/252/6 238/131/6 239/251/6
f 239/251/6 240/132/6 237/252/6
f 241/254/98 242/133/99 243/253/98
f 243/253/98 244/134/99 241/254/98
f 245/256/100 246/135/100 247/255/100
f 247/255/100 248/136/100 245/256/100
f 249/258/101 250/137/102 251/257/101
f 251/257/101 252/138/102 249/258/101
f 253/260/103 254/139/103 255/259/103
f 255/259/103 256/140/103 253/260/103
f 257/262/6 258/141/6 259/261/6
f 259/261/6 260/142/6 257/262/6
f 261/264/7 262/143/7 263/263/7
f 263/263/7 264/144/7 261/264/7
