v 463.786 198.647 0
v 669.786 198.647 0
v 669.786 793.647 0
v 463.786 198.647 12
v 669.786 198.647 12
v 669.786 793.647 12
v 463.786 199.947 -3.8635e-014
v 668.867 199.567 0
v 668.867 792.728 1.16108e-013
v 463.786 199.947 12
v 668.867 199.567 12
v 668.867 792.728 12
v 594.786 198.647 0
v 594.786 198.647 12
v 594.786 793.647 0
v 594.786 793.647 12
v 594.786 199.704 -1.3956e-014
v 594.786 199.704 12
v 594.786 792.728 1.23068e-013
v 594.786 792.728 12
vn 5.82397e-008 -1 0
vn 5.82396e-008 -1 0
vn 1.16479e-007 -1 0
vn 1 0 0
vn 0 1 0
vn 0.00185666 0.999998 0
vn 0.00185661 0.999998 0
vn 0.00185661 0.999998 0
vn 0.00185666 0.999998 0
vn -1 0 0
vn 8.12884e-017 -1.3154e-014 -1
vn 8.22596e-017 -1.32584e-014 -1
vn -4.19617e-017 -3.98949e-017 -1
vn 0 0 -1
vn 0 0 1
vn -6.32519e-014 -6.30759e-014 -1
vn -6.31242e-014 -6.30561e-014 -1
vn 0 -1 0
vn 0.00185656 0.999998 0
vn 0.00185656 0.999998 0
vn 3.69834e-007 -1 -2.59997e-007
vn 4.1195e-007 -1 0
vn 4.21157e-008 -1 -2.28313e-006
vn -2.38927e-022 -1 -2.54313e-006
vn 1.3253e-016 -2.96344e-014 -1
vn 1.33214e-016 -2.97192e-014 -1
vn -9.32077e-017 -1.33819e-013 -1
vn -9.395e-017 -1.33879e-013 -1
vn -1 0 0
vt 1.53 0.44
vt -2.475 0.44
vt 3.475 0.44
vt 1.53 0.56
vt -2.475 0.56
vt 3.475 0.56
vt 3.462 0.44
vt -2.58081 0.44
vt -2.46581 0.44
vt 1.53 -2.462
vt -2.58081 0.56
vt -2.46581 0.56
vt 2.84 0.44
vt 2.84 0.56
vt -1.84 0.44
vt -1.84 0.56
vt -1.84 0.44
vt -1.84 0.56
vt 2.84 0.44
vt 2.84 3.46581
vt -2.59 0.44
vt -2.59 0.56
vt 3.46581 0.44
vt 3.46581 0.56
vt -2.59 -2.475
vt -1.84 -2.475
vt -1.84 -2.46443
vt -2.58081 -2.46581
vt 1.53 -2.475
vt 2.84 -2.475
vt 2.84 -2.46443
vt 3.475 0.44
vt 3.475 0.56
vt 3.462 0.56
vt -2.59 3.475
vt -2.59 -2.475
vt -2.58081 -2.46581
vt -2.58081 3.46581
vt 3.59 -2.475
vt 3.59 3.475
vt 3.58081 3.46581
vt 3.58081 -2.46581
vt 3.59 3.475
vt 2.84 3.475
vt 3.58081 3.46581
vt 3.59 0.44
vt 3.59 0.56
vt -0.529999 0.44
vt -0.529999 0.56
vt 3.58081 0.44
vt 3.58081 0.56
vt 2.84 0.56
vt -1.84 -2.475
vt -0.529999 -2.475
vt -0.529999 -2.462
vt -1.84 -2.46443
vt 2.84 -2.475
vt 3.59 -2.475
vt 3.58081 -2.46581
vt 2.84 -2.46443
vt -1.84 3.475
vt -2.59 3.475
vt -2.58081 3.46581
vt -1.84 3.46581
vt -2.475 0.44
vt -2.46581 0.44
vt -2.46581 0.56
vt -2.475 0.56
f 13/13/1 14/14/2 4/4/3
f 4/4/3 1/1/3 13/13/1
f 6/6/4 5/5/4 2/2/4
f 2/2/4 3/3/4 6/6/4
f 15/15/5 16/16/5 6/22/5
f 6/22/5 3/21/5 15/15/5
f 8/8/6 17/17/7 18/18/8
f 18/18/8 11/11/9 8/8/6
f 8/23/10 11/24/10 12/12/10
f 12/12/10 9/9/10 8/23/10
f 13/26/11 17/27/12 8/28/13
f 8/28/13 2/25/14 13/26/11
f 14/30/15 18/31/15 10/10/15
f 10/10/15 4/29/15 14/30/15
f 10/34/10 7/7/10 1/32/10
f 1/32/10 4/33/10 10/34/10
f 8/37/13 9/38/16 3/35/17
f 3/35/17 2/36/14 8/37/13
f 12/41/15 11/42/15 5/39/15
f 5/39/15 6/40/15 12/41/15
f 16/44/15 20/20/15 12/45/15
f 12/45/15 6/43/15 16/44/15
f 2/46/18 5/47/18 14/14/2
f 14/14/2 13/13/1 2/46/18
f 7/48/19 10/49/20 18/18/8
f 18/18/8 17/17/7 7/48/19
f 9/50/21 12/51/22 20/52/23
f 20/52/23 19/19/24 9/50/21
f 1/54/25 7/55/26 17/56/12
f 17/56/12 13/53/11 1/54/25
f 14/57/15 5/58/15 11/59/15
f 11/59/15 18/60/15 14/57/15
f 15/61/27 3/62/17 9/63/16
f 9/63/16 19/64/28 15/61/27
f 19/66/10 20/67/10 16/68/10
f 16/68/29 15/65/29 19/66/29
