v 179.321 768.98 27.5014
v 179.321 769.323 27.5014
v 179.149 769.619 27.5014
v 178.853 769.791 27.5014
v 178.51 769.791 27.5014
v 178.214 769.619 27.5014
v 178.042 769.323 27.5014
v 178.042 768.98 27.5014
v 178.214 768.684 27.5014
v 178.51 768.513 27.5014
v 178.853 768.513 27.5014
v 179.149 768.684 27.5014
v 179.321 768.98 30.5111
v 179.321 769.323 30.5111
v 179.149 769.619 30.5111
v 178.853 769.791 30.5111
v 178.51 769.791 30.5111
v 178.214 769.619 30.5111
v 178.042 769.323 30.5111
v 178.042 768.98 30.5111
v 178.214 768.684 30.5111
v 178.51 768.513 30.5111
v 178.853 768.513 30.5111
v 179.149 768.684 30.5111
v 175.107 753.256 27.5014
v 175.107 753.599 27.5014
v 175.107 753.599 30.5111
v 175.107 753.256 30.5111
v 174.936 753.895 27.5014
v 174.936 753.895 30.5111
v 174.639 754.067 27.5014
v 174.639 754.067 30.5111
v 174.297 754.067 27.5014
v 174.297 754.067 30.5111
v 174 753.895 27.5014
v 174 753.895 30.5111
v 173.829 753.599 27.5014
v 173.829 753.599 30.5111
v 173.829 753.256 27.5014
v 173.829 753.256 30.5111
v 174 752.96 27.5014
v 174 752.96 30.5111
v 174.297 752.788 27.5014
v 174.297 752.788 30.5111
v 174.639 752.788 27.5014
v 174.639 752.788 30.5111
v 174.936 752.96 27.5014
v 174.936 752.96 30.5111
v 200.294 763.361 27.5014
v 200.294 763.703 27.5014
v 200.294 763.703 30.5111
v 200.294 763.361 30.5111
v 200.123 764 27.5014
v 200.123 764 30.5111
v 199.826 764.171 27.5014
v 199.826 764.171 30.5111
v 199.483 764.171 27.5014
v 199.483 764.171 30.5111
v 199.187 764 27.5014
v 199.187 764 30.5111
v 199.016 763.703 27.5014
v 199.016 763.703 30.5111
v 199.016 763.361 27.5014
v 199.016 763.361 30.5111
v 199.187 763.064 27.5014
v 199.187 763.064 30.5111
v 199.483 762.893 27.5014
v 199.483 762.893 30.5111
v 199.826 762.893 27.5014
v 199.826 762.893 30.5111
v 200.123 763.064 27.5014
v 200.123 763.064 30.5111
v 196.08 747.636 27.5014
v 196.08 747.979 27.5014
v 196.08 747.979 30.5111
v 196.08 747.636 30.5111
v 195.909 748.276 27.5014
v 195.909 748.276 30.5111
v 195.613 748.447 27.5014
v 195.613 748.447 30.5111
v 195.27 748.447 27.5014
v 195.27 748.447 30.5111
v 194.974 748.276 27.5014
v 194.974 748.276 30.5111
v 194.802 747.979 27.5014
v 194.802 747.979 30.5111
v 194.802 747.636 27.5014
v 194.802 747.636 30.5111
v 194.974 747.34 27.5014
v 194.974 747.34 30.5111
v 195.27 747.169 27.5014
v 195.27 747.169 30.5111
v 195.613 747.169 27.5014
v 195.613 747.169 30.5111
v 195.909 747.34 27.5014
v 195.909 747.34 30.5111
vn 0.965926 -0.258819 0
vn 0.965926 0.258819 0
vn 0.965926 0.258819 0
vn 0.965926 -0.258819 0
vn 0.707107 0.707107 0
vn 0.258819 0.965926 0
vn 0.258819 0.965926 0
vn -0.258819 0.965926 0
vn -0.258819 0.965926 0
vn -0.707107 0.707107 0
vn -0.965926 0.258819 0
vn -0.965926 -0.258819 0
vn -0.965926 -0.258819 0
vn -0.707107 -0.707107 0
vn -0.707107 -0.707107 0
vn -0.258819 -0.965926 0
vn 0.258819 -0.965926 0
vn 0.707107 -0.707107 0
vn 0.707107 -0.707107 0
vn 0.965926 -0.258819 8.11278e-014
vn 0.965926 0.25882 2.95296e-007
vn 0.965926 0.25882 2.95296e-007
vn 0.965926 -0.258819 -1.15897e-014
vn 0.707107 0.707107 5.11467e-007
vn 0.707107 0.707107 5.11467e-007
vn 0.25882 0.965926 3.12534e-007
vn 0.258822 0.965925 5.90592e-007
vn -0.258818 0.965926 0
vn -0.258816 0.965927 2.78057e-007
vn -0.707106 0.707108 0
vn -0.707106 0.707108 0
vn -0.965926 0.258819 0
vn -0.965926 0.258819 0
vn -0.965926 -0.258818 0
vn -0.965926 -0.258818 0
vn -0.707108 -0.707105 0
vn -0.707108 -0.707105 0
vn -0.258819 -0.965926 0
vn -0.258819 -0.965926 0
vn 0.25882 -0.965926 -2.03552e-007
vn 0.258818 -0.965926 0
vn 0.707107 -0.707106 -2.95295e-007
vn 0.707106 -0.707108 -9.17439e-008
vn 0.965926 -0.258819 0
vn 0.965926 0.25882 0
vn 0.965926 -0.258819 0
vn 0.707107 0.707107 0
vn 0.707107 0.707107 0
vn 0.258819 0.965926 0
vn 0.258819 0.965926 0
vn -0.25882 0.965926 0
vn -0.25882 0.965926 0
vn -0.707107 0.707107 0
vn -0.707107 0.707107 0
vn -0.965926 0.258819 0
vn -0.965926 0.258819 0
vn -0.965926 -0.258818 0
vn -0.965926 -0.258818 0
vn -0.707108 -0.707106 0
vn -0.707108 -0.707106 0
vn -0.258819 -0.965926 0
vn -0.258819 -0.965926 0
vn 0.258818 -0.965926 0
vn 0.258818 -0.965926 0
vn 0.707105 -0.707108 0
vn 0.707105 -0.707108 0
vn 0.965926 -0.258819 4.63588e-014
vn 0.965925 0.258821 2.95297e-007
vn 0.965925 0.258821 2.95297e-007
vn 0.965926 -0.25882 -4.63588e-014
vn 0.707106 0.707108 5.11468e-007
vn 0.707106 0.707108 5.11468e-007
vn 0.258819 0.965926 3.12534e-007
vn 0.258821 0.965925 5.90592e-007
vn -0.258819 0.965926 0
vn -0.258817 0.965926 2.78057e-007
vn -0.707106 0.707108 0
vn -0.707106 0.707108 0
vn -0.965926 0.258819 0
vn -0.965926 0.258819 0
vn -0.965926 -0.258818 0
vn -0.707108 -0.707105 0
vn -0.707108 -0.707105 0
vn -0.258819 -0.965926 0
vn -0.258819 -0.965926 0
vn 0.258819 -0.965926 -2.03552e-007
vn 0.258818 -0.965926 0
vn 0.707106 -0.707108 -2.95296e-007
vn 0.707105 -0.707109 -9.17444e-008
vt 0.27818 0.513379
vt 0.27818 0.509417
vt 0.27818 0.506517
vt 0.870405 0.27818
vt 0.874367 0.27818
vt 0.877267 0.27818
vt 0.72182 0.513379
vt 0.72182 0.517341
vt 0.72182 0.520241
vt 0.129595 0.27818
vt 0.133557 0.27818
vt 0.136457 0.27818
vt 0.322782 0.513379
vt 0.322782 0.509417
vt 0.322782 0.506517
vt 0.870405 0.322782
vt 0.874367 0.322782
vt 0.877267 0.322782
vt 0.677218 0.513379
vt 0.677218 0.517341
vt 0.677218 0.520241
vt 0.129595 0.322782
vt 0.133557 0.322782
vt 0.136457 0.322782
vt 0.27818 0.708333
vt 0.27818 0.704371
vt 0.322782 0.704371
vt 0.322782 0.708333
vt 0.866443 0.27818
vt 0.866443 0.322782
vt 0.870405 0.27818
vt 0.870405 0.322782
vt 0.874367 0.27818
vt 0.874367 0.322782
vt 0.877267 0.27818
vt 0.877267 0.322782
vt 0.72182 0.708333
vt 0.677218 0.708333
vt 0.72182 0.712295
vt 0.677218 0.712295
vt 0.125633 0.27818
vt 0.125633 0.322782
vt 0.129595 0.27818
vt 0.129595 0.322782
vt 0.133557 0.27818
vt 0.133557 0.322782
vt 0.136457 0.27818
vt 0.136457 0.322782
vt 0.27818 0.513379
vt 0.27818 0.509417
vt 0.322782 0.509417
vt 0.322782 0.513379
vt 0.27818 0.506517
vt 0.322782 0.506517
vt 0.610371 0.27818
vt 0.610371 0.322782
vt 0.614333 0.27818
vt 0.614333 0.322782
vt 0.72182 0.509417
vt 0.677218 0.509417
vt 0.72182 0.513379
vt 0.677218 0.513379
vt 0.72182 0.517341
vt 0.677218 0.517341
vt 0.72182 0.520241
vt 0.677218 0.520241
vt 0.389629 0.27818
vt 0.389629 0.322782
vt 0.393591 0.27818
vt 0.393591 0.322782
vt 0.27818 0.517341
vt 0.322782 0.517341
vt 0.27818 0.708333
vt 0.27818 0.704371
vt 0.322782 0.704371
vt 0.322782 0.708333
vt 0.27818 0.701471
vt 0.322782 0.701471
vt 0.610371 0.27818
vt 0.610371 0.322782
vt 0.614333 0.27818
vt 0.614333 0.322782
vt 0.617233 0.27818
vt 0.617233 0.322782
vt 0.72182 0.708333
vt 0.677218 0.708333
vt 0.72182 0.712295
vt 0.677218 0.712295
vt 0.72182 0.715195
vt 0.677218 0.715195
vt 0.389629 0.27818
vt 0.389629 0.322782
vt 0.393591 0.27818
vt 0.393591 0.322782
vt 0.396491 0.27818
vt 0.396491 0.322782
vt 0.866443 0.27818
vt 0.866443 0.322782
vt 0.72182 0.509417
vt 0.677218 0.509417
vt 0.125633 0.27818
vt 0.125633 0.322782
vt 0.27818 0.517341
vt 0.322782 0.517341
vt 0.863543 0.27818
vt 0.863543 0.322782
vt 0.72182 0.704371
vt 0.677218 0.704371
vt 0.122733 0.27818
vt 0.122733 0.322782
vt 0.27818 0.712295
vt 0.322782 0.712295
vt 0.606409 0.27818
vt 0.606409 0.322782
vt 0.72182 0.506517
vt 0.677218 0.506517
vt 0.385667 0.27818
vt 0.385667 0.322782
vt 0.27818 0.520241
vt 0.322782 0.520241
vt 0.606409 0.27818
vt 0.606409 0.322782
vt 0.72182 0.704371
vt 0.677218 0.704371
vt 0.385667 0.27818
vt 0.385667 0.322782
vt 0.27818 0.712295
vt 0.322782 0.712295
f 1/1/1 2/2/2 14/14/3
f 14/14/3 13/13/4 1/1/1
f 2/2/2 3/3/5 15/15/5
f 15/15/5 14/14/3 2/2/2
f 3/97/5 4/4/6 16/16/7
f 16/16/7 15/98/5 3/97/5
f 4/4/6 5/5/8 17/17/9
f 17/17/9 16/16/7 4/4/6
f 5/5/8 6/6/10 18/18/10
f 18/18/10 17/17/9 5/5/8
f 6/99/10 7/7/11 19/19/11
f 19/19/11 18/100/10 6/99/10
f 7/7/11 8/8/12 20/20/13
f 20/20/13 19/19/11 7/7/11
f 8/8/12 9/9/14 21/21/15
f 21/21/15 20/20/13 8/8/12
f 9/101/14 10/10/16 22/22/16
f 22/22/16 21/102/15 9/101/14
f 10/10/16 11/11/17 23/23/17
f 23/23/17 22/22/16 10/10/16
f 11/11/17 12/12/18 24/24/19
f 24/24/19 23/23/17 11/11/17
f 12/103/18 1/1/1 13/13/4
f 13/13/4 24/104/19 12/103/18
f 25/25/20 26/26/21 27/27/22
f 27/27/22 28/28/23 25/25/20
f 26/105/21 29/29/24 30/30/25
f 30/30/25 27/106/22 26/105/21
f 29/29/24 31/31/26 32/32/27
f 32/32/27 30/30/25 29/29/24
f 31/31/26 33/33/28 34/34/29
f 34/34/29 32/32/27 31/31/26
f 33/33/28 35/35/30 36/36/31
f 36/36/31 34/34/29 33/33/28
f 35/107/30 37/37/32 38/38/33
f 38/38/33 36/108/31 35/107/30
f 37/37/32 39/39/34 40/40/35
f 40/40/35 38/38/33 37/37/32
f 39/109/34 41/41/36 42/42/37
f 42/42/37 40/110/35 39/109/34
f 41/41/36 43/43/38 44/44/39
f 44/44/39 42/42/37 41/41/36
f 43/43/38 45/45/40 46/46/41
f 46/46/41 44/44/39 43/43/38
f 45/45/40 47/47/42 48/48/43
f 48/48/43 46/46/41 45/45/40
f 47/111/42 25/25/20 28/28/23
f 28/28/23 48/112/43 47/111/42
f 49/49/44 50/50/45 51/51/45
f 51/51/45 52/52/46 49/49/44
f 50/50/45 53/53/47 54/54/48
f 54/54/48 51/51/45 50/50/45
f 53/113/47 55/55/49 56/56/50
f 56/56/50 54/114/48 53/113/47
f 55/55/49 57/57/51 58/58/52
f 58/58/52 56/56/50 55/55/49
f 57/115/51 59/59/53 60/60/54
f 60/60/54 58/116/52 57/115/51
f 59/59/53 61/61/55 62/62/56
f 62/62/56 60/60/54 59/59/53
f 61/61/55 63/63/57 64/64/58
f 64/64/58 62/62/56 61/61/55
f 63/63/57 65/65/59 66/66/60
f 66/66/60 64/64/58 63/63/57
f 65/117/59 67/67/61 68/68/62
f 68/68/62 66/118/60 65/117/59
f 67/67/61 69/69/63 70/70/64
f 70/70/64 68/68/62 67/67/61
f 69/119/63 71/71/65 72/72/66
f 72/72/66 70/120/64 69/119/63
f 71/71/65 49/49/44 52/52/46
f 52/52/46 72/72/66 71/71/65
f 73/73/67 74/74/68 75/75/69
f 75/75/69 76/76/70 73/73/67
f 74/74/68 77/77/71 78/78/72
f 78/78/72 75/75/69 74/74/68
f 77/121/71 79/79/73 80/80/74
f 80/80/74 78/122/72 77/121/71
f 79/79/73 81/81/75 82/82/76
f 82/82/76 80/80/74 79/79/73
f 81/81/75 83/83/77 84/84/78
f 84/84/78 82/82/76 81/81/75
f 83/123/77 85/85/79 86/86/80
f 86/86/80 84/124/78 83/123/77
f 85/85/79 87/87/81 88/88/81
f 88/88/81 86/86/80 85/85/79
f 87/87/81 89/89/82 90/90/83
f 90/90/83 88/88/81 87/87/81
f 89/125/82 91/91/84 92/92/85
f 92/92/85 90/126/83 89/125/82
f 91/91/84 93/93/86 94/94/87
f 94/94/87 92/92/85 91/91/84
f 93/93/86 95/95/88 96/96/89
f 96/96/89 94/94/87 93/93/86
f 95/127/88 73/73/67 76/76/70
f 76/76/70 96/128/89 95/127/88
