v 140.322 853.778 89.6794
v 140.324 853.897 88.1693
v 139.44 854.687 89.7633
v 139.501 854.745 88.1693
v 104.829 820.238 89.6794
v 104.77 820.298 88.0854
v 103.947 821.146 89.7633
v 103.888 821.207 88.1693
v 140.322 853.778 114.009
v 140.324 853.897 112.499
v 139.44 854.687 114.093
v 139.501 854.745 112.499
v 104.829 820.238 114.009
v 104.77 820.298 112.415
v 103.947 821.146 114.093
v 103.888 821.207 112.499
v 140.322 853.778 138.338
v 140.324 853.897 136.828
v 139.44 854.687 138.422
v 139.501 854.745 136.828
v 104.829 820.238 138.338
v 104.77 820.298 136.744
v 103.947 821.146 138.422
v 103.888 821.207 136.828
v 140.322 853.778 162.668
v 140.324 853.897 161.158
v 139.44 854.687 162.752
v 139.501 854.745 161.158
v 104.829 820.238 162.668
v 104.77 820.298 161.074
v 103.947 821.146 162.752
v 103.888 821.207 161.158
v 123.246 837.409 41.1882
v 122.081 836.425 41.1043
v 122.19 838.618 41.1882
v 121.023 837.516 41.1043
v 123.246 837.409 186.158
v 122.02 836.367 186.158
v 122.19 838.618 186.158
v 120.964 837.576 186.158
v 140.263 853.839 89.7633
v 140.324 853.897 89.6794
v 140.263 853.839 88.0854
v 140.322 853.778 88.1693
v 139.381 854.748 89.6794
v 139.501 854.745 89.6794
v 139.381 854.748 88.1693
v 139.44 854.687 88.0854
v 104.709 820.24 89.6794
v 104.77 820.298 89.7633
v 104.709 820.24 88.1693
v 104.829 820.238 88.1693
v 103.885 821.088 89.6794
v 103.888 821.207 89.6794
v 103.885 821.088 88.1693
v 103.947 821.146 88.0854
v 140.263 853.839 114.093
v 140.324 853.897 114.009
v 140.263 853.839 112.415
v 140.322 853.778 112.499
v 139.381 854.748 114.009
v 139.501 854.745 114.009
v 139.381 854.748 112.499
v 139.44 854.687 112.415
v 104.709 820.24 114.009
v 104.77 820.298 114.093
v 104.709 820.24 112.499
v 104.829 820.238 112.499
v 103.885 821.088 114.009
v 103.888 821.207 114.009
v 103.885 821.088 112.499
v 103.947 821.146 112.415
v 140.263 853.839 138.422
v 140.324 853.897 138.338
v 140.263 853.839 136.744
v 140.322 853.778 136.828
v 139.381 854.748 138.338
v 139.501 854.745 138.338
v 139.381 854.748 136.828
v 139.44 854.687 136.744
v 104.709 820.24 138.338
v 104.77 820.298 138.422
v 104.709 820.24 136.828
v 104.829 820.238 136.828
v 103.885 821.088 138.338
v 103.888 821.207 138.338
v 103.885 821.088 136.828
v 103.947 821.146 136.744
v 140.263 853.839 162.752
v 140.324 853.897 162.668
v 140.263 853.839 161.074
v 140.322 853.778 161.158
v 139.381 854.748 162.668
v 139.501 854.745 162.668
v 139.381 854.748 161.158
v 139.44 854.687 161.074
v 104.709 820.24 162.668
v 104.77 820.298 162.752
v 104.709 820.24 161.158
v 104.829 820.238 161.158
v 103.885 821.088 162.668
v 103.888 821.207 162.668
v 103.885 821.088 161.158
v 103.947 821.146 161.074
v 123.248 837.528 41.1882
v 123.187 837.47 41.1043
v 122.02 836.367 41.1882
v 122.14 836.364 41.1882
v 122.069 838.621 41.1882
v 122.128 838.56 41.1043
v 120.964 837.576 41.1882
v 120.961 837.458 41.1882
v 123.187 837.47 186.242
v 123.248 837.528 186.158
v 122.081 836.425 186.242
v 122.14 836.364 186.158
v 122.128 838.56 186.242
v 122.069 838.621 186.158
v 121.023 837.516 186.242
v 120.961 837.458 186.158
v 140.324 853.897 65.3499
v 139.501 854.745 65.3499
v 139.501 854.745 63.8398
v 140.324 853.897 63.8398
v 104.709 820.24 65.3499
v 104.709 820.24 63.8398
v 103.885 821.088 63.8398
v 103.885 821.088 65.3499
v 140.322 853.778 65.3499
v 140.322 853.778 63.8398
v 104.829 820.238 63.8398
v 104.829 820.238 65.3499
v 140.263 853.839 63.7559
v 139.44 854.687 63.7559
v 103.947 821.146 63.7559
v 104.77 820.298 63.7559
v 139.381 854.748 63.8398
v 139.381 854.748 65.3499
v 103.888 821.207 65.3499
v 103.888 821.207 63.8398
v 139.44 854.687 65.4338
v 140.263 853.839 65.4338
v 104.77 820.298 65.4338
v 103.947 821.146 65.4338
vn 0.717548 0.69651 -2.91023e-008
vn -0.717548 -0.69651 2.91023e-008
vn 0.686833 -0.726815 9.3968e-008
vn 4.31291e-008 -8.74228e-008 -1
vn -0.686833 0.726815 -9.3968e-008
vn -7.98704e-008 5.17587e-008 1
vn 0.686833 -0.726815 9.3968e-008
vn 0.686833 -0.726815 9.3968e-008
vn 1.16612e-007 -1.60946e-008 -1
vn 1.16612e-007 -1.60946e-008 -1
vn -0.686833 0.726815 -9.3968e-008
vn -0.686833 0.726815 -9.3968e-008
vn -1.90094e-007 -5.52336e-008 1
vn -4.31291e-008 8.74228e-008 1
vn 0.686833 -0.726815 1.03189e-007
vn 0.686833 -0.726815 1.03189e-007
vn -0.717548 -0.69651 9.85703e-008
vn -0.686833 0.726815 -1.03192e-007
vn -0.686833 0.726815 -1.03189e-007
vn -0.686833 0.726815 -1.03728e-007
vn -0.686833 0.726815 -1.03731e-007
vn 0.812627 -0.0177932 0.582512
vn 0.812627 -0.0177933 -0.582512
vn 0.0173634 0.816308 0.577355
vn 0.0173634 0.816308 -0.577355
vn -0.0173636 -0.816308 0.577355
vn -0.0173634 -0.8163 -0.577367
vn -0.812627 0.0177933 0.582512
vn -0.812619 0.017793 -0.582524
vn 0.812619 -0.017793 0.582524
vn 0.812619 -0.0177931 -0.582524
vn 0.0173632 0.8163 0.577367
vn 0.0173632 0.8163 -0.577367
vn -0.0173634 -0.8163 0.577367
vn -0.812619 0.0177931 0.582524
vn 0.812635 -0.0177933 0.582501
vn 0.0173636 0.816317 0.577344
vn -0.0173638 -0.816316 0.577344
vn -0.812636 0.0177934 0.582501
vn 0.812635 -0.0177934 -0.582501
vn 0.0173637 0.816316 -0.577344
vn -0.0173638 -0.816317 -0.577344
vn -0.812635 0.0177933 -0.582501
vn 0.812627 -0.0177934 -0.582512
vn -0.0173638 -0.816308 -0.577355
vn 0.0173638 0.816308 -0.577355
vn -0.812627 0.0177938 -0.582512
vn 0.812635 -0.0177935 0.582501
vn -0.0173637 -0.816316 0.577344
vn -0.812635 0.0177936 0.582501
vn 0.505609 0.490785 0.70957
vn 0.0212659 0.999774 -8.64609e-008
vn 0.505609 0.490785 -0.70957
vn 0.99976 -0.0218907 4.62047e-008
vn -0.0212661 -0.999774 8.64609e-008
vn -0.505601 -0.490777 -0.709581
vn -0.99976 0.0218907 -4.62047e-008
vn -0.505609 -0.490785 0.70957
vn -0.505609 -0.490785 0.70957
vn 0.484119 -0.5123 -0.70935
vn 0.484112 -0.512293 -0.70936
vn 0.484119 -0.5123 0.70935
vn -0.484119 0.5123 -0.70935
vn -0.484112 0.512292 -0.709361
vn -0.484119 0.5123 0.70935
vn 0.505601 0.490778 0.709581
vn 0.0212658 0.999774 -8.64609e-008
vn 0.505601 0.490777 -0.709581
vn -0.505601 -0.490777 0.709581
vn -0.505601 -0.490777 0.709581
vn 0.484112 -0.512293 -0.709361
vn 0.484111 -0.512293 0.709361
vn -0.484112 0.512293 -0.709361
vn -0.484111 0.512292 -0.709361
vn -0.484112 0.512293 0.70936
vn 0.505616 0.490792 0.70956
vn 0.99976 -0.0218907 4.62047e-008
vn -0.021266 -0.999774 8.64609e-008
vn -0.99976 0.0218907 -4.62047e-008
vn -0.505617 -0.490792 0.70956
vn -0.505617 -0.490792 0.70956
vn 0.484112 -0.512293 -0.70936
vn 0.484126 -0.512308 0.70934
vn -0.484112 0.512292 -0.709361
vn -0.484126 0.512308 0.709339
vn 0.505617 0.490792 -0.70956
vn -0.505616 -0.490792 -0.70956
vn 0.484126 -0.512308 -0.709339
vn -0.484126 0.512308 -0.709339
vn -0.484126 0.512308 -0.70934
vn -0.484119 0.5123 -0.70935
vn -0.484119 0.5123 -0.70935
vn -0.505609 -0.490785 -0.70957
vn 0.484119 -0.5123 -0.70935
vn 0.484119 -0.5123 -0.70935
vn 0.484126 -0.512308 0.709339
vn -0.484126 0.512308 0.709339
vn -0.0212663 -0.999774 1.41339e-007
vn -0.0212658 -0.999774 1.4172e-007
vn 0.99976 -0.0218909 5.2771e-008
vn -0.99976 0.0218914 -3.71912e-009
vn -0.99976 0.0218909 -3.3328e-009
vn 0.0212663 0.999774 -9.33209e-008
vn 0.0212658 0.999774 -9.29398e-008
vn 0.686833 -0.726815 4.29294e-008
vn 0.686833 -0.726815 4.18974e-008
vn 0.686833 -0.726815 9.2936e-008
vn 0.686833 -0.726815 9.3968e-008
vn 1.02834e-007 -2.94686e-008 -1
vn 1.02834e-007 -2.94686e-008 -1
vn 1.02834e-007 -2.94686e-008 -1
vn -0.686833 0.726815 -5.01244e-007
vn -0.686833 0.726815 -5.10532e-007
vn -0.686833 0.726815 -5.11854e-008
vn -0.686833 0.726815 -4.18974e-008
vn -1.02834e-007 2.94686e-008 1
vn -1.02834e-007 2.94686e-008 1
vn -1.02834e-007 2.94686e-008 1
vn 0.812625 -0.0177919 0.582515
vn 0.812625 -0.017792 -0.582515
vn 0.0173647 0.816307 0.577358
vn 0.0173616 0.816308 -0.577357
vn -0.0173646 -0.816309 0.577355
vn -0.0173649 -0.816309 -0.577355
vn -0.812628 0.0177923 0.582512
vn -0.812628 0.017792 -0.582512
vn 0.505607 0.490783 0.709572
vn 0.0212675 0.999774 -3.79154e-007
vn 0.0212635 0.999774 -6.81676e-008
vn 0.505608 0.490783 -0.709572
vn 0.99976 -0.0218892 9.12445e-009
vn -0.0212672 -0.999774 8.64608e-008
vn -0.0212677 -0.999774 4.98742e-008
vn -0.505607 -0.490784 -0.709572
vn -0.505607 -0.490783 -0.709572
vn -0.99976 0.0218892 -9.12445e-009
vn -0.99976 0.0218895 -2.76645e-008
vn -0.505608 -0.490783 0.709572
vn -0.505608 -0.490783 0.709572
vn 0.484117 -0.512298 -0.709353
vn 0.484119 -0.5123 -0.70935
vn 0.484119 -0.5123 0.70935
vn 0.484117 -0.512298 0.709353
vn -0.484119 0.5123 -0.70935
vn -0.484119 0.5123 -0.70935
vn -0.484117 0.512298 0.709353
vn -0.484119 0.5123 0.70935
vt 0.980315 0.019685
vt 0.019685 0.019685
vt 0.980315 0.980315
vt 0.019685 0.980315
vt 0.019685 0.019685
vt 0.980315 0.019685
vt 0.019685 0.980315
vt 0.980315 0.980315
vt 0.019685 0.019685
vt 0.980315 0.019685
vt 0.019685 0.980315
vt 0.980315 0.980315
vt 0.019685 0.019685
vt 0.980315 0.019685
vt 0.019685 0.980315
vt 0.980315 0.980315
vt 0.019685 0.019685
vt 0.980315 0.019685
vt 0.019685 0.980315
vt 0.980315 0.980315
vt 0.019685 0.019685
vt 0.980315 0.019685
vt 0.019685 0.980315
vt 0.980315 0.980315
vt 0.980315 0.019685
vt 0.019685 0.019685
vt 0.980315 0.980315
vt 0.019685 0.980315
vt 0.019685 0.019685
vt 0.980315 0.019685
vt 0.019685 0.980315
vt 0.980315 0.980315
vt 0.019685 0.019685
vt 0.980315 0.019685
vt 0.019685 0.980315
vt 0.980315 0.980315
vt 0.019685 0.019685
vt 0.980315 0.019685
vt 0.019685 0.980315
vt 0.980315 0.980315
vt 0.019685 0.019685
vt 0.980315 0.019685
vt 0.019685 0.980315
vt 0.980315 0.980315
vt 0.019685 0.019685
vt 0.980315 0.019685
vt 0.019685 0.980315
vt 0.980315 0.980315
vt 0.980315 0.019685
vt 0.019685 0.019685
vt 0.980315 0.980315
vt 0.019685 0.980315
vt 0.019685 0.019685
vt 0.980315 0.019685
vt 0.019685 0.980315
vt 0.980315 0.980315
vt 0.019685 0.019685
vt 0.980315 0.019685
vt 0.019685 0.980315
vt 0.980315 0.980315
vt 0.019685 0.019685
vt 0.980315 0.019685
vt 0.019685 0.980315
vt 0.980315 0.980315
vt 0.019685 0.019685
vt 0.980315 0.019685
vt 0.019685 0.980315
vt 0.980315 0.980315
vt 0.019685 0.019685
vt 0.980315 0.019685
vt 0.019685 0.980315
vt 0.980315 0.980315
vt 0.980315 0.019685
vt 0.019685 0.019685
vt 0.980315 0.980315
vt 0.019685 0.980315
vt 0.019685 0.019685
vt 0.980315 0.019685
vt 0.019685 0.980315
vt 0.980315 0.980315
vt 0.019685 0.019685
vt 0.980315 0.019685
vt 0.019685 0.980315
vt 0.980315 0.980315
vt 0.019685 0.019685
vt 0.980315 0.019685
vt 0.019685 0.980315
vt 0.980315 0.980315
vt 0.019685 0.019685
vt 0.980315 0.019685
vt 0.019685 0.980315
vt 0.980315 0.980315
vt 0.019685 0.019685
vt 0.980315 0.019685
vt 0.019685 0.980315
vt 0.980315 0.980315
vt 0.980315 0.019685
vt 0.019685 0.019685
vt 0.980315 0.980315
vt 0.019685 0.980315
vt 0.019685 0.019685
vt 0.980315 0.019685
vt 0.019685 0.980315
vt 0.980315 0.980315
vt 0.019685 0.019685
vt 0.980315 0.019685
vt 0.019685 0.980315
vt 0.980315 0.980315
vt 0.019685 0.019685
vt 0.980315 0.019685
vt 0.019685 0.980315
vt 0.980315 0.980315
vt 0.019685 0.019685
vt 0.980315 0.019685
vt 0.019685 0.980315
vt 0.980315 0.980315
vt 0.019685 0.019685
vt 0.980315 0.019685
vt 0.019685 0.980315
vt 0.980315 0.980315
vt 0.980315 0.019685
vt 0.980315 0.980315
vt 0.019685 0.980315
vt 0.019685 0.019685
vt 0.019685 0.019685
vt 0.980315 0.019685
vt 0.980315 0.980315
vt 0.019685 0.980315
vt 0.019685 0.019685
vt 0.980315 0.019685
vt 0.980315 0.980315
vt 0.019685 0.980315
vt 0.019685 0.019685
vt 0.980315 0.019685
vt 0.980315 0.980315
vt 0.019685 0.980315
vt 0.019685 0.019685
vt 0.980315 0.019685
vt 0.980315 0.980315
vt 0.019685 0.980315
vt 0.019685 0.019685
vt 0.980315 0.019685
vt 0.980315 0.980315
vt 0.019685 0.980315
f 4/4/1 46/3/1 42/1/1
f 42/1/1 2/2/1 4/4/1
f 55/8/2 51/6/2 49/5/2
f 49/5/2 53/7/2 55/8/2
f 52/12/3 44/10/3 1/9/3
f 1/9/3 5/11/3 52/12/3
f 56/16/4 48/14/4 43/13/4
f 43/13/4 6/15/4 56/16/4
f 54/20/5 45/18/5 47/17/5
f 47/17/5 8/19/5 54/20/5
f 50/24/6 41/22/6 3/21/6
f 3/21/6 7/23/6 50/24/6
f 12/28/1 62/27/1 58/25/1
f 58/25/1 10/26/1 12/28/1
f 71/32/2 67/30/2 65/29/2
f 65/29/2 69/31/2 71/32/2
f 68/36/7 60/34/3 9/33/3
f 9/33/3 13/35/8 68/36/7
f 72/40/10 64/38/9 59/37/9
f 59/37/9 14/39/10 72/40/10
f 70/44/12 61/42/11 63/41/11
f 63/41/11 16/43/5 70/44/12
f 66/48/13 57/46/13 11/45/13
f 11/45/13 15/47/13 66/48/13
f 20/52/1 78/51/1 74/49/1
f 74/49/1 18/50/1 20/52/1
f 87/56/2 83/54/2 81/53/2
f 81/53/2 85/55/2 87/56/2
f 84/60/3 76/58/3 17/57/3
f 17/57/3 21/59/3 84/60/3
f 88/64/4 80/62/4 75/61/4
f 75/61/4 22/63/4 88/64/4
f 86/68/11 77/66/11 79/65/11
f 79/65/11 24/67/11 86/68/11
f 82/72/14 73/70/14 19/69/14
f 19/69/14 23/71/14 82/72/14
f 28/76/1 94/75/1 90/73/1
f 90/73/1 26/74/1 28/76/1
f 103/80/2 99/78/2 97/77/2
f 97/77/2 101/79/2 103/80/2
f 100/84/3 92/82/3 25/81/3
f 25/81/3 29/83/3 100/84/3
f 104/88/4 96/86/4 91/85/4
f 91/85/4 30/87/4 104/88/4
f 102/92/5 93/90/5 95/89/5
f 95/89/5 32/91/5 102/92/5
f 98/96/14 89/94/14 27/93/14
f 27/93/14 31/95/14 98/96/14
f 36/100/4 110/99/4 106/97/4
f 106/97/4 34/98/4 36/100/4
f 119/104/14 115/102/14 113/101/14
f 113/101/14 117/103/14 119/104/14
f 116/108/16 108/106/15 33/105/15
f 33/105/15 37/107/16 116/108/16
f 120/112/17 112/110/17 107/109/17
f 107/109/17 38/111/17 120/112/17
f 118/116/20 109/114/19 111/113/18
f 111/113/18 40/115/21 118/116/20
f 114/120/1 105/118/1 35/117/1
f 35/117/1 39/119/1 114/120/1
f 42/1/22 41/22/22 1/9/22
f 44/10/23 43/13/23 2/2/23
f 46/3/24 45/18/24 3/21/24
f 48/14/25 47/17/25 4/4/25
f 50/24/26 49/5/26 5/11/26
f 52/12/27 51/6/27 6/15/27
f 54/20/28 53/7/28 7/23/28
f 56/16/29 55/8/29 8/19/29
f 58/25/30 57/46/30 9/33/30
f 60/34/31 59/37/31 10/26/31
f 62/27/32 61/42/32 11/45/32
f 64/38/33 63/41/33 12/28/33
f 66/48/34 65/29/34 13/35/34
f 68/36/27 67/30/27 14/39/27
f 70/44/35 69/31/35 15/47/35
f 72/40/29 71/32/29 16/43/29
f 74/49/36 73/70/36 17/57/36
f 76/58/31 75/61/31 18/50/31
f 78/51/37 77/66/37 19/69/37
f 80/62/33 79/65/33 20/52/33
f 82/72/38 81/53/38 21/59/38
f 84/60/27 83/54/27 22/63/27
f 86/68/39 85/55/39 23/71/39
f 88/64/29 87/56/29 24/67/29
f 90/73/36 89/94/36 25/81/36
f 92/82/40 91/85/40 26/74/40
f 94/75/37 93/90/37 27/93/37
f 96/86/41 95/89/41 28/76/41
f 98/96/38 97/77/38 29/83/38
f 100/84/42 99/78/42 30/87/42
f 102/92/39 101/79/39 31/95/39
f 104/88/43 103/80/43 32/91/43
f 106/97/44 105/118/44 33/105/44
f 108/106/45 107/109/45 34/98/45
f 110/99/46 109/114/46 35/117/46
f 112/110/47 111/113/47 36/100/47
f 114/120/48 113/101/48 37/107/48
f 116/108/49 115/102/49 38/111/49
f 118/116/37 117/103/37 39/119/37
f 120/112/50 119/104/50 40/115/50
f 3/21/51 41/22/51 42/1/51
f 42/1/51 46/3/51 3/21/51
f 47/17/52 45/18/52 46/3/52
f 46/3/52 4/4/52 47/17/52
f 43/13/53 48/14/53 4/4/53
f 4/4/53 2/2/53 43/13/53
f 1/9/54 44/10/54 2/2/54
f 2/2/54 42/1/54 1/9/54
f 52/12/55 5/11/55 49/5/55
f 49/5/55 51/6/55 52/12/55
f 56/16/56 6/15/56 51/6/56
f 51/6/56 55/8/56 56/16/56
f 54/20/57 8/19/57 55/8/57
f 55/8/57 53/7/57 54/20/57
f 50/24/58 7/23/58 53/7/58
f 53/7/59 49/5/59 50/24/59
f 6/15/60 43/13/60 44/10/60
f 44/10/61 52/12/61 6/15/61
f 41/22/62 50/24/62 5/11/62
f 5/11/62 1/9/62 41/22/62
f 8/19/63 47/17/63 48/14/63
f 48/14/64 56/16/64 8/19/64
f 7/23/65 3/21/65 45/18/65
f 45/18/65 54/20/65 7/23/65
f 11/45/66 57/46/66 58/25/66
f 58/25/66 62/27/66 11/45/66
f 63/41/67 61/42/67 62/27/67
f 62/27/67 12/28/67 63/41/67
f 59/37/68 64/38/68 12/28/68
f 12/28/68 10/26/68 59/37/68
f 9/33/54 60/34/54 10/26/54
f 10/26/54 58/25/54 9/33/54
f 68/36/55 13/35/55 65/29/55
f 65/29/55 67/30/55 68/36/55
f 72/40/56 14/39/56 67/30/56
f 67/30/56 71/32/56 72/40/56
f 70/44/57 16/43/57 71/32/57
f 71/32/57 69/31/57 70/44/57
f 66/48/69 15/47/69 69/31/69
f 69/31/70 65/29/70 66/48/70
f 14/39/71 59/37/71 60/34/71
f 60/34/71 68/36/71 14/39/71
f 57/46/72 66/48/72 13/35/72
f 13/35/72 9/33/72 57/46/72
f 16/43/73 63/41/73 64/38/73
f 64/38/74 72/40/74 16/43/74
f 15/47/75 11/45/75 61/42/75
f 61/42/75 70/44/75 15/47/75
f 19/69/76 73/70/76 74/49/76
f 74/49/76 78/51/76 19/69/76
f 79/65/67 77/66/67 78/51/67
f 78/51/67 20/52/67 79/65/67
f 75/61/68 80/62/68 20/52/68
f 20/52/68 18/50/68 75/61/68
f 17/57/77 76/58/77 18/50/77
f 18/50/77 74/49/77 17/57/77
f 84/60/78 21/59/78 81/53/78
f 81/53/78 83/54/78 84/60/78
f 88/64/56 22/63/56 83/54/56
f 83/54/56 87/56/56 88/64/56
f 86/68/79 24/67/79 87/56/79
f 87/56/79 85/55/79 86/68/79
f 82/72/80 23/71/80 85/55/80
f 85/55/81 81/53/81 82/72/81
f 22/63/82 75/61/82 76/58/82
f 76/58/82 84/60/82 22/63/82
f 73/70/83 82/72/83 21/59/83
f 21/59/83 17/57/83 73/70/83
f 24/67/84 79/65/84 80/62/84
f 80/62/64 88/64/64 24/67/64
f 23/71/85 19/69/85 77/66/85
f 77/66/85 86/68/85 23/71/85
f 27/93/76 89/94/76 90/73/76
f 90/73/76 94/75/76 27/93/76
f 95/89/52 93/90/52 94/75/52
f 94/75/52 28/76/52 95/89/52
f 91/85/86 96/86/86 28/76/86
f 28/76/86 26/74/86 91/85/86
f 25/81/54 92/82/54 26/74/54
f 26/74/54 90/73/54 25/81/54
f 100/84/55 29/83/55 97/77/55
f 97/77/55 99/78/55 100/84/55
f 104/88/87 30/87/87 99/78/87
f 99/78/87 103/80/87 104/88/87
f 102/92/57 32/91/57 103/80/57
f 103/80/57 101/79/57 102/92/57
f 98/96/80 31/95/80 101/79/80
f 101/79/81 97/77/81 98/96/81
f 30/87/88 91/85/88 92/82/88
f 92/82/88 100/84/88 30/87/88
f 89/94/83 98/96/83 29/83/83
f 29/83/83 25/81/83 89/94/83
f 32/91/89 95/89/89 96/86/89
f 96/86/90 104/88/90 32/91/90
f 31/95/85 27/93/85 93/90/85
f 93/90/85 102/92/85 31/95/85
f 35/117/53 105/118/53 106/97/53
f 106/97/53 110/99/53 35/117/53
f 111/113/91 109/114/91 110/99/91
f 110/99/92 36/100/92 111/113/92
f 107/109/93 112/110/93 36/100/93
f 36/100/93 34/98/93 107/109/93
f 33/105/94 108/106/94 34/98/94
f 34/98/95 106/97/95 33/105/95
f 116/108/96 37/107/96 113/101/96
f 113/101/96 115/102/96 116/108/96
f 120/112/81 38/111/81 115/102/81
f 115/102/81 119/104/81 120/112/81
f 118/116/97 40/115/97 119/104/97
f 119/104/97 117/103/97 118/116/97
f 114/120/76 39/119/76 117/103/76
f 117/103/76 113/101/76 114/120/76
f 38/111/98 107/109/98 108/106/98
f 108/106/99 116/108/99 38/111/99
f 105/118/100 114/120/100 37/107/100
f 37/107/100 33/105/100 105/118/100
f 40/115/101 111/113/101 112/110/101
f 112/110/102 120/112/102 40/115/102
f 39/119/103 35/117/103 109/114/103
f 109/114/104 118/116/104 39/119/104
f 123/123/1 122/122/1 121/121/1
f 121/121/1 124/124/1 123/123/1
f 127/127/2 126/126/2 125/125/2
f 125/125/2 128/128/2 127/127/2
f 131/131/107 130/130/106 129/129/105
f 129/129/105 132/132/108 131/131/107
f 135/135/110 134/134/109 133/133/109
f 133/133/109 136/136/111 135/135/110
f 139/139/114 138/138/113 137/137/112
f 137/137/112 140/140/115 139/139/114
f 143/143/117 142/142/116 141/141/116
f 141/141/116 144/144/118 143/143/117
f 121/121/119 142/142/119 129/129/119
f 130/130/120 133/133/120 124/124/120
f 122/122/121 138/138/121 141/141/121
f 134/134/122 137/137/122 123/123/122
f 143/143/123 125/125/123 132/132/123
f 131/131/124 126/126/124 136/136/124
f 139/139/125 128/128/125 144/144/125
f 135/135/126 127/127/126 140/140/126
f 141/141/127 142/142/127 121/121/127
f 121/121/127 122/122/127 141/141/127
f 137/137/128 138/138/128 122/122/128
f 122/122/129 123/123/129 137/137/129
f 133/133/130 134/134/130 123/123/130
f 123/123/130 124/124/130 133/133/130
f 129/129/131 130/130/131 124/124/131
f 124/124/131 121/121/131 129/129/131
f 131/131/132 132/132/132 125/125/132
f 125/125/133 126/126/133 131/131/133
f 135/135/134 136/136/134 126/126/134
f 126/126/135 127/127/135 135/135/135
f 139/139/136 140/140/136 127/127/136
f 127/127/137 128/128/137 139/139/137
f 143/143/138 144/144/138 128/128/138
f 128/128/139 125/125/139 143/143/139
f 136/136/140 133/133/140 130/130/140
f 130/130/141 131/131/141 136/136/141
f 142/142/142 143/143/142 132/132/142
f 132/132/143 129/129/143 142/142/143
f 140/140/144 137/137/144 134/134/144
f 134/134/145 135/135/145 140/140/145
f 144/144/146 141/141/146 138/138/146
f 138/138/147 139/139/147 144/144/147
