v 141.82 858.316 36.9095
v 100.125 818.914 36.9934
v 144.116 856.071 36.9934
v 102.421 816.67 36.9095
v 141.761 858.376 41.0204
v 100.125 818.914 41.0204
v 102.48 816.609 41.0204
v 144.116 856.071 41.0204
v 138.814 855.591 41.0204
v 141.166 853.167 41.1881
v 105.427 819.394 41.0203
v 103.075 821.818 41.1882
v 103.075 821.818 36.9934
v 105.369 819.455 36.9095
v 138.872 855.53 36.9095
v 141.166 853.167 36.9934
v 141.761 858.376 36.9934
v 141.881 858.374 36.9934
v 100.127 819.033 36.9934
v 100.186 818.972 36.9095
v 144.114 855.953 36.9934
v 144.055 856.013 36.9095
v 102.48 816.609 36.9934
v 102.36 816.612 36.9934
v 141.761 858.376 41.1882
v 141.881 858.374 41.1882
v 141.881 858.374 41.0204
v 100.125 818.914 41.1882
v 100.127 819.033 41.1882
v 100.127 819.033 41.0204
v 102.48 816.609 41.1882
v 102.36 816.612 41.1882
v 102.36 816.612 41.0204
v 144.116 856.071 41.1882
v 144.114 855.953 41.1882
v 144.114 855.953 41.0204
v 138.691 855.475 41.0204
v 138.75 855.414 41.1042
v 138.811 855.472 41.1881
v 138.814 855.591 41.1881
v 141.046 853.17 41.1881
v 140.984 853.112 41.1042
v 141.043 853.051 41.0204
v 141.166 853.167 41.0204
v 105.55 819.51 41.0203
v 105.491 819.571 41.1042
v 105.43 819.513 41.1882
v 105.427 819.394 41.1882
v 103.195 821.815 41.1882
v 103.256 821.873 41.1042
v 103.198 821.934 41.0203
v 103.075 821.818 41.0203
v 103.198 821.934 36.9934
v 103.256 821.873 36.9095
v 103.134 821.757 36.9095
v 105.491 819.571 36.9095
v 105.55 819.51 36.9934
v 105.427 819.394 36.9934
v 138.75 855.414 36.9095
v 138.691 855.475 36.9934
v 138.814 855.591 36.9934
v 141.043 853.051 36.9934
v 140.984 853.112 36.9095
v 141.107 853.228 36.9095
v 141.82 858.316 190.437
v 100.125 818.914 190.353
v 144.116 856.071 190.353
v 102.421 816.67 190.437
v 141.761 858.376 186.326
v 100.125 818.914 186.326
v 102.48 816.609 186.326
v 144.116 856.071 186.326
v 138.814 855.591 186.326
v 141.166 853.167 186.158
v 105.427 819.394 186.326
v 103.075 821.818 186.158
v 103.075 821.818 190.353
v 105.369 819.455 190.437
v 138.872 855.53 190.437
v 141.166 853.167 190.353
v 141.761 858.376 190.353
v 141.881 858.374 190.353
v 100.127 819.033 190.353
v 100.186 818.972 190.437
v 144.114 855.953 190.353
v 144.055 856.013 190.437
v 102.48 816.609 190.353
v 102.36 816.612 190.353
v 141.761 858.376 186.158
v 141.881 858.374 186.158
v 141.881 858.374 186.326
v 100.125 818.914 186.158
v 100.127 819.033 186.158
v 100.127 819.033 186.326
v 102.48 816.609 186.158
v 102.36 816.612 186.158
v 102.36 816.612 186.326
v 144.116 856.071 186.158
v 144.114 855.953 186.158
v 144.114 855.953 186.326
v 138.691 855.475 186.326
v 138.75 855.414 186.242
v 138.811 855.472 186.158
v 138.814 855.591 186.158
v 141.046 853.17 186.158
v 140.984 853.112 186.242
v 141.043 853.051 186.326
v 141.166 853.167 186.326
v 105.55 819.51 186.326
v 105.491 819.571 186.242
v 105.43 819.513 186.158
v 105.427 819.394 186.158
v 103.195 821.815 186.158
v 103.256 821.873 186.242
v 103.198 821.934 186.326
v 103.075 821.818 186.326
v 103.198 821.934 190.353
v 103.256 821.873 190.437
v 103.134 821.757 190.437
v 105.491 819.571 190.437
v 105.55 819.51 190.353
v 105.427 819.394 190.353
v 138.75 855.414 190.437
v 138.691 855.475 190.353
v 138.814 855.591 190.353
v 141.043 853.051 190.353
v 140.984 853.112 190.437
v 141.107 853.228 190.437
vn -8.5502e-007 -9.77901e-007 -1
vn -1.73987e-006 -1.83681e-006 -1
vn -1.73987e-006 -1.83681e-006 -1
vn 0.717547 0.69651 -6.08908e-008
vn -0.686834 0.726815 -9.89054e-008
vn -0.686834 0.726815 -9.93262e-008
vn -0.686834 0.726814 -7.77436e-008
vn -0.686834 0.726815 -5.12922e-008
vn 0.686834 -0.726815 1.07531e-007
vn -0.717547 -0.69651 6.08908e-008
vn -2.98318e-008 1.18991e-007 1
vn 2.98318e-008 -1.18991e-007 -1
vn -0.686834 0.726815 -1.14777e-007
vn -0.686834 0.726815 -6.71637e-008
vn -0.686834 0.726815 -8.30335e-008
vn -0.686834 0.726815 -1.14777e-007
vn -0.686834 0.726815 -1.1394e-007
vn -0.686834 0.726815 -1.14777e-007
vn -0.686834 0.726814 -9.93218e-008
vn -0.686834 0.726815 -8.30342e-008
vn 1.79953e-006 1.59883e-006 -1
vn 9.14683e-007 7.39918e-007 -1
vn 9.14683e-007 7.39918e-007 -1
vn 0.0173743 0.816288 -0.577384
vn -0.812607 0.0177804 -0.582541
vn 0.812607 -0.017781 -0.58254
vn -0.0173738 -0.816288 -0.577383
vn 0.0212797 0.999774 -5.64945e-008
vn 0.0212797 0.999774 -3.59966e-008
vn -0.999761 0.0218756 5.01873e-008
vn -0.999761 0.0218756 2.94124e-008
vn -0.0212791 -0.999774 1.18312e-007
vn 0.999761 -0.0218762 3.32385e-008
vn -0.484098 0.512277 0.709381
vn -0.840111 0.448944 0.304407
vn -0.999761 0.0218755 4.82404e-008
vn -0.017374 -0.816296 0.577372
vn -0.0173799 -0.81629 0.577381
vn 0.484127 -0.512308 0.709339
vn 0.840132 -0.44894 0.304354
vn 0.999761 -0.0218611 3.32367e-008
vn 0.0173756 0.816353 0.577292
vn 0.0173991 0.816328 0.577326
vn -0.686834 0.726815 -1.95465e-008
vn -0.484127 0.512308 -0.709339
vn -0.484127 0.512308 -0.709339
vn 0.484098 -0.512277 -0.709381
vn -0.484127 0.512308 -0.709339
vn -0.484127 0.512308 -0.709339
vn 0.484127 -0.512308 -0.709339
vn 0.484127 -0.512308 -0.709339
vn -0.484096 0.512278 -0.709382
vn -0.484127 0.512308 -0.709339
vn -0.999761 0.0218756 -3.84528e-008
vn -0.999761 0.0218756 -3.83981e-008
vn 0.484097 -0.512279 -0.709381
vn -0.505593 -0.49077 -0.709591
vn 0.505594 0.49077 -0.709591
vn 0.0212797 0.999774 -1.01162e-007
vn 0.0212797 0.999774 -1.011e-007
vn -0.686834 0.726815 -7.69129e-008
vn -0.686834 0.726815 -7.69057e-008
vn 0.686834 -0.726815 1.20549e-007
vn -0.484098 0.512277 0.709381
vn -0.484127 0.512308 0.709339
vn 0.686834 -0.726815 1.20549e-007
vn 0.686834 -0.726815 1.20549e-007
vn 0.484127 -0.512308 0.709339
vn 0.484098 -0.512277 0.709381
vn -0.686834 0.726815 -7.68427e-008
vn -0.686834 0.726815 -7.68467e-008
vn -0.505601 -0.490778 0.709581
vn 0.505662 0.490837 0.709497
vn 0.505654 0.49083 0.709507
vn -0.484128 0.512307 -0.709339
vn -0.484098 0.512277 -0.709381
vn 0.484127 -0.512308 -0.709339
vn -0.484127 0.512308 -0.709339
vn -0.484127 0.512308 -0.709339
vn 0.484128 -0.512307 -0.709339
vn -1.35711e-006 -1.16937e-006 1
vn -2.68439e-006 -2.45774e-006 1
vn -2.68439e-006 -2.45774e-006 1
vn -1.35711e-006 -1.16937e-006 1
vn -0.686834 0.726815 -1.07531e-007
vn 0.686834 -0.726815 1.20549e-007
vn 0.686834 -0.726815 1.20549e-007
vn -0.686834 0.726815 -1.20738e-007
vn -0.686834 0.726815 -1.20736e-007
vn 1.03314e-007 -4.76629e-008 -1
vn 6.90952e-009 1.54655e-007 1
vn 1.73987e-006 1.83681e-006 1
vn 8.5502e-007 9.779e-007 1
vn 8.5502e-007 9.779e-007 1
vn 1.73987e-006 1.83681e-006 1
vn 0.0173743 0.816288 0.577384
vn -0.812607 0.0177805 0.582541
vn 0.812607 -0.0177808 0.582541
vn -0.0173738 -0.816288 0.577384
vn 0.0212797 0.999774 -1.18312e-007
vn -0.999761 0.0218755 -3.32384e-008
vn -0.999761 0.0218755 -3.32384e-008
vn -0.84011 0.448945 -0.304407
vn -0.484098 0.512277 -0.709381
vn -0.0173799 -0.81629 -0.577381
vn -0.017374 -0.816296 -0.577372
vn 0.999761 -0.021861 3.32367e-008
vn 0.84013 -0.448946 -0.304348
vn 0.484141 -0.512323 -0.709318
vn 0.0173874 0.81634 -0.577309
vn 0.0173756 0.816353 -0.577292
vn -0.484141 0.512323 0.709318
vn -0.484112 0.512293 0.70936
vn -0.484112 0.512293 0.70936
vn 0.484112 -0.512293 0.70936
vn 0.484112 -0.512293 0.70936
vn -0.484112 0.512293 0.70936
vn -0.484096 0.512278 0.709381
vn -0.999761 0.0218755 -3.32384e-008
vn 0.484096 -0.512279 0.709381
vn -0.505594 -0.49077 0.709591
vn 0.505593 0.49077 0.709591
vn 0.0212797 0.999774 -1.18312e-007
vn -0.999761 0.0218755 -5.21646e-008
vn -0.999761 0.0218755 -5.21885e-008
vn 0.999761 -0.0218762 5.17784e-008
vn -0.686834 0.726815 -1.20569e-007
vn -0.686834 0.726815 -1.20563e-007
vn 0.686834 -0.726815 1.20549e-007
vn -0.484141 0.512323 -0.709318
vn -0.484098 0.512277 -0.709381
vn -0.0212791 -0.999774 1.36605e-007
vn 0.484098 -0.512277 -0.709381
vn 0.484141 -0.512324 -0.709318
vn 0.0212797 0.999774 -1.36869e-007
vn 0.0212797 0.999774 -1.36891e-007
vn -0.505601 -0.490778 -0.709581
vn 0.505654 0.49083 -0.709507
vn 0.505662 0.490837 -0.709497
vn -0.484098 0.512277 0.709381
vn -0.484143 0.512321 0.709318
vn 0.484113 -0.512293 0.70936
vn 0.484098 -0.512277 0.709381
vn -0.484141 0.512323 0.709318
vn -0.484112 0.512293 0.70936
vn 0.484098 -0.512277 0.709381
vn 0.484114 -0.512291 0.70936
vn 0.717547 0.69651 -6.08909e-008
vn 0.717547 0.69651 -6.08909e-008
vn 0.717547 0.69651 -6.08909e-008
vn 0.717547 0.69651 -6.08909e-008
vn 0.0212797 0.999774 -1.37103e-007
vn 0.0212797 0.999774 -1.37129e-007
vn -0.0212791 -0.999774 1.36605e-007
vn -0.999761 0.0218755 -5.17301e-008
vn -0.999761 0.0218756 -5.17986e-008
vn 0.999761 -0.021861 5.17764e-008
vt 0.998214 0.999609
vt 0.00178571 0.999609
vt 0.00178572 0.999609
vt 0.998214 0.999609
vt 0.999609 0.025
vt 0.999609 0.975
vt 0.00142857 0.025
vt 0.998571 0.025
vt 0.00142857 0.975
vt 0.998571 0.975
vt 0.000390625 0.025
vt 0.000390625 0.975
vt 0.998214 0.969141
vt 0.0316678 0.025
vt 0.00178571 0.968332
vt 0.969141 0.025
vt 0.998214 0.969141
vt 0.968332 0.975
vt 0.00178572 0.968332
vt 0.0308593 0.975
vt 0.858929 0.969141
vt 0.141071 0.968332
vt 0.858928 0.969141
vt 0.141072 0.968332
vt 0.857143 0.968332
vt 0.857143 0.968332
vt 0.14418 0.96875
vt 0.85582 0.96875
vt 0.113215 0.999609
vt 0.115715 0.025
vt 0.883928 0.999609
vt 0.112857 0.975
vt 0.883929 0.999609
vt 0.887143 0.025
vt 0.113214 0.999609
vt 0.884286 0.975
vt 0.998214 0.968332
vt 0.0308593 0.025
vt 0.968332 0.025
vt 0.00178571 0.969141
vt 0.998214 0.968332
vt 0.969141 0.975
vt 0.0316678 0.975
vt 0.00178572 0.969141
vt 0.856072 0.969141
vt 0.85582 0.96875
vt 0.857143 0.968332
vt 0.858929 0.968332
vt 0.143823 0.969141
vt 0.141071 0.969141
vt 0.856071 0.969141
vt 0.857143 0.968332
vt 0.858928 0.968332
vt 0.14418 0.96875
vt 0.143823 0.969141
vt 0.141072 0.969141
vt 0.115966 0.999609
vt 0.112857 0.025
vt 0.115715 0.975
vt 0.886786 0.999609
vt 0.884286 0.025
vt 0.886786 0.999609
vt 0.115965 0.999609
vt 0.887143 0.975
vt 0.998214 0.999609
vt 0.00178571 0.999609
vt 0.00178572 0.999609
vt 0.998214 0.999609
vt 0.999609 0.025
vt 0.999609 0.975
vt 0.00142857 0.025
vt 0.998571 0.025
vt 0.00142857 0.975
vt 0.998571 0.975
vt 0.000390625 0.025
vt 0.000390625 0.975
vt 0.998214 0.969141
vt 0.0316678 0.025
vt 0.00178571 0.968332
vt 0.969141 0.025
vt 0.998214 0.969141
vt 0.968332 0.975
vt 0.00178572 0.968332
vt 0.0308593 0.975
vt 0.858929 0.969141
vt 0.141071 0.968332
vt 0.858928 0.969141
vt 0.141072 0.968332
vt 0.857143 0.968332
vt 0.857143 0.968332
vt 0.14418 0.96875
vt 0.85582 0.96875
vt 0.113215 0.999609
vt 0.115715 0.025
vt 0.883928 0.999609
vt 0.112857 0.975
vt 0.883929 0.999609
vt 0.887143 0.025
vt 0.113214 0.999609
vt 0.884286 0.975
vt 0.998214 0.968332
vt 0.0308593 0.025
vt 0.968332 0.025
vt 0.00178571 0.969141
vt 0.998214 0.968332
vt 0.969141 0.975
vt 0.0316678 0.975
vt 0.00178572 0.969141
vt 0.856072 0.969141
vt 0.85582 0.96875
vt 0.857143 0.968332
vt 0.858929 0.968332
vt 0.143823 0.969141
vt 0.141071 0.969141
vt 0.856071 0.969141
vt 0.857143 0.968332
vt 0.858928 0.968332
vt 0.14418 0.96875
vt 0.143823 0.969141
vt 0.141072 0.969141
vt 0.115966 0.999609
vt 0.112857 0.025
vt 0.115715 0.975
vt 0.886786 0.999609
vt 0.884286 0.025
vt 0.886786 0.999609
vt 0.115965 0.999609
vt 0.887143 0.975
f 55/58/1 14/32/1 4/9/2
f 4/9/2 20/7/3 55/58/1
f 27/38/4 8/20/4 3/12/4
f 3/12/4 18/11/4 27/38/4
f 17/1/5 61/62/6 9/21/7
f 9/21/7 5/13/8 17/1/5
f 23/4/9 58/60/9 11/23/9
f 11/23/9 7/17/9 23/4/9
f 2/5/10 24/6/10 33/42/10
f 33/42/10 6/16/10 2/5/10
f 42/28/11 38/46/11 50/54/11
f 50/54/11 46/27/11 42/28/11
f 59/61/12 63/36/12 56/59/12
f 56/59/12 54/30/12 59/61/12
f 19/2/13 30/40/14 52/56/15
f 52/56/15 13/29/16 19/2/13
f 62/63/9 43/49/9 45/51/9
f 45/51/9 57/31/9 62/63/9
f 53/57/17 51/55/18 37/45/19
f 37/45/19 60/33/20 53/57/17
f 1/8/21 22/10/21 64/64/22
f 64/64/22 15/34/23 1/8/21
f 21/3/9 36/44/9 44/50/9
f 44/50/9 16/35/9 21/3/9
f 1/8/24 17/1/24 18/11/24
f 2/5/25 19/2/25 20/7/25
f 3/12/26 21/3/26 22/10/26
f 4/9/27 23/4/27 24/6/27
f 5/13/28 25/37/28 26/14/28
f 26/14/29 27/38/29 5/13/29
f 6/16/30 28/39/30 29/15/30
f 29/15/31 30/40/31 6/16/31
f 7/17/32 31/41/32 32/18/32
f 32/18/32 33/42/32 7/17/32
f 8/20/33 34/43/33 35/19/33
f 35/19/33 36/44/33 8/20/33
f 9/21/34 37/45/34 38/46/34
f 9/21/35 38/46/35 39/47/35
f 9/21/36 39/47/36 40/48/36
f 10/22/37 41/25/37 42/28/37
f 10/22/38 42/28/38 43/49/38
f 10/22/9 43/49/9 44/50/9
f 11/23/39 45/51/39 46/27/39
f 11/23/40 46/27/40 47/52/40
f 11/23/41 47/52/41 48/53/41
f 12/24/42 49/26/42 50/54/42
f 12/24/43 50/54/43 51/55/43
f 12/24/44 51/55/44 52/56/44
f 13/29/45 53/57/45 54/30/45
f 54/30/46 55/58/46 13/29/46
f 14/32/47 56/59/47 57/31/47
f 57/31/47 58/60/47 14/32/47
f 15/34/48 59/61/48 60/33/48
f 60/33/49 61/62/49 15/34/49
f 16/35/50 62/63/50 63/36/50
f 63/36/51 64/64/51 16/35/51
f 17/1/52 1/8/52 15/34/52
f 15/34/53 61/62/53 17/1/53
f 19/2/54 2/5/54 6/16/54
f 6/16/55 30/40/55 19/2/55
f 23/4/56 4/9/56 14/32/56
f 14/32/56 58/60/56 23/4/56
f 21/3/33 3/12/33 8/20/33
f 8/20/33 36/44/33 21/3/33
f 2/5/57 20/7/57 4/9/57
f 4/9/57 24/6/57 2/5/57
f 1/8/58 18/11/58 3/12/58
f 3/12/58 22/10/58 1/8/58
f 5/13/59 27/38/59 18/11/59
f 18/11/60 17/1/60 5/13/60
f 7/17/32 33/42/32 24/6/32
f 24/6/32 23/4/32 7/17/32
f 25/37/61 5/13/8 9/21/7
f 9/21/7 40/48/62 25/37/61
f 31/41/63 7/17/9 11/23/9
f 11/23/9 48/53/63 31/41/63
f 28/39/10 6/16/10 33/42/10
f 33/42/10 32/18/10 28/39/10
f 27/38/4 26/14/4 34/43/4
f 34/43/4 8/20/4 27/38/4
f 38/46/64 37/45/64 51/55/64
f 51/55/65 50/54/65 38/46/65
f 10/22/66 44/50/9 36/44/9
f 36/44/9 35/19/67 10/22/66
f 46/27/68 45/51/68 43/49/68
f 43/49/69 42/28/69 46/27/69
f 12/24/70 52/56/15 30/40/14
f 30/40/14 29/15/71 12/24/70
f 39/47/72 38/46/72 42/28/72
f 42/28/72 41/25/72 39/47/72
f 47/52/73 46/27/73 50/54/73
f 50/54/74 49/26/74 47/52/74
f 13/29/75 55/58/75 20/7/75
f 20/7/76 19/2/76 13/29/76
f 57/31/47 56/59/47 63/36/47
f 63/36/77 62/63/77 57/31/77
f 55/58/1 54/30/12 56/59/12
f 56/59/12 14/32/1 55/58/1
f 53/57/17 13/29/16 52/56/15
f 52/56/15 51/55/18 53/57/17
f 58/60/9 57/31/9 45/51/9
f 45/51/9 11/23/9 58/60/9
f 60/33/78 59/61/78 54/30/78
f 54/30/79 53/57/79 60/33/79
f 16/35/80 64/64/80 22/10/80
f 22/10/47 21/3/47 16/35/47
f 61/62/6 60/33/20 37/45/19
f 37/45/19 9/21/7 61/62/6
f 59/61/12 15/34/23 64/64/22
f 64/64/22 63/36/12 59/61/12
f 62/63/9 16/35/9 44/50/9
f 44/50/9 43/49/9 62/63/9
f 119/122/81 84/71/82 68/73/83
f 68/73/83 78/96/84 119/122/81
f 91/102/4 82/75/4 67/76/4
f 67/76/4 72/84/4 91/102/4
f 81/65/85 69/77/85 73/85/85
f 73/85/85 125/126/85 81/65/85
f 87/68/9 71/81/9 75/87/9
f 75/87/9 122/124/9 87/68/9
f 66/69/10 70/80/10 97/106/10
f 97/106/10 88/70/10 66/69/10
f 98/107/4 34/43/4 26/14/4
f 26/14/4 90/78/4 98/107/4
f 10/22/66 35/19/67 99/83/86
f 99/83/86 74/86/87 10/22/66
f 12/24/70 29/15/71 93/79/88
f 93/79/88 76/88/89 12/24/70
f 103/111/10 39/47/10 41/25/10
f 41/25/10 105/89/10 103/111/10
f 106/92/90 110/91/90 114/118/90
f 114/118/90 102/110/90 106/92/90
f 123/125/91 118/94/91 120/123/91
f 120/123/91 127/100/91 123/125/91
f 83/66/85 77/93/85 116/120/85
f 116/120/85 94/104/85 83/66/85
f 126/127/9 121/95/9 109/115/9
f 109/115/9 107/113/9 126/127/9
f 117/121/85 124/97/85 101/109/85
f 101/109/85 115/119/85 117/121/85
f 65/72/92 79/98/93 128/128/94
f 128/128/94 86/74/95 65/72/92
f 85/67/9 80/99/9 108/114/9
f 108/114/9 100/108/9 85/67/9
f 65/72/96 82/75/96 81/65/96
f 66/69/97 84/71/97 83/66/97
f 67/76/98 86/74/98 85/67/98
f 68/73/99 88/70/99 87/68/99
f 69/77/100 91/102/100 90/78/100
f 90/78/100 89/101/100 69/77/100
f 70/80/101 94/104/101 93/79/101
f 93/79/101 92/103/101 70/80/101
f 71/81/32 97/106/32 96/82/32
f 96/82/32 95/105/32 71/81/32
f 72/84/33 100/108/33 99/83/33
f 99/83/33 98/107/33 72/84/33
f 73/85/102 104/112/102 103/111/102
f 73/85/103 103/111/103 102/110/103
f 73/85/104 102/110/104 101/109/104
f 74/86/9 108/114/9 107/113/9
f 74/86/105 107/113/105 106/92/105
f 74/86/106 106/92/106 105/89/106
f 75/87/107 112/117/107 111/116/107
f 75/87/108 111/116/108 110/91/108
f 75/87/109 110/91/109 109/115/109
f 76/88/85 116/120/85 115/119/85
f 76/88/110 115/119/110 114/118/110
f 76/88/111 114/118/111 113/90/111
f 77/93/112 119/122/112 118/94/112
f 118/94/112 117/121/112 77/93/112
f 78/96/69 122/124/69 121/95/69
f 121/95/69 120/123/69 78/96/69
f 79/98/113 125/126/113 124/97/113
f 124/97/114 123/125/114 79/98/114
f 80/99/115 128/128/115 127/100/115
f 127/100/116 126/127/116 80/99/116
f 81/65/117 125/126/117 79/98/117
f 79/98/118 65/72/118 81/65/118
f 83/66/119 94/104/119 70/80/119
f 70/80/119 66/69/119 83/66/119
f 87/68/120 122/124/120 78/96/120
f 78/96/120 68/73/120 87/68/120
f 85/67/33 100/108/33 72/84/33
f 72/84/33 67/76/33 85/67/33
f 66/69/121 88/70/121 68/73/121
f 68/73/121 84/71/121 66/69/121
f 65/72/122 86/74/122 67/76/122
f 67/76/122 82/75/122 65/72/122
f 69/77/123 81/65/123 82/75/123
f 82/75/123 91/102/123 69/77/123
f 29/15/124 28/39/124 92/103/124
f 92/103/125 93/79/125 29/15/125
f 71/81/32 87/68/32 88/70/32
f 88/70/32 97/106/32 71/81/32
f 35/19/126 34/43/126 98/107/126
f 98/107/126 99/83/126 35/19/126
f 89/101/127 104/112/128 73/85/85
f 73/85/85 69/77/85 89/101/127
f 95/105/129 112/117/63 75/87/9
f 75/87/9 71/81/9 95/105/129
f 92/103/10 96/82/10 97/106/10
f 97/106/10 70/80/10 92/103/10
f 91/102/4 72/84/4 98/107/4
f 98/107/4 90/78/4 91/102/4
f 102/110/130 114/118/130 115/119/130
f 115/119/131 101/109/131 102/110/131
f 74/86/87 99/83/86 100/108/9
f 100/108/9 108/114/9 74/86/87
f 41/25/132 10/22/132 74/86/132
f 74/86/132 105/89/132 41/25/132
f 110/91/133 106/92/133 107/113/133
f 107/113/134 109/115/134 110/91/134
f 76/88/89 93/79/88 94/104/85
f 94/104/85 116/120/85 76/88/89
f 49/26/135 12/24/135 76/88/135
f 76/88/136 113/90/136 49/26/136
f 103/111/137 105/89/137 106/92/137
f 106/92/137 102/110/137 103/111/137
f 111/116/138 113/90/138 114/118/138
f 114/118/139 110/91/139 111/116/139
f 77/93/140 83/66/140 84/71/140
f 84/71/141 119/122/141 77/93/141
f 121/95/142 126/127/142 127/100/142
f 127/100/143 120/123/143 121/95/143
f 119/122/81 78/96/84 120/123/91
f 120/123/91 118/94/91 119/122/81
f 117/121/85 115/119/85 116/120/85
f 116/120/85 77/93/85 117/121/85
f 122/124/9 75/87/9 109/115/9
f 109/115/9 121/95/9 122/124/9
f 124/97/144 117/121/144 118/94/144
f 118/94/145 123/125/145 124/97/145
f 80/99/146 85/67/146 86/74/146
f 86/74/147 128/128/147 80/99/147
f 125/126/85 73/85/85 101/109/85
f 101/109/85 124/97/85 125/126/85
f 123/125/91 127/100/91 128/128/94
f 128/128/94 79/98/93 123/125/91
f 126/127/9 107/113/9 108/114/9
f 108/114/9 80/99/9 126/127/9
f 40/48/62 104/112/128 89/101/127
f 89/101/127 25/37/61 40/48/62
f 48/53/63 112/117/63 95/105/129
f 95/105/129 31/41/63 48/53/63
f 32/18/10 96/82/10 92/103/10
f 92/103/10 28/39/10 32/18/10
f 49/26/148 113/90/149 111/116/150
f 111/116/150 47/52/151 49/26/148
f 25/37/152 89/101/152 90/78/152
f 90/78/153 26/14/153 25/37/153
f 31/41/154 95/105/154 96/82/154
f 96/82/154 32/18/154 31/41/154
f 39/47/155 103/111/155 104/112/155
f 104/112/156 40/48/156 39/47/156
f 47/52/157 111/116/157 112/117/157
f 112/117/157 48/53/157 47/52/157
