v 588.786 816.647 6
v 588.786 810.647 6
v 594.786 810.647 4.76837e-007
v 594.786 816.647 -4.76837e-007
v 594.786 816.647 -4.76837e-007
v 594.786 810.647 4.76837e-007
v 594.786 810.647 250
v 594.786 816.647 250
v 594.786 816.647 250
v 594.786 810.647 250
v 588.786 810.647 244
v 588.786 816.647 244
v 588.786 816.647 244
v 588.786 810.647 244
v 588.786 810.647 6
v 588.786 816.647 6
v 594.786 810.647 250
v 594.786 810.647 4.76837e-007
v 588.786 810.647 6
v 588.786 810.647 244
v 588.786 816.647 6
v 594.786 816.647 -4.76837e-007
v 594.786 816.647 250
v 588.786 816.647 244
v 340.786 816.647 6
v 340.786 810.647 6
v 334.786 810.647 4.76837e-007
v 334.786 816.647 -4.76837e-007
v 334.786 816.647 -4.76837e-007
v 334.786 810.647 4.76837e-007
v 594.786 810.647 4.76837e-007
v 594.786 816.647 -4.76837e-007
v 594.786 816.647 -4.76837e-007
v 594.786 810.647 4.76837e-007
v 588.786 810.647 6
v 588.786 816.647 6
v 588.786 816.647 6
v 588.786 810.647 6
v 340.786 810.647 6
v 340.786 816.647 6
v 594.786 810.647 4.76837e-007
v 334.786 810.647 4.76837e-007
v 340.786 810.647 6
v 588.786 810.647 6
v 340.786 816.647 6
v 334.786 816.647 -4.76837e-007
v 594.786 816.647 -4.76837e-007
v 588.786 816.647 6
v 340.786 816.647 244
v 340.786 810.647 244
v 334.786 810.647 250
v 334.786 816.647 250
v 334.786 816.647 250
v 334.786 810.647 250
v 334.786 810.647 4.76837e-007
v 334.786 816.647 -4.76837e-007
v 334.786 816.647 -4.76837e-007
v 334.786 810.647 4.76837e-007
v 340.786 810.647 6
v 340.786 816.647 6
v 340.786 816.647 6
v 340.786 810.647 6
v 340.786 810.647 244
v 340.786 816.647 244
v 334.786 810.647 4.76837e-007
v 334.786 810.647 250
v 340.786 810.647 244
v 340.786 810.647 6
v 340.786 816.647 244
v 334.786 816.647 250
v 334.786 816.647 -4.76837e-007
v 340.786 816.647 6
v 588.786 816.647 244
v 588.786 810.647 244
v 594.786 810.647 250
v 594.786 816.647 250
v 594.786 816.647 250
v 594.786 810.647 250
v 334.786 810.647 250
v 334.786 816.647 250
v 334.786 816.647 250
v 334.786 810.647 250
v 340.786 810.647 244
v 340.786 816.647 244
v 340.786 816.647 244
v 340.786 810.647 244
v 588.786 810.647 244
v 588.786 816.647 244
v 334.786 810.647 250
v 594.786 810.647 250
v 588.786 810.647 244
v 340.786 810.647 244
v 588.786 816.647 244
v 594.786 816.647 250
v 334.786 816.647 250
v 340.786 816.647 244
v 517.786 816.647 6
v 517.786 810.647 6
v 517.786 810.647 244
v 517.786 816.647 244
v 517.786 816.647 244
v 517.786 810.647 244
v 511.786 810.647 244
v 511.786 816.647 244
v 511.786 816.647 244
v 511.786 810.647 244
v 511.786 810.647 6
v 511.786 816.647 6
v 511.786 816.647 6
v 511.786 810.647 6
v 517.786 810.647 6
v 517.786 816.647 6
v 517.786 816.647 244
v 511.786 816.647 244
v 511.786 816.647 6
v 517.786 816.647 6
v 517.786 810.647 244
v 517.786 810.647 6
v 511.786 810.647 6
v 511.786 810.647 244
v 417.786 816.647 6
v 417.786 810.647 6
v 417.786 810.647 244
v 417.786 816.647 244
v 417.786 816.647 244
v 417.786 810.647 244
v 411.786 810.647 244
v 411.786 816.647 244
v 411.786 816.647 244
v 411.786 810.647 244
v 411.786 810.647 6
v 411.786 816.647 6
v 411.786 816.647 6
v 411.786 810.647 6
v 417.786 810.647 6
v 417.786 816.647 6
v 417.786 816.647 244
v 411.786 816.647 244
v 411.786 816.647 6
v 417.786 816.647 6
v 417.786 810.647 244
v 417.786 810.647 6
v 411.786 810.647 6
v 411.786 810.647 244
v 422.786 808.647 239
v 422.786 818.647 239
v 422.786 818.647 11
v 422.786 808.647 11
v 506.786 808.647 239
v 506.786 818.647 239
v 422.786 818.647 239
v 422.786 808.647 239
v 422.786 808.647 11
v 422.786 818.647 11
v 506.786 818.647 11
v 506.786 808.647 11
v 506.786 808.647 11
v 506.786 818.647 11
v 506.786 818.647 239
v 506.786 808.647 239
v 417.786 808.647 244
v 422.786 808.647 244
v 422.786 808.647 239
v 422.786 808.647 11
v 417.786 808.647 6
v 417.786 808.647 244
v 422.786 808.647 239
v 506.786 808.647 11
v 511.786 808.647 6
v 417.786 808.647 6
v 422.786 808.647 11
v 506.786 808.647 239
v 511.786 808.647 244
v 511.786 808.647 6
v 506.786 808.647 11
v 422.786 808.647 244
v 511.786 808.647 244
v 506.786 808.647 239
v 422.786 808.647 239
v 422.786 818.647 239
v 417.786 818.647 244
v 417.786 818.647 11
v 422.786 818.647 11
v 506.786 818.647 239
v 511.786 818.647 244
v 417.786 818.647 244
v 422.786 818.647 239
v 506.786 818.647 11
v 511.786 818.647 6
v 511.786 818.647 244
v 506.786 818.647 239
v 511.786 818.647 6
v 506.786 818.647 11
v 422.786 818.647 11
v 417.786 818.647 6
v 511.786 818.647 6
v 422.786 818.647 11
v 417.786 818.647 11
v 511.786 818.647 6
v 511.786 808.647 6
v 511.786 808.647 244
v 511.786 818.647 244
v 422.786 808.647 244
v 417.786 818.647 244
v 511.786 818.647 244
v 511.786 808.647 244
v 417.786 818.647 244
v 422.786 808.647 244
v 417.786 808.647 244
v 417.786 808.647 6
v 417.786 818.647 6
v 417.786 818.647 11
v 417.786 808.647 244
v 417.786 808.647 6
v 417.786 818.647 11
v 417.786 818.647 244
v 417.786 818.647 6
v 417.786 808.647 6
v 511.786 808.647 6
v 511.786 818.647 6
v 425.786 812.147 236
v 425.786 815.147 236
v 425.786 815.147 14
v 425.786 812.147 14
v 503.786 812.147 236
v 503.786 815.147 236
v 425.786 815.147 236
v 425.786 812.147 236
v 425.786 812.147 14
v 425.786 815.147 14
v 503.786 815.147 14
v 503.786 812.147 14
v 503.786 812.147 14
v 503.786 815.147 14
v 503.786 815.147 236
v 503.786 812.147 236
v 422.786 812.147 239
v 425.786 812.147 239
v 425.786 812.147 236
v 425.786 812.147 14
v 422.786 812.147 11
v 422.786 812.147 239
v 425.786 812.147 236
v 503.786 812.147 14
v 506.786 812.147 11
v 422.786 812.147 11
v 425.786 812.147 14
v 503.786 812.147 236
v 506.786 812.147 239
v 506.786 812.147 11
v 503.786 812.147 14
v 425.786 812.147 239
v 506.786 812.147 239
v 503.786 812.147 236
v 425.786 812.147 236
v 425.786 815.147 236
v 422.786 815.147 239
v 422.786 815.147 14
v 425.786 815.147 14
v 503.786 815.147 236
v 506.786 815.147 239
v 422.786 815.147 239
v 425.786 815.147 236
v 503.786 815.147 14
v 506.786 815.147 11
v 506.786 815.147 239
v 503.786 815.147 236
v 506.786 815.147 11
v 503.786 815.147 14
v 425.786 815.147 14
v 422.786 815.147 11
v 506.786 815.147 11
v 425.786 815.147 14
v 422.786 815.147 14
v 506.786 815.147 11
v 506.786 812.147 11
v 506.786 812.147 239
v 506.786 815.147 239
v 425.786 812.147 239
v 422.786 815.147 239
v 506.786 815.147 239
v 506.786 812.147 239
v 422.786 815.147 239
v 425.786 812.147 239
v 422.786 812.147 239
v 422.786 812.147 11
v 422.786 815.147 11
v 422.786 815.147 14
v 422.786 812.147 239
v 422.786 812.147 11
v 422.786 815.147 14
v 422.786 815.147 239
v 422.786 815.147 11
v 422.786 812.147 11
v 506.786 812.147 11
v 506.786 815.147 11
vn -0.707107 -1.0677e-007 -0.707107
vn 1 0 0
vn -0.707107 1.0677e-007 0.707107
vn -1 0 0
vn 0 -1 1.50996e-007
vn -0 1 -1.50996e-007
vn 0 -1.50996e-007 -1
vn 0.707107 1.0677e-007 0.707107
vn -0 1.50996e-007 1
vn 0.707107 -1.0677e-007 -0.707107
vt 3.94957 0.799706
vt 3.94957 0.200312
vt 3.998 0.200312
vt 3.998 0.799706
vt 0.801175 0.000499547
vt 3.19875 0.000499547
vt 3.19875 0.999501
vt 0.801175 0.999501
vt 0.00199807 0.799706
vt 0.00199807 0.200312
vt 0.0504345 0.200312
vt 0.0504345 0.799706
vt 3.19882 0.975524
vt 0.801247 0.975524
vt 0.801247 0.0244756
vt 3.19882 0.0244756
vt 0.00199807 0.999501
vt 0.00199807 0.000499547
vt 0.0504345 0.0244756
vt 0.0504345 0.975524
vt 3.94957 0.0244756
vt 3.998 0.000499547
vt 3.998 0.999501
vt 3.94957 0.975524
vt 2.05247 0.7997
vt 2.05247 0.200306
vt 2.10091 0.200306
vt 2.10091 0.7997
vt 1.89909 0.7997
vt 1.89909 0.200306
vt 3.998 0.200312
vt 3.998 0.799706
vt 0.00199807 0.799706
vt 0.00199807 0.200312
vt 0.0504345 0.200312
vt 0.0504345 0.799706
vt 0.0504345 0.799706
vt 0.0504345 0.200312
vt 2.05247 0.200306
vt 2.05247 0.7997
vt 0.00199807 0.000499547
vt 2.10091 0.000499547
vt 2.05247 0.0244756
vt 0.0504345 0.0244756
vt 1.94753 0.0244756
vt 1.89909 0.000499547
vt 3.998 0.000499547
vt 3.94957 0.0244756
vt 2.05247 0.7997
vt 2.05247 0.200306
vt 2.10091 0.200306
vt 2.10091 0.7997
vt 3.1988 0.999501
vt 0.801223 0.999501
vt 0.801223 0.000499547
vt 3.1988 0.000499547
vt 1.89909 0.7997
vt 1.89909 0.200306
vt 1.94753 0.200306
vt 1.94753 0.7997
vt 0.801199 0.0244756
vt 3.19878 0.0244756
vt 3.19878 0.975524
vt 0.801199 0.975524
vt 2.10091 0.000499547
vt 2.10091 0.999501
vt 2.05247 0.975524
vt 2.05247 0.0244756
vt 1.94753 0.975524
vt 1.89909 0.999501
vt 1.89909 0.000499547
vt 1.94753 0.0244756
vt 3.94957 0.799706
vt 3.94957 0.200312
vt 3.998 0.200312
vt 3.998 0.799706
vt 0.00199807 0.799706
vt 0.00199807 0.200312
vt 2.10091 0.200306
vt 2.10091 0.7997
vt 1.89909 0.7997
vt 1.89909 0.200306
vt 1.94753 0.200306
vt 1.94753 0.7997
vt 1.94753 0.7997
vt 1.94753 0.200306
vt 3.94957 0.200312
vt 3.94957 0.799706
vt 2.10091 0.999501
vt 0.00199807 0.999501
vt 0.0504345 0.975524
vt 2.05247 0.975524
vt 3.94957 0.975524
vt 3.998 0.999501
vt 1.89909 0.999501
vt 1.94753 0.975524
vt 0.801182 0.0244756
vt 3.19876 0.0244756
vt 3.19876 0.975524
vt 0.801182 0.975524
vt 0.623599 0.799704
vt 0.623599 0.20031
vt 0.672035 0.20031
vt 0.672035 0.799704
vt 3.19882 0.975524
vt 0.80124 0.975524
vt 0.80124 0.0244756
vt 3.19882 0.0244756
vt 3.32797 0.799704
vt 3.32797 0.20031
vt 3.3764 0.20031
vt 3.3764 0.799704
vt 3.3764 0.975524
vt 3.32797 0.975524
vt 3.32797 0.0244756
vt 3.3764 0.0244756
vt 0.623599 0.975524
vt 0.623599 0.0244756
vt 0.672035 0.0244756
vt 0.672035 0.975524
vt 0.801192 0.0244756
vt 3.19877 0.0244756
vt 3.19877 0.975524
vt 0.801192 0.975524
vt 1.43087 0.799702
vt 1.43087 0.200308
vt 1.47931 0.200308
vt 1.47931 0.799702
vt 3.19881 0.975524
vt 0.80123 0.975524
vt 0.80123 0.0244756
vt 3.19881 0.0244756
vt 2.52069 0.799702
vt 2.52069 0.200308
vt 2.56913 0.200308
vt 2.56913 0.799702
vt 2.56913 0.975524
vt 2.52069 0.975524
vt 2.52069 0.0244756
vt 2.56913 0.0244756
vt 1.43087 0.975524
vt 1.43087 0.0244756
vt 1.47931 0.0244756
vt 1.47931 0.975524
vt 3.99797 0.955544
vt 0.00200653 0.955544
vt 0.00200653 0.0444556
vt 3.99797 0.0444556
vt 3.2876 0.000509918
vt 3.2876 0.9995
vt 2.60949 0.999498
vt 2.60949 0.000507921
vt 1.39051 0.000507921
vt 1.39051 0.999498
vt 0.712399 0.9995
vt 0.712399 0.000509918
vt 0.00203967 0.0444556
vt 3.998 0.0444556
vt 3.998 0.955544
vt 0.00203967 0.955544
vt 1.43087 0.975524
vt 1.39051 0.975524
vt 1.39051 0.955544
vt 1.39051 0.0444556
vt 1.43087 0.0244756
vt 1.43087 0.975524
vt 1.39051 0.955544
vt 0.712399 0.0444556
vt 0.672035 0.0244756
vt 1.43087 0.0244756
vt 1.39051 0.0444556
vt 0.712399 0.955544
vt 0.672035 0.975524
vt 0.672035 0.0244756
vt 0.712399 0.0444556
vt 1.39051 0.975524
vt 0.672035 0.975524
vt 0.712399 0.955544
vt 1.39051 0.955544
vt 2.60949 0.955544
vt 2.56913 0.975524
vt 2.56913 0.0444556
vt 2.60949 0.0444556
vt 3.2876 0.955544
vt 3.32797 0.975524
vt 2.56913 0.975524
vt 2.60949 0.955544
vt 3.2876 0.0444556
vt 3.32797 0.0244756
vt 3.32797 0.975524
vt 3.2876 0.955544
vt 3.32797 0.0244756
vt 3.2876 0.0444556
vt 2.60949 0.0444556
vt 2.56913 0.0244756
vt 3.32797 0.0244756
vt 2.60949 0.0444556
vt 2.56913 0.0444556
vt 0.00199819 0.0244756
vt 3.99796 0.0244756
vt 3.99796 0.975524
vt 0.00199819 0.975524
vt 1.39051 0.000507921
vt 1.43087 0.999498
vt 0.672035 0.9995
vt 0.672035 0.000510037
vt 1.43087 0.999498
vt 1.39051 0.000507921
vt 1.43087 0.000507802
vt 0.00203121 0.0244756
vt 3.99799 0.0244756
vt 3.99799 0.0444556
vt 0.00203121 0.975524
vt 0.00203121 0.0244756
vt 3.99799 0.0444556
vt 3.99799 0.975524
vt 2.56913 0.999498
vt 2.56913 0.000507802
vt 3.32797 0.000510037
vt 3.32797 0.9995
vt 2.59938 0.943556
vt 1.40059 0.943556
vt 1.40059 0.0564436
vt 2.59938 0.0564436
vt 3.26338 0.350156
vt 3.26338 0.649854
vt 2.63371 0.649852
vt 2.63371 0.350155
vt 1.36629 0.350155
vt 1.36629 0.649852
vt 0.736617 0.649854
vt 0.736617 0.350156
vt 1.40063 0.0564436
vt 2.59941 0.0564436
vt 2.59941 0.943556
vt 1.40063 0.943556
vt 2.60949 0.955544
vt 2.63371 0.955544
vt 2.63371 0.943556
vt 1.36629 0.0564436
vt 1.39051 0.0444556
vt 1.39051 0.955544
vt 1.36629 0.943556
vt 0.736617 0.0564436
vt 0.712399 0.0444556
vt 1.39051 0.0444556
vt 1.36629 0.0564436
vt 0.736617 0.943556
vt 0.712399 0.955544
vt 0.712399 0.0444556
vt 0.736617 0.0564436
vt 1.36629 0.955544
vt 0.712399 0.955544
vt 0.736617 0.943556
vt 1.36629 0.943556
vt 2.63371 0.943556
vt 2.60949 0.955544
vt 2.60949 0.0564436
vt 2.63371 0.0564436
vt 3.26338 0.943556
vt 3.2876 0.955544
vt 2.60949 0.955544
vt 2.63371 0.943556
vt 3.26338 0.0564436
vt 3.2876 0.0444556
vt 3.2876 0.955544
vt 3.26338 0.943556
vt 3.2876 0.0444556
vt 3.26338 0.0564436
vt 2.63371 0.0564436
vt 2.60949 0.0444556
vt 3.2876 0.0444556
vt 2.63371 0.0564436
vt 2.60949 0.0564436
vt 1.40059 0.0444556
vt 2.59937 0.0444556
vt 2.59937 0.955544
vt 1.40059 0.955544
vt 1.36629 0.350155
vt 1.39051 0.649852
vt 0.712399 0.649854
vt 0.712399 0.350157
vt 1.39051 0.649852
vt 1.36629 0.350155
vt 1.39051 0.350155
vt 2.59938 0.0444556
vt 1.40059 0.0444556
vt 1.40059 0.0564436
vt 1.40062 0.955544
vt 1.40062 0.0444556
vt 2.59941 0.0564436
vt 2.59941 0.955544
vt 2.60949 0.649852
vt 2.60949 0.350155
vt 3.2876 0.350157
vt 3.2876 0.649854
vt 3.998 0.200312
vt 3.94957 0.799706
vt 3.19875 0.999501
vt 0.801175 0.000499547
vt 0.0504345 0.200312
vt 0.00199807 0.799706
vt 0.801247 0.0244756
vt 3.19882 0.975524
vt 0.0504345 0.0244756
vt 0.00199807 0.999501
vt 3.998 0.999501
vt 3.94957 0.0244756
vt 2.10091 0.200306
vt 2.05247 0.7997
vt 3.998 0.200312
vt 1.89909 0.7997
vt 0.0504345 0.200312
vt 0.00199807 0.799706
vt 2.05247 0.200306
vt 0.0504345 0.799706
vt 2.05247 0.0244756
vt 0.00199807 0.000499547
vt 3.998 0.000499547
vt 1.94753 0.0244756
vt 2.10091 0.200306
vt 2.05247 0.7997
vt 0.801223 0.000499547
vt 3.1988 0.999501
vt 1.94753 0.200306
vt 1.89909 0.7997
vt 3.19878 0.975524
vt 0.801199 0.0244756
vt 2.05247 0.975524
vt 2.10091 0.000499547
vt 1.89909 0.000499547
vt 1.94753 0.975524
vt 3.998 0.200312
vt 3.94957 0.799706
vt 2.10091 0.200306
vt 0.00199807 0.799706
vt 1.94753 0.200306
vt 1.89909 0.7997
vt 3.94957 0.200312
vt 1.94753 0.7997
vt 0.0504345 0.975524
vt 2.10091 0.999501
vt 1.89909 0.999501
vt 3.94957 0.975524
vt 3.19876 0.975524
vt 0.801182 0.0244756
vt 0.672035 0.20031
vt 0.623599 0.799704
vt 0.80124 0.0244756
vt 3.19882 0.975524
vt 3.3764 0.20031
vt 3.32797 0.799704
vt 3.32797 0.0244756
vt 3.3764 0.975524
vt 0.672035 0.0244756
vt 0.623599 0.975524
vt 3.19877 0.975524
vt 0.801192 0.0244756
vt 1.47931 0.200308
vt 1.43087 0.799702
vt 0.80123 0.0244756
vt 3.19881 0.975524
vt 2.56913 0.200308
vt 2.52069 0.799702
vt 2.52069 0.0244756
vt 2.56913 0.975524
vt 1.47931 0.0244756
vt 1.43087 0.975524
vt 0.00200653 0.0444556
vt 3.99797 0.955544
vt 2.60949 0.999498
vt 3.2876 0.000509918
vt 0.712399 0.9995
vt 1.39051 0.000507921
vt 3.998 0.955544
vt 0.00203967 0.0444556
vt 1.43087 0.975524
vt 1.39051 0.0444556
vt 1.43087 0.0244756
vt 0.712399 0.0444556
vt 0.672035 0.0244756
vt 0.712399 0.955544
vt 0.712399 0.955544
vt 1.39051 0.975524
vt 2.56913 0.0444556
vt 2.60949 0.955544
vt 2.56913 0.975524
vt 3.2876 0.955544
vt 3.32797 0.975524
vt 3.2876 0.0444556
vt 2.60949 0.0444556
vt 2.56913 0.0244756
vt 3.99796 0.975524
vt 0.00199819 0.0244756
vt 0.672035 0.9995
vt 1.39051 0.000507921
vt 3.99799 0.0444556
vt 0.00203121 0.975524
vt 3.32797 0.000510037
vt 2.56913 0.999498
vt 1.40059 0.0564436
vt 2.59938 0.943556
vt 2.63371 0.649852
vt 3.26338 0.350156
vt 0.736617 0.649854
vt 1.36629 0.350155
vt 2.59941 0.943556
vt 1.40063 0.0564436
vt 1.39051 0.955544
vt 1.36629 0.0564436
vt 1.39051 0.0444556
vt 0.736617 0.0564436
vt 0.712399 0.0444556
vt 0.736617 0.943556
vt 0.736617 0.943556
vt 1.36629 0.955544
vt 2.60949 0.0564436
vt 2.63371 0.943556
vt 2.60949 0.955544
vt 3.26338 0.943556
vt 3.2876 0.955544
vt 3.26338 0.0564436
vt 2.63371 0.0564436
vt 2.60949 0.0444556
vt 2.59937 0.955544
vt 1.40059 0.0444556
vt 0.712399 0.649854
vt 1.36629 0.350155
vt 2.59941 0.0564436
vt 1.40062 0.955544
vt 3.2876 0.350157
vt 2.60949 0.649852
f 1/298/1 4/4/1 3/297/1
f 3/3/1 2/2/1 1/1/1
f 5/300/2 8/8/2 7/299/2
f 7/7/2 6/6/2 5/5/2
f 9/302/3 12/12/3 11/301/3
f 11/11/3 10/10/3 9/9/3
f 13/304/4 16/16/4 15/303/4
f 15/15/4 14/14/4 13/13/4
f 17/306/5 20/20/5 19/305/5
f 19/19/5 18/18/5 17/17/5
f 21/308/6 24/24/6 23/307/6
f 23/23/6 22/22/6 21/21/6
f 25/310/3 28/28/3 27/309/3
f 27/27/3 26/26/3 25/25/3
f 29/312/7 32/32/7 31/311/7
f 31/31/7 30/30/7 29/29/7
f 33/314/8 36/36/8 35/313/8
f 35/35/8 34/34/8 33/33/8
f 37/316/9 40/40/9 39/315/9
f 39/39/9 38/38/9 37/37/9
f 41/318/5 44/44/5 43/317/5
f 43/43/5 42/42/5 41/41/5
f 45/320/6 48/48/6 47/319/6
f 47/47/6 46/46/6 45/45/6
f 49/322/8 52/52/8 51/321/8
f 51/51/8 50/50/8 49/49/8
f 53/324/4 56/56/4 55/323/4
f 55/55/4 54/54/4 53/53/4
f 57/326/10 60/60/10 59/325/10
f 59/59/10 58/58/10 57/57/10
f 61/328/2 64/64/2 63/327/2
f 63/63/2 62/62/2 61/61/2
f 65/330/5 68/68/5 67/329/5
f 67/67/5 66/66/5 65/65/5
f 69/332/6 72/72/6 71/331/6
f 71/71/6 70/70/6 69/69/6
f 73/334/10 76/76/10 75/333/10
f 75/75/10 74/74/10 73/73/10
f 77/336/9 80/80/9 79/335/9
f 79/79/9 78/78/9 77/77/9
f 81/338/1 84/84/1 83/337/1
f 83/83/1 82/82/1 81/81/1
f 85/340/7 88/88/7 87/339/7
f 87/87/7 86/86/7 85/85/7
f 89/342/5 92/92/5 91/341/5
f 91/91/5 90/90/5 89/89/5
f 93/344/6 96/96/6 95/343/6
f 95/95/6 94/94/6 93/93/6
f 97/346/2 100/100/2 99/345/2
f 99/99/2 98/98/2 97/97/2
f 101/348/9 104/104/9 103/347/9
f 103/103/9 102/102/9 101/101/9
f 105/350/4 108/108/4 107/349/4
f 107/107/4 106/106/4 105/105/4
f 109/352/7 112/112/7 111/351/7
f 111/111/7 110/110/7 109/109/7
f 113/354/6 116/116/6 115/353/6
f 115/115/6 114/114/6 113/113/6
f 117/356/5 120/120/5 119/355/5
f 119/119/5 118/118/5 117/117/5
f 121/358/2 124/124/2 123/357/2
f 123/123/2 122/122/2 121/121/2
f 125/360/9 128/128/9 127/359/9
f 127/127/9 126/126/9 125/125/9
f 129/362/4 132/132/4 131/361/4
f 131/131/4 130/130/4 129/129/4
f 133/364/7 136/136/7 135/363/7
f 135/135/7 134/134/7 133/133/7
f 137/366/6 140/140/6 139/365/6
f 139/139/6 138/138/6 137/137/6
f 141/368/5 144/144/5 143/367/5
f 143/143/5 142/142/5 141/141/5
f 145/370/2 148/148/2 147/369/2
f 147/147/2 146/146/2 145/145/2
f 149/372/7 152/152/7 151/371/7
f 151/151/7 150/150/7 149/149/7
f 153/374/9 156/156/9 155/373/9
f 155/155/9 154/154/9 153/153/9
f 157/376/4 160/160/4 159/375/4
f 159/159/4 158/158/4 157/157/4
f 163/163/5 162/162/5 161/161/5
f 164/378/5 167/167/5 166/377/5
f 166/166/5 165/165/5 164/164/5
f 168/380/5 171/171/5 170/379/5
f 170/170/5 169/169/5 168/168/5
f 172/382/5 175/175/5 174/381/5
f 174/174/5 173/173/5 172/172/5
f 176/384/5 179/179/5 178/383/5
f 178/178/5 177/177/5 176/176/5
f 180/386/6 183/183/6 182/385/6
f 182/182/6 181/181/6 180/180/6
f 184/388/6 187/187/6 186/387/6
f 186/186/6 185/185/6 184/184/6
f 188/390/6 191/191/6 190/389/6
f 190/190/6 189/189/6 188/188/6
f 194/194/6 193/193/6 192/192/6
f 195/392/6 198/198/6 197/391/6
f 197/197/6 196/196/6 195/195/6
f 199/394/2 202/202/2 201/393/2
f 201/201/2 200/200/2 199/199/2
f 203/396/9 206/206/9 205/395/9
f 205/205/9 204/204/9 203/203/9
f 209/209/9 208/208/9 207/207/9
f 212/212/4 211/211/4 210/210/4
f 213/398/4 216/216/4 215/397/4
f 215/215/4 214/214/4 213/213/4
f 217/400/7 220/220/7 219/399/7
f 219/219/7 218/218/7 217/217/7
f 221/402/2 224/224/2 223/401/2
f 223/223/2 222/222/2 221/221/2
f 225/404/7 228/228/7 227/403/7
f 227/227/7 226/226/7 225/225/7
f 229/406/9 232/232/9 231/405/9
f 231/231/9 230/230/9 229/229/9
f 233/408/4 236/236/4 235/407/4
f 235/235/4 234/234/4 233/233/4
f 239/239/6 237/237/6 238/238/6
f 240/410/5 243/243/5 242/409/5
f 242/242/5 241/241/5 240/240/5
f 244/412/5 247/247/5 246/411/5
f 246/246/5 245/245/5 244/244/5
f 248/414/5 251/251/5 250/413/5
f 250/250/5 249/249/5 248/248/5
f 252/416/5 255/255/5 254/415/5
f 254/254/5 253/253/5 252/252/5
f 256/418/6 259/259/6 258/417/6
f 258/258/6 257/257/6 256/256/6
f 260/420/6 263/263/6 262/419/6
f 262/262/6 261/261/6 260/260/6
f 264/422/6 267/267/6 266/421/6
f 266/266/6 265/265/6 264/264/6
f 270/270/6 269/269/6 268/268/6
f 271/424/6 274/274/6 273/423/6
f 273/273/6 272/272/6 271/271/6
f 275/426/2 278/278/2 277/425/2
f 277/277/2 276/276/2 275/275/2
f 279/428/9 282/282/9 281/427/9
f 281/281/9 280/280/9 279/279/9
f 285/285/9 284/284/9 283/283/9
f 288/288/2 286/286/2 287/287/2
f 289/430/4 292/292/4 291/429/4
f 291/291/4 290/290/4 289/289/4
f 293/432/7 296/296/7 295/431/7
f 295/295/7 294/294/7 293/293/7
