v 217.46 821.617 249.163
v 159.727 821.617 249.08
v 217.545 818.429 249.08
v 159.812 818.429 249.163
v 217.46 821.701 245.053
v 159.727 821.617 245.053
v 159.812 818.345 245.053
v 217.545 818.429 245.053
v 213.379 821.701 245.053
v 213.379 818.345 244.885
v 163.893 818.345 245.053
v 163.893 821.701 244.885
v 163.893 821.701 249.08
v 163.893 818.429 249.163
v 213.379 821.617 249.163
v 213.379 818.345 249.08
v 159.727 821.617 196.394
v 217.545 818.429 196.394
v 217.46 821.701 196.394
v 159.812 818.345 196.394
v 213.294 821.617 196.394
v 213.379 818.345 196.394
v 163.978 818.429 196.394
v 163.893 821.701 196.394
v 217.46 821.701 192.199
v 159.812 818.345 192.199
v 213.209 821.701 192.199
v 164.063 818.345 192.199
v 159.727 821.617 192.199
v 217.545 818.429 192.199
v 213.379 818.345 192.199
v 163.893 821.701 192.199
v 217.46 821.701 249.08
v 217.545 821.617 249.08
v 159.812 821.701 249.08
v 159.812 821.617 249.163
v 217.46 818.345 249.08
v 217.46 818.429 249.163
v 159.812 818.345 249.08
v 159.727 818.429 249.08
v 217.46 821.701 244.885
v 217.545 821.617 244.885
v 217.545 821.617 245.053
v 159.727 821.617 244.885
v 159.812 821.701 244.885
v 159.812 821.701 245.053
v 159.812 818.345 244.885
v 159.727 818.429 244.885
v 159.727 818.429 245.053
v 217.545 818.429 244.885
v 217.46 818.345 244.885
v 217.46 818.345 245.053
v 213.209 821.701 245.053
v 213.209 821.617 244.969
v 213.294 821.617 244.885
v 213.379 821.701 244.885
v 213.294 818.429 244.885
v 213.209 818.429 244.969
v 213.209 818.345 245.053
v 213.379 818.345 245.053
v 164.063 818.345 245.053
v 164.063 818.429 244.969
v 163.978 818.429 244.885
v 163.893 818.345 244.885
v 163.978 821.617 244.885
v 164.063 821.617 244.969
v 164.063 821.701 245.053
v 163.893 821.701 245.053
v 164.063 821.701 249.08
v 164.063 821.617 249.163
v 163.893 821.617 249.163
v 164.063 818.429 249.163
v 164.063 818.345 249.08
v 163.893 818.345 249.08
v 213.209 821.617 249.163
v 213.209 821.701 249.08
v 213.379 821.701 249.08
v 213.209 818.345 249.08
v 213.209 818.429 249.163
v 213.379 818.429 249.163
v 159.727 821.617 196.226
v 159.812 821.701 196.226
v 159.812 821.701 196.394
v 217.545 818.429 196.226
v 217.46 818.345 196.226
v 217.46 818.345 196.394
v 217.46 821.701 196.226
v 217.545 821.617 196.226
v 217.545 821.617 196.394
v 159.812 818.345 196.226
v 159.727 818.429 196.226
v 159.727 818.429 196.394
v 213.209 821.617 196.31
v 213.209 821.701 196.226
v 213.379 821.701 196.226
v 213.379 821.701 196.394
v 213.379 818.345 196.226
v 213.209 818.345 196.226
v 213.209 818.429 196.31
v 213.294 818.429 196.394
v 164.063 818.429 196.31
v 164.063 818.345 196.226
v 163.893 818.345 196.226
v 163.893 818.345 196.394
v 163.893 821.701 196.226
v 164.063 821.701 196.226
v 164.063 821.617 196.31
v 163.978 821.617 196.394
v 217.46 821.617 192.115
v 217.545 821.617 192.199
v 159.812 818.429 192.115
v 159.727 818.429 192.199
v 213.209 821.617 192.115
v 213.379 821.617 192.115
v 213.379 821.701 192.199
v 164.063 818.429 192.115
v 163.893 818.429 192.115
v 163.893 818.345 192.199
v 159.812 821.617 192.115
v 159.812 821.701 192.199
v 217.46 818.429 192.115
v 217.46 818.345 192.199
v 213.379 818.429 192.115
v 213.209 818.429 192.115
v 213.209 818.345 192.199
v 163.893 821.617 192.115
v 164.063 821.617 192.115
v 164.063 821.701 192.199
vn -7.02903e-007 2.51212e-006 1
vn -1.22522e-006 3.1808e-006 1
vn -1.04464e-006 1.38107e-006 1
vn 0 4.37114e-008 1
vn 1 0 0
vn 0 1 -4.37114e-008
vn 0 -1 4.37114e-008
vn -1 0 0
vn 2.03497e-007 -4.37114e-008 -1
vn 9.7496e-008 1.09267e-007 1
vn 1.01748e-007 4.37114e-008 1
vn 4.25245e-009 3.11524e-006 1
vn 0 3.1808e-006 1
vn -3.82882e-008 -1 4.90637e-009
vn -7.65763e-008 -1 -3.38984e-008
vn -1.9144e-008 -1 2.4309e-008
vn 1 7.94861e-007 -3.47445e-014
vn 1 7.94861e-007 -3.47445e-014
vn -1.20113e-013 -1.61225e-006 -1
vn -0 -1.61225e-006 -1
vn 0 1.52483e-006 -1
vn 1.01748e-007 1.52483e-006 -1
vn -1.01748e-007 -1.61225e-006 -1
vn -0 -1 -3.38985e-008
vn 6.35928e-009 -1 4.37114e-008
vn 5.08742e-008 -7.4056e-007 1
vn 0 4.37114e-008 1
vn 0.572191 0.579926 0.579899
vn -0.572191 0.579926 0.579899
vn 0.572191 -0.579927 0.579899
vn -0.572191 -0.579927 0.579899
vn 0.702343 0.711838 -3.11154e-008
vn -0.702343 0.711838 -3.11154e-008
vn -0.702343 -0.711839 3.11155e-008
vn 0.702343 -0.711839 3.11155e-008
vn 0 0.707123 -0.70709
vn -0.297855 0.905629 -0.301859
vn -0.702343 0.711838 -3.11154e-008
vn -0.572196 -0.579933 -0.579887
vn -0.572196 -0.579924 -0.579896
vn -0 -0.707124 -0.70709
vn 0.297851 -0.905626 -0.301873
vn 0.702353 -0.711828 3.1115e-008
vn 0.572179 0.579915 -0.579922
vn 0.572179 0.579932 -0.579905
vn 0 0.707123 0.70709
vn 0 -0.707124 0.70709
vn 0 0.707123 0.70709
vn 0 -0.707124 0.70709
vn -0.702343 0.711838 -3.11154e-008
vn 0.702343 -0.711839 3.11155e-008
vn 0.702343 0.711838 -3.11154e-008
vn -0.702343 -0.711839 3.11155e-008
vn -0.572185 0.579921 0.579911
vn 0 0.894428 0.447213
vn -0.572185 -0.579921 0.57991
vn -0.572185 -0.579921 0.57991
vn 0.572191 -0.57991 0.579916
vn 0 -0.894428 0.447212
vn 0.702353 -0.711828 3.1115e-008
vn 0.572185 0.579921 0.579911
vn 0.572185 0.579903 0.579928
vn 0.572185 0.579921 -0.579911
vn -0.572185 -0.579921 -0.57991
vn 0 0.707113 -0.707101
vn -0 -0.707113 -0.7071
vn -0 -0.707113 -0.7071
vn -0.572174 0.579926 -0.579916
vn 0.572173 -0.579927 -0.579916
vn 0 0.707113 -0.707101
vn -1.73268e-006 -0.707124 0.70709
vn 0.702343 -0.711839 3.11155e-008
vn -0.70236 3.11147e-008 0.711822
vn 0.70236 3.11147e-008 0.711822
vn -0.702343 -0.711839 3.11155e-008
vn 1.43891e-007 0.707123 -0.70709
vn 1.43891e-007 -0.707124 -0.70709
vn -0.702371 -3.11143e-008 -0.711811
vn 0.702349 -3.11152e-008 -0.711832
vn 0.702339 5.27146e-007 -0.711843
vn 1.43891e-007 -0.707124 0.70709
vn 0 0.707123 0.70709
vn 0.702343 -0.711839 3.11155e-008
vn 1.14107e-012 -1 -3.38984e-008
vn -0 -1 -3.38985e-008
vn -0.702349 3.11152e-008 0.711832
vn 0.702349 3.11152e-008 0.711832
vn 0.702339 -5.27162e-007 0.711843
vn 0.702343 0.711838 -3.11154e-008
vn -0 -0.707113 -0.7071
vn -0.702349 1.08542e-006 -0.711832
vn -0.702339 5.27162e-007 -0.711843
vn 0 1.52483e-006 -1
vn 0 1.52483e-006 -1
vn 0.702349 -1.14765e-006 -0.711832
vn 0.702339 -5.89394e-007 -0.711843
vn -5.41481e-008 -0.707113 -0.7071
vn 0 0.707113 -0.707101
vn 0 -0.707113 0.7071
vn -7.19464e-008 0.707113 -0.707101
vn 3.59732e-008 0.707113 0.707101
vn 7.64431e-008 -0.707113 -0.7071
vt 0.998214 0.999609
vt 0.00178571 0.999609
vt 0.00178572 0.999609
vt 0.998214 0.999609
vt 0.999609 0.025
vt 0.999609 0.975
vt 0.00142857 0.025
vt 0.998571 0.025
vt 0.00142857 0.975
vt 0.998571 0.975
vt 0.000390625 0.025
vt 0.000390625 0.975
vt 0.998214 0.969141
vt 0.031484 0.025
vt 0.00178571 0.968516
vt 0.969141 0.025
vt 0.998214 0.969141
vt 0.968516 0.975
vt 0.00178572 0.968516
vt 0.0308593 0.975
vt 0.858929 0.969141
vt 0.141071 0.968516
vt 0.858928 0.969141
vt 0.141072 0.968516
vt 0.857143 0.968516
vt 0.857143 0.968516
vt 0.14418 0.96875
vt 0.85582 0.96875
vt 0.113215 0.999609
vt 0.115715 0.025
vt 0.883928 0.999609
vt 0.112857 0.975
vt 0.883929 0.999609
vt 0.887143 0.025
vt 0.113214 0.999609
vt 0.884286 0.975
vt 0.00178571 0.841981
vt 0.84261 0.025
vt 0.00178572 0.841981
vt 0.15739 0.975
vt 0.998214 0.84261
vt 0.158019 0.025
vt 0.998214 0.84261
vt 0.841981 0.975
vt 0.857143 0.84261
vt 0.857143 0.842376
vt 0.141071 0.84261
vt 0.857143 0.84261
vt 0.857143 0.842376
vt 0.141072 0.84261
vt 0.998214 0.811178
vt 0.195201 0.0202696
vt 0.998214 0.811178
vt 0.801228 0.99527
vt 0.85582 0.811178
vt 0.85582 0.811178
vt 0.0309838 0.815513
vt 0.811178 0.025
vt 0.0154447 0.790513
vt 0.188822 0.975
vt 0.848794 0.800648
vt 0.141071 0.811178
vt 0.856563 0.813148
vt 0.141072 0.811178
vt 0.998214 0.968516
vt 0.0308593 0.025
vt 0.968516 0.025
vt 0.00178571 0.969141
vt 0.998214 0.968516
vt 0.969141 0.975
vt 0.031484 0.975
vt 0.00178572 0.969141
vt 0.856072 0.969141
vt 0.85582 0.96875
vt 0.857143 0.968516
vt 0.858929 0.968516
vt 0.143823 0.969141
vt 0.141071 0.969141
vt 0.856071 0.969141
vt 0.857143 0.968516
vt 0.858928 0.968516
vt 0.14418 0.96875
vt 0.143823 0.969141
vt 0.141072 0.969141
vt 0.115966 0.999609
vt 0.112857 0.025
vt 0.115715 0.975
vt 0.886786 0.999609
vt 0.884286 0.025
vt 0.886786 0.999609
vt 0.115965 0.999609
vt 0.887143 0.975
vt 0.841981 0.025
vt 0.00178571 0.84261
vt 0.158019 0.975
vt 0.00178572 0.84261
vt 0.998214 0.841981
vt 0.15739 0.025
vt 0.998214 0.841981
vt 0.84261 0.975
vt 0.857143 0.842376
vt 0.85582 0.841981
vt 0.858929 0.841981
vt 0.858929 0.84261
vt 0.141071 0.841981
vt 0.14418 0.841981
vt 0.857143 0.84261
vt 0.857143 0.842376
vt 0.85582 0.841981
vt 0.858928 0.841981
vt 0.858928 0.84261
vt 0.141072 0.841981
vt 0.14418 0.841981
vt 0.857143 0.84261
vt 0.188822 0.025
vt 0.811178 0.975
vt 0.857143 0.810783
vt 0.848794 0.800648
vt 0.858929 0.811178
vt 0.857143 0.810783
vt 0.856563 0.813148
vt 0.858928 0.811178
vt 0.00178571 0.811178
vt 0.00178572 0.811178
vt 0.857143 0.810783
vt 0.14418 0.811178
vt 0.857143 0.810783
vt 0.14418 0.811178
f 4/9/3 14/32/2 71/86/1
f 71/86/1 36/7/4 4/9/3
f 3/12/5 8/20/5 43/66/5
f 43/66/5 34/11/5 3/12/5
f 9/21/6 77/90/6 33/1/6
f 33/1/6 5/13/6 9/21/6
f 11/23/7 74/88/7 39/4/7
f 39/4/7 7/17/7 11/23/7
f 49/70/8 40/6/8 2/5/8
f 2/5/8 6/16/8 49/70/8
f 50/71/5 18/40/5 89/98/5
f 89/98/5 42/14/5 50/71/5
f 22/47/7 86/96/7 51/19/7
f 51/19/7 10/22/7 22/47/7
f 24/50/6 83/94/6 45/15/6
f 45/15/6 12/24/6 24/50/6
f 55/75/8 21/45/8 100/107/8
f 100/107/8 57/25/8 55/75/8
f 66/82/9 54/74/9 58/28/9
f 58/28/9 62/27/9 66/82/9
f 72/87/12 79/36/11 75/89/10
f 75/89/10 70/30/13 72/87/12
f 68/84/6 46/68/6 35/2/6
f 35/2/6 13/29/6 68/84/6
f 61/79/7 59/77/7 78/91/7
f 78/91/7 73/31/7 61/79/7
f 53/73/6 67/83/6 69/85/6
f 69/85/6 76/33/6 53/73/6
f 80/92/4 38/10/4 1/8/4
f 1/8/4 15/34/4 80/92/4
f 60/78/7 52/72/7 37/3/7
f 37/3/7 16/35/7 60/78/7
f 84/95/5 30/60/5 110/115/5
f 110/115/5 88/42/5 84/95/5
f 96/104/6 56/76/6 41/65/6
f 41/65/6 19/41/6 96/104/6
f 104/111/7 64/81/7 47/69/7
f 47/69/7 20/43/7 104/111/7
f 92/100/8 48/18/8 44/67/8
f 44/67/8 17/38/8 92/100/8
f 97/105/16 31/62/15 122/124/14
f 122/124/14 85/39/7 97/105/16
f 105/112/6 32/64/6 120/123/6
f 120/123/6 82/37/6 105/112/6
f 108/114/17 65/26/17 63/80/17
f 63/80/17 23/48/18 108/114/17
f 115/119/6 95/103/6 87/97/6
f 87/97/6 25/51/6 115/119/6
f 118/122/7 103/110/7 90/99/7
f 90/99/7 26/53/7 118/122/7
f 112/116/8 91/44/8 81/93/8
f 81/93/8 29/58/8 112/116/8
f 109/52/19 121/59/19 123/61/19
f 123/61/20 114/118/20 109/52/20
f 111/54/21 119/57/21 126/63/21
f 126/63/21 117/121/21 111/54/21
f 27/55/6 128/128/6 106/113/6
f 106/113/6 94/102/6 27/55/6
f 124/125/22 116/120/22 127/127/22
f 127/127/23 113/117/23 124/125/23
f 125/126/24 98/106/24 102/109/24
f 102/109/25 28/56/25 125/126/25
f 93/101/26 107/49/26 101/108/26
f 101/108/27 99/46/27 93/101/27
f 34/11/28 33/1/28 1/8/28
f 36/7/29 35/2/29 2/5/29
f 38/10/30 37/3/30 3/12/30
f 40/6/31 39/4/31 4/9/31
f 42/14/32 41/65/32 5/13/32
f 5/13/32 43/66/32 42/14/32
f 45/15/33 44/67/33 6/16/33
f 6/16/33 46/68/33 45/15/33
f 48/18/34 47/69/34 7/17/34
f 7/17/34 49/70/34 48/18/34
f 51/19/35 50/71/35 8/20/35
f 8/20/35 52/72/35 51/19/35
f 54/74/36 53/73/36 9/21/36
f 55/75/37 54/74/37 9/21/37
f 56/76/38 55/75/38 9/21/38
f 58/28/39 57/25/39 10/22/39
f 59/77/40 58/28/40 10/22/40
f 60/78/7 59/77/7 10/22/7
f 62/27/41 61/79/41 11/23/41
f 63/80/42 62/27/42 11/23/42
f 64/81/43 63/80/43 11/23/43
f 66/82/44 65/26/44 12/24/44
f 67/83/45 66/82/45 12/24/45
f 68/84/6 67/83/6 12/24/6
f 70/30/46 69/85/46 13/29/46
f 13/29/46 71/86/46 70/30/46
f 73/31/47 72/87/47 14/32/47
f 14/32/47 74/88/47 73/31/47
f 76/33/48 75/89/48 15/34/48
f 15/34/46 77/90/46 76/33/46
f 79/36/47 78/91/47 16/35/47
f 16/35/49 80/92/49 79/36/49
f 82/37/50 81/93/50 17/38/50
f 17/38/33 83/94/33 82/37/33
f 85/39/51 84/95/51 18/40/51
f 18/40/51 86/96/51 85/39/51
f 88/42/52 87/97/52 19/41/52
f 19/41/32 89/98/32 88/42/32
f 91/44/53 90/99/53 20/43/53
f 20/43/34 92/100/34 91/44/34
f 94/102/54 93/101/54 21/45/54
f 95/103/55 94/102/55 21/45/55
f 96/104/50 95/103/50 21/45/50
f 98/106/7 97/105/7 22/47/7
f 99/46/56 98/106/56 22/47/56
f 100/107/57 99/46/57 22/47/57
f 102/109/58 101/108/58 23/48/58
f 103/110/59 102/109/59 23/48/59
f 104/111/60 103/110/60 23/48/60
f 106/113/6 105/112/6 24/50/6
f 107/49/61 106/113/61 24/50/61
f 108/114/62 107/49/62 24/50/62
f 110/115/63 109/52/63 25/51/63
f 112/116/64 111/54/64 26/53/64
f 114/118/65 113/117/65 27/55/65
f 27/55/65 115/119/65 114/118/65
f 117/121/66 116/120/66 28/56/66
f 28/56/67 118/122/67 117/121/67
f 120/123/68 119/57/68 29/58/68
f 122/124/69 121/59/69 30/60/69
f 124/125/67 123/61/67 31/62/67
f 31/62/67 125/126/67 124/125/67
f 127/127/65 126/63/65 32/64/65
f 32/64/70 128/128/70 127/127/70
f 15/34/48 1/8/48 33/1/48
f 33/1/48 77/90/48 15/34/48
f 6/16/33 2/5/33 35/2/33
f 35/2/33 46/68/33 6/16/33
f 14/32/71 4/9/71 39/4/71
f 39/4/71 74/88/71 14/32/71
f 8/20/72 3/12/72 37/3/72
f 37/3/72 52/72/72 8/20/72
f 4/9/73 36/7/73 2/5/73
f 2/5/73 40/6/73 4/9/73
f 3/12/74 34/11/74 1/8/74
f 1/8/74 38/10/74 3/12/74
f 34/11/32 43/66/32 5/13/32
f 5/13/32 33/1/32 34/11/32
f 17/38/33 44/67/33 45/15/33
f 45/15/33 83/94/33 17/38/33
f 40/6/75 49/70/75 7/17/75
f 7/17/75 39/4/75 40/6/75
f 18/40/35 50/71/35 51/19/35
f 51/19/35 86/96/35 18/40/35
f 9/21/6 5/13/6 41/65/6
f 41/65/6 56/76/6 9/21/6
f 11/23/7 7/17/7 47/69/7
f 47/69/7 64/81/7 11/23/7
f 49/70/8 6/16/8 44/67/8
f 44/67/8 48/18/8 49/70/8
f 50/71/5 42/14/5 43/66/5
f 43/66/5 8/20/5 50/71/5
f 67/83/76 53/73/76 54/74/76
f 54/74/76 66/82/76 67/83/76
f 52/72/7 60/78/7 10/22/7
f 10/22/7 51/19/7 52/72/7
f 22/47/34 10/22/34 57/25/34
f 57/25/34 100/107/34 22/47/34
f 59/77/77 61/79/77 62/27/77
f 62/27/77 58/28/77 59/77/77
f 46/68/6 68/84/6 12/24/6
f 12/24/6 45/15/6 46/68/6
f 24/50/32 12/24/32 65/26/32
f 65/26/32 108/114/32 24/50/32
f 58/28/78 54/74/78 55/75/78
f 55/75/78 57/25/78 58/28/78
f 66/82/79 62/27/79 63/80/79
f 63/80/80 65/26/80 66/82/80
f 36/7/48 71/86/48 13/29/48
f 13/29/48 35/2/48 36/7/48
f 79/36/81 72/87/81 73/31/81
f 73/31/81 78/91/81 79/36/81
f 72/87/12 70/30/13 71/86/1
f 71/86/1 14/32/2 72/87/12
f 68/84/6 13/29/6 69/85/6
f 69/85/6 67/83/6 68/84/6
f 61/79/7 73/31/7 74/88/7
f 74/88/7 11/23/7 61/79/7
f 70/30/82 75/89/82 76/33/82
f 76/33/82 69/85/82 70/30/82
f 38/10/49 80/92/49 16/35/49
f 16/35/49 37/3/49 38/10/49
f 53/73/6 76/33/6 77/90/6
f 77/90/6 9/21/6 53/73/6
f 80/92/4 15/34/4 75/89/10
f 75/89/10 79/36/11 80/92/4
f 60/78/7 16/35/7 78/91/7
f 78/91/7 59/77/7 60/78/7
f 29/58/33 81/93/33 82/37/33
f 82/37/33 120/123/33 29/58/33
f 30/60/72 84/95/72 85/39/72
f 85/39/83 122/124/83 30/60/83
f 42/14/32 89/98/32 19/41/32
f 19/41/32 41/65/32 42/14/32
f 48/18/34 92/100/34 20/43/34
f 20/43/34 47/69/34 48/18/34
f 56/76/33 96/104/33 21/45/33
f 21/45/33 55/75/33 56/76/33
f 31/62/84 97/105/84 98/106/84
f 98/106/85 125/126/85 31/62/85
f 64/81/43 104/111/43 23/48/43
f 23/48/43 63/80/43 64/81/43
f 32/64/6 105/112/6 106/113/6
f 106/113/6 128/128/6 32/64/6
f 84/95/5 88/42/5 89/98/5
f 89/98/5 18/40/5 84/95/5
f 96/104/6 19/41/6 87/97/6
f 87/97/6 95/103/6 96/104/6
f 104/111/7 20/43/7 90/99/7
f 90/99/7 103/110/7 104/111/7
f 92/100/8 17/38/8 81/93/8
f 81/93/8 91/44/8 92/100/8
f 97/105/16 85/39/7 86/96/7
f 86/96/7 22/47/7 97/105/16
f 105/112/6 82/37/6 83/94/6
f 83/94/6 24/50/6 105/112/6
f 100/107/86 21/45/86 93/101/86
f 93/101/86 99/46/86 100/107/86
f 108/114/87 23/48/87 101/108/87
f 101/108/88 107/49/88 108/114/88
f 88/42/89 110/115/89 25/51/89
f 25/51/32 87/97/32 88/42/32
f 91/44/34 112/116/34 26/53/34
f 26/53/75 90/99/75 91/44/75
f 95/103/6 115/119/6 27/55/6
f 27/55/6 94/102/6 95/103/6
f 103/110/7 118/122/7 28/56/7
f 28/56/7 102/109/7 103/110/7
f 109/52/65 114/118/65 115/119/65
f 115/119/65 25/51/65 109/52/65
f 111/54/90 117/121/90 118/122/90
f 118/122/90 26/53/90 111/54/90
f 119/57/91 111/54/91 112/116/91
f 112/116/92 29/58/92 119/57/92
f 117/121/93 126/63/93 127/127/93
f 127/127/94 116/120/94 117/121/94
f 121/59/95 109/52/95 110/115/95
f 110/115/96 30/60/96 121/59/96
f 123/61/97 121/59/97 122/124/97
f 122/124/97 31/62/97 123/61/97
f 126/63/65 119/57/65 120/123/65
f 120/123/98 32/64/98 126/63/98
f 114/118/20 123/61/20 124/125/20
f 124/125/20 113/117/20 114/118/20
f 102/109/99 98/106/99 99/46/99
f 99/46/99 101/108/99 102/109/99
f 128/128/100 27/55/100 113/117/100
f 113/117/100 127/127/100 128/128/100
f 107/49/101 93/101/101 94/102/101
f 94/102/101 106/113/101 107/49/101
f 125/126/102 28/56/102 116/120/102
f 116/120/102 124/125/102 125/126/102
