v 153.69 819.352 221.394
v 153.775 819.436 219.884
v 153.69 820.611 221.478
v 153.775 820.611 219.884
v 104.544 819.352 221.394
v 104.544 819.436 219.8
v 104.544 820.611 221.478
v 104.544 820.695 219.884
v 129.882 819.184 196.394
v 128.351 819.268 196.31
v 129.967 820.778 196.394
v 128.351 820.778 196.31
v 129.882 819.184 244.885
v 128.266 819.268 244.885
v 129.967 820.778 244.885
v 128.351 820.862 244.885
v 153.69 819.436 221.478
v 153.775 819.436 221.394
v 153.69 819.436 219.8
v 153.69 819.352 219.884
v 153.69 820.695 221.394
v 153.775 820.611 221.394
v 153.69 820.695 219.884
v 153.69 820.611 219.8
v 104.459 819.436 221.394
v 104.544 819.436 221.478
v 104.459 819.436 219.884
v 104.544 819.352 219.884
v 104.459 820.611 221.394
v 104.544 820.695 221.394
v 104.459 820.611 219.884
v 104.544 820.611 219.8
v 129.967 819.268 196.394
v 129.882 819.268 196.31
v 128.266 819.268 196.394
v 128.351 819.184 196.394
v 129.882 820.862 196.394
v 129.882 820.778 196.31
v 128.351 820.862 196.394
v 128.266 820.778 196.394
v 129.882 819.268 244.969
v 129.967 819.268 244.885
v 128.351 819.268 244.969
v 128.351 819.184 244.885
v 129.882 820.778 244.969
v 129.882 820.862 244.885
v 128.351 820.778 244.969
v 128.266 820.778 244.885
vn 1 3.87297e-015 4.43016e-008
vn -1 -3.87297e-015 -4.43016e-008
vn -1.90779e-008 -1 8.74228e-008
vn 4.31291e-008 -8.74228e-008 -1
vn 2.06677e-008 1 -8.74228e-008
vn -4.31291e-008 8.74228e-008 1
vn 3.31035e-006 3.22385e-006 -1
vn 6.57764e-006 6.53519e-006 -1
vn 3.31042e-006 3.22392e-006 -1
vn -4.72554e-015 -1 1.9699e-007
vn 3.50385e-013 1 -1.95379e-007
vn 3.57376e-013 1 -1.95379e-007
vn 1.16467e-014 1 -1.95379e-007
vn 4.65605e-015 1 -1.95379e-007
vn 0.57218 -0.579932 0.579905
vn 0.57218 -0.579932 -0.579905
vn 0.572179 0.579932 0.579905
vn 0.57218 0.579932 -0.579905
vn -0.57218 -0.579932 0.579905
vn -0.57218 -0.579932 -0.579905
vn -0.57218 0.579932 0.579905
vn -0.57218 0.579932 -0.579905
vn 0.572168 -0.57992 -0.579928
vn -0.572191 -0.579909 -0.579917
vn 0.572134 0.579919 -0.579962
vn -0.572168 0.57992 -0.579928
vn 0.572179 -0.579932 0.579905
vn -0.57218 -0.579932 0.579905
vn -0.57218 0.579932 0.579905
vn 0.702349 6.22303e-008 0.711832
vn 0.702333 0.711849 -3.11173e-008
vn 0.702349 -6.22303e-008 -0.711832
vn 0.702333 -0.711848 9.33462e-008
vn -0.702333 -0.711848 3.11173e-008
vn -0.702349 -6.22303e-008 -0.711832
vn -0.702333 0.711848 -9.33462e-008
vn -0.702349 6.22303e-008 0.711832
vn -0.702349 6.22303e-008 0.711832
vn 1.70058e-008 -0.707123 -0.70709
vn -4.39866e-008 -0.707123 0.707091
vn 4.51107e-008 0.707123 -0.70709
vn 4.45486e-008 0.707123 -0.707091
vn -1.58816e-008 0.707123 0.70709
vn 0.702328 -6.22322e-008 -0.711853
vn 0.702286 4.65237e-006 -0.711895
vn 2.34088e-006 0.707081 -0.707133
vn 4.65113e-006 0.707102 -0.707112
vn -0.702328 -2.4194e-006 -0.711853
vn 3.04971e-008 -0.707102 -0.707112
vn -3.04962e-008 -0.707123 0.70709
vn -3.04962e-008 0.707123 0.70709
vn -0.702333 -0.711848 1.07966e-007
vn -0.702333 -0.711849 1.09113e-007
vn 0.702333 -0.711849 1.70195e-007
vn 0.702333 -0.711848 1.71342e-007
vn -0.702333 0.711848 -1.70195e-007
vn -0.702333 0.711849 -1.71342e-007
vn 0.702333 0.711848 -1.09113e-007
vn 0.702333 0.711849 -1.07966e-007
vt 0.980315 0.019685
vt 0.019685 0.019685
vt 0.980315 0.980315
vt 0.019685 0.980315
vt 0.019685 0.019685
vt 0.980315 0.019685
vt 0.019685 0.980315
vt 0.980315 0.980315
vt 0.019685 0.019685
vt 0.980315 0.019685
vt 0.019685 0.980315
vt 0.980315 0.980315
vt 0.019685 0.019685
vt 0.980315 0.019685
vt 0.019685 0.980315
vt 0.980315 0.980315
vt 0.019685 0.019685
vt 0.980315 0.019685
vt 0.019685 0.980315
vt 0.980315 0.980315
vt 0.019685 0.019685
vt 0.980315 0.019685
vt 0.019685 0.980315
vt 0.980315 0.980315
vt 0.980315 0.019685
vt 0.019685 0.019685
vt 0.980315 0.980315
vt 0.019685 0.980315
vt 0.019685 0.019685
vt 0.980315 0.019685
vt 0.019685 0.980315
vt 0.980315 0.980315
vt 0.019685 0.019685
vt 0.980315 0.019685
vt 0.019685 0.980315
vt 0.980315 0.980315
vt 0.019685 0.019685
vt 0.980315 0.019685
vt 0.019685 0.980315
vt 0.980315 0.980315
vt 0.019685 0.019685
vt 0.980315 0.019685
vt 0.019685 0.980315
vt 0.980315 0.980315
vt 0.019685 0.019685
vt 0.980315 0.019685
vt 0.019685 0.980315
vt 0.980315 0.980315
f 4/4/1 22/3/1 18/1/1
f 18/1/1 2/2/1 4/4/1
f 31/8/2 27/6/2 25/5/2
f 25/5/2 29/7/2 31/8/2
f 28/12/3 20/10/3 1/9/3
f 1/9/3 5/11/3 28/12/3
f 32/16/4 24/14/4 19/13/4
f 19/13/4 6/15/4 32/16/4
f 30/20/5 21/18/5 23/17/5
f 23/17/5 8/19/5 30/20/5
f 26/24/6 17/22/6 3/21/6
f 3/21/6 7/23/6 26/24/6
f 12/28/9 38/27/8 34/25/7
f 34/25/7 10/26/4 12/28/9
f 47/32/6 43/30/6 41/29/6
f 41/29/6 45/31/6 47/32/6
f 44/36/10 36/34/10 9/33/10
f 9/33/10 13/35/10 44/36/10
f 48/40/2 40/38/2 35/37/2
f 35/37/2 14/39/2 48/40/2
f 46/44/13 37/42/12 39/41/11
f 39/41/11 16/43/14 46/44/13
f 42/48/1 33/46/1 11/45/1
f 11/45/1 15/47/1 42/48/1
f 18/1/15 17/22/15 1/9/15
f 20/10/16 19/13/16 2/2/16
f 22/3/17 21/18/17 3/21/17
f 24/14/18 23/17/18 4/4/18
f 26/24/19 25/5/19 5/11/19
f 28/12/20 27/6/20 6/15/20
f 30/20/21 29/7/21 7/23/21
f 32/16/22 31/8/22 8/19/22
f 34/25/23 33/46/23 9/33/23
f 36/34/24 35/37/24 10/26/24
f 38/27/25 37/42/25 11/45/25
f 40/38/26 39/41/26 12/28/26
f 42/48/27 41/29/27 13/35/27
f 44/36/28 43/30/28 14/39/28
f 46/44/17 45/31/17 15/47/17
f 48/40/29 47/32/29 16/43/29
f 3/21/30 17/22/30 18/1/30
f 18/1/30 22/3/30 3/21/30
f 23/17/31 21/18/31 22/3/31
f 22/3/31 4/4/31 23/17/31
f 19/13/32 24/14/32 4/4/32
f 4/4/32 2/2/32 19/13/32
f 1/9/33 20/10/33 2/2/33
f 2/2/33 18/1/33 1/9/33
f 28/12/34 5/11/34 25/5/34
f 25/5/34 27/6/34 28/12/34
f 32/16/35 6/15/35 27/6/35
f 27/6/35 31/8/35 32/16/35
f 30/20/36 8/19/36 31/8/36
f 31/8/36 29/7/36 30/20/36
f 26/24/37 7/23/37 29/7/37
f 29/7/38 25/5/38 26/24/38
f 6/15/39 19/13/39 20/10/39
f 20/10/39 28/12/39 6/15/39
f 17/22/40 26/24/40 5/11/40
f 5/11/40 1/9/40 17/22/40
f 8/19/41 23/17/41 24/14/41
f 24/14/42 32/16/42 8/19/42
f 7/23/43 3/21/43 21/18/43
f 21/18/43 30/20/43 7/23/43
f 11/45/44 33/46/44 34/25/44
f 34/25/45 38/27/45 11/45/45
f 39/41/46 37/42/46 38/27/46
f 38/27/47 12/28/47 39/41/47
f 35/37/48 40/38/48 12/28/48
f 12/28/35 10/26/35 35/37/35
f 9/33/49 36/34/49 10/26/49
f 10/26/49 34/25/49 9/33/49
f 44/36/50 13/35/50 41/29/50
f 41/29/50 43/30/50 44/36/50
f 48/40/38 14/39/38 43/30/38
f 43/30/38 47/32/38 48/40/38
f 46/44/51 16/43/51 47/32/51
f 47/32/51 45/31/51 46/44/51
f 42/48/30 15/47/30 45/31/30
f 45/31/30 41/29/30 42/48/30
f 14/39/52 35/37/52 36/34/52
f 36/34/53 44/36/53 14/39/53
f 33/46/54 42/48/54 13/35/54
f 13/35/55 9/33/55 33/46/55
f 16/43/56 39/41/56 40/38/56
f 40/38/57 48/40/57 16/43/57
f 15/47/58 11/45/58 37/42/58
f 37/42/59 46/44/59 15/47/59
