v 214.144 820.233 40.2653
v 163.128 820.233 40.2653
v 214.144 820.233 187.081
v 163.128 820.233 187.081
v 214.144 819.814 40.2653
v 163.128 819.814 40.2653
v 214.144 819.814 187.081
v 163.128 819.814 187.081
vn 0 1 -4.37114e-008
vn 0 -1 4.37114e-008
vn -0 -4.37114e-008 -1
vn -1 0 0
vn 0 4.37114e-008 1
vn 1 0 0
vt 1 0
vt 0 0
vt 1 1
vt 0 1
vt 0 0
vt 1 0
vt 0 1
vt 1 1
vt 0 0
vt 1 0
vt 0 1
vt 1 1
vt 0 0
vt 1 0
vt 0 1
vt 1 1
vt 0 0
vt 1 0
vt 0 1
vt 1 1
vt 0 0
vt 1 0
vt 0 1
vt 1 1
f 4/4/1 3/3/1 1/1/1
f 1/1/1 2/2/1 4/4/1
f 8/8/2 6/6/2 5/5/2
f 5/5/2 7/7/2 8/8/2
f 6/12/3 2/10/3 1/9/3
f 1/9/3 5/11/3 6/12/3
f 8/16/4 4/14/4 2/13/4
f 2/13/4 6/15/4 8/16/4
f 7/20/5 3/18/5 4/17/5
f 4/17/5 8/19/5 7/20/5
f 5/24/6 1/22/6 3/21/6
f 3/21/6 7/23/6 5/24/6
