v 161.846 817.087 36.9934
v 155.915 817.171 36.9095
v 162.192 818.262 36.9095
v 155.475 818.345 36.9934
v 161.846 817.087 190.353
v 155.56 817.521 190.437
v 162.277 818.345 190.353
v 155.475 818.345 190.353
v 162.218 817.328 36.9934
v 155.582 817.259 36.9934
v 162.171 817.259 190.353
v 155.649 817.193 190.353
v 162.033 817.146 36.9934
v 155.76 817.22 36.9095
v 162.033 817.146 190.353
v 155.61 817.368 190.437
v 162.193 817.521 36.9095
v 155.475 817.513 36.9934
v 162.277 817.513 190.353
v 155.824 817.103 190.353
v 161.929 817.103 36.9934
v 155.849 817.184 36.9095
v 161.904 817.184 190.437
v 155.573 817.456 190.437
v 162.105 817.312 36.9095
v 155.61 817.368 36.9095
v 162.218 817.328 190.353
v 155.76 817.22 190.437
v 162.104 817.193 36.9934
v 155.649 817.193 36.9934
v 162.104 817.193 190.353
v 155.582 817.259 190.353
v 162.261 817.431 36.9934
v 155.492 817.431 36.9934
v 162.261 817.431 190.353
v 155.907 817.087 190.353
v 161.837 817.171 36.9095
v 155.907 817.087 36.9934
v 162.277 818.345 36.9934
v 155.56 818.262 36.9095
v 161.837 817.171 190.437
v 155.475 817.513 190.353
v 162.192 818.262 190.437
v 155.56 818.262 190.437
v 162.143 817.368 36.9095
v 155.648 817.312 36.9095
v 162.105 817.312 190.437
v 155.703 817.257 190.437
v 161.993 817.22 36.9095
v 155.72 817.146 36.9934
v 161.993 817.22 190.437
v 155.535 817.328 190.353
v 162.277 817.513 36.9934
v 155.56 817.521 36.9095
v 162.193 817.521 190.437
v 155.849 817.184 190.437
v 161.904 817.184 36.9095
v 155.824 817.103 36.9934
v 161.929 817.103 190.353
v 155.492 817.431 190.353
v 162.171 817.259 36.9934
v 155.535 817.328 36.9934
v 162.143 817.368 190.437
v 155.72 817.146 190.353
v 162.05 817.257 36.9095
v 155.703 817.257 36.9095
v 162.05 817.257 190.437
v 155.648 817.312 190.437
v 162.179 817.456 36.9095
v 155.573 817.456 36.9095
v 162.179 817.456 190.437
v 155.915 817.171 190.437
vn 0 -8.74228e-008 -1
vn -0 8.74228e-008 1
vn 0 -1 9.09891e-008
vn -1 0 -0
vn 0 1 -9.14986e-008
vn 1 0 0
vn -0.629303 -0.77716 7.12161e-008
vn -0.768816 -0.63947 5.84389e-008
vn -0.768816 -0.63947 5.86018e-008
vn -0.629303 -0.77716 7.08792e-008
vn 0.629303 -0.77716 7.12161e-008
vn 0.768816 -0.63947 5.8439e-008
vn 0.768816 -0.63947 5.86018e-008
vn 0.629303 -0.77716 7.08793e-008
vn -0.286738 -0.958009 8.70501e-008
vn -0.46649 -0.884526 8.06837e-008
vn -0.466491 -0.884526 8.03755e-008
vn -0.286737 -0.958009 8.71684e-008
vn 0.286737 -0.958009 8.70501e-008
vn 0.466491 -0.884526 8.06837e-008
vn 0.46649 -0.884526 8.03755e-008
vn 0.286738 -0.958009 8.71684e-008
vn -0.879269 -0.476325 4.34864e-008
vn -0.955846 -0.293868 2.6851e-008
vn -0.955846 -0.293867 2.68262e-008
vn -0.879269 -0.476325 4.35335e-008
vn 0.879269 -0.476325 4.34865e-008
vn 0.955846 -0.293867 2.6851e-008
vn 0.955846 -0.293867 2.68263e-008
vn 0.879269 -0.476325 4.35335e-008
vn -0.192588 -0.98128 8.92858e-008
vn -0.192588 -0.98128 8.92858e-008
vn 0.192588 -0.98128 8.92858e-008
vn 0.192588 -0.98128 8.92858e-008
vn -0.980278 -0.197623 1.80571e-008
vn 0.980278 -0.197623 1.80571e-008
vn 0.698419 -0.0697059 -0.712287
vn 0.698479 -0.0697237 -0.712226
vn 0.702433 0.000241511 -0.711749
vn 0.702225 0.000283952 -0.711955
vn 0 0.707123 -0.70709
vn 0 0.707123 -0.70709
vn 0 0.707123 -0.70709
vn -0.702458 2.03712e-005 -0.711725
vn -0.702367 -6.22289e-008 -0.711815
vn -0.698425 -0.0695963 -0.712291
vn -0.698493 -0.069576 -0.712226
vn -0.0683464 -0.703305 -0.707595
vn -0.0683467 -0.703305 -0.707595
vn 0.0683468 -0.703305 -0.707595
vn 0.0683465 -0.703305 -0.707595
vn 0.0683424 -0.703263 0.707637
vn 0.0683426 -0.703263 0.707637
vn -0.0683427 -0.703263 0.707637
vn -0.0683424 -0.703263 0.707637
vn -0.698377 -0.0697015 0.712329
vn -0.698436 -0.0697194 0.712268
vn -0.702391 0.000241622 0.711791
vn -0.702182 0.000284059 0.711997
vn -0 0.707081 0.707132
vn -0 0.707081 0.707132
vn 0.702415 2.0493e-005 0.711767
vn 0.702324 6.22325e-008 0.711857
vn 0.698383 -0.069592 0.712333
vn 0.698451 -0.0695717 0.712268
vn 0.541123 -0.450084 -0.71036
vn 0.541122 -0.450084 -0.71036
vn 0.443512 -0.547717 -0.709439
vn 0.443512 -0.547717 -0.709438
vn -0.443512 -0.547717 -0.709438
vn -0.443512 -0.547717 -0.709438
vn -0.541122 -0.450084 -0.71036
vn -0.541122 -0.450084 -0.71036
vn 0.443486 -0.547684 0.709481
vn 0.443486 -0.547684 0.709481
vn 0.541089 -0.450057 0.710402
vn 0.54109 -0.450057 0.710402
vn -0.54109 -0.450057 0.710402
vn -0.54109 -0.450057 0.710402
vn -0.443486 -0.547684 0.709481
vn -0.443486 -0.547684 0.709481
vn 0.329165 -0.62414 -0.70859
vn 0.329164 -0.62414 -0.70859
vn 0.202513 -0.676612 -0.707944
vn 0.202514 -0.676612 -0.707944
vn -0.202513 -0.676612 -0.707944
vn -0.202513 -0.676612 -0.707944
vn -0.329165 -0.62414 -0.70859
vn -0.329165 -0.62414 -0.70859
vn 0.202501 -0.676571 0.707986
vn 0.202501 -0.676571 0.707986
vn 0.329145 -0.624102 0.708633
vn 0.329145 -0.624102 0.708633
vn -0.671261 -0.206373 0.711912
vn -0.671261 -0.206373 0.711912
vn -0.618067 -0.334825 0.711256
vn -0.618068 -0.334825 0.711256
vn 0.671301 -0.206386 -0.71187
vn 0.671301 -0.206386 -0.71187
vn 0.618105 -0.334845 -0.711214
vn 0.618105 -0.334845 -0.711214
vn -0.618105 -0.334844 -0.711214
vn -0.618105 -0.334844 -0.711214
vn -0.671301 -0.206387 -0.71187
vn -0.671301 -0.206387 -0.711871
vn 0.618068 -0.334824 0.711256
vn 0.618068 -0.334824 0.711256
vn 0.67126 -0.206374 0.711912
vn 0.67126 -0.206374 0.711912
vn -0.329145 -0.624102 0.708633
vn -0.329145 -0.624102 0.708633
vn -0.202501 -0.676571 0.707986
vn -0.202501 -0.676571 0.707986
vt 0.872515 0
vt 0.141634 0.00908315
vt 0.980315 0.969745
vt 0.019685 0.969745
vt 0.127485 0
vt 0.988389 0.345213
vt 0.019685 0.969745
vt 0.980315 0.969745
vt 0.127 0.000649351
vt 0.873 0.000649351
vt 0.127 0.999351
vt 0.873 0.999351
vt 0.33867 0.000649351
vt 1 0.000649351
vt 0.33867 0.999351
vt 1 0.999351
vt 0 0.000649351
vt 1 0.000649351
vt 0 0.999351
vt 1 0.999351
vt 0 0.000649351
vt 0.66133 0.000649351
vt 0 0.999351
vt 0.66133 0.999351
vt 0.981783 0.191555
vt 0.0320395 0.136319
vt 0.0320395 0.136319
vt 0.948298 0.0838165
vt 0.927611 0.0469086
vt 0.0886304 0.0541514
vt 0.0723889 0.0469086
vt 0.971732 0.223023
vt 0.987656 0.345213
vt 0.000649351 0.33867
vt 0.000649351 0.33867
vt 0.896917 0.0129603
vt 0.896917 0.0129603
vt 0.118159 0.021535
vt 0.118159 0.021535
vt 0.983837 0.292891
vt 0.950186 0.140054
vt 0.0282838 0.223023
vt 0.0182171 0.191555
vt 0.91137 0.0541514
vt 0.948298 0.0838165
vt 0.0517022 0.0838165
vt 0.0517022 0.0838165
vt 0.967961 0.136319
vt 0.994497 0.273514
vt 0.00550313 0.273514
vt 0.00550313 0.273514
vt 0.872515 0
vt 0.858366 0.00908315
vt 0.127485 0
vt 0.141634 0.00908315
vt 0.999351 0.33867
vt 0.971716 0.223023
vt 0.0498136 0.140054
vt 0.0498136 0.140054
vt 0.93127 0.0896114
vt 0.91137 0.0541514
vt 0.0723889 0.0469086
vt 0.0886304 0.0541514
vt 0.981783 0.191555
vt 0.999351 0.33867
vt 0.0131959 0.345213
vt 0.0136879 0.345213
vt 0.881841 0.021535
vt 0.881841 0.021535
vt 0.103083 0.0129603
vt 0.103083 0.0129603
vt 0.994497 0.273514
vt 0.967961 0.136319
vt 0.0182171 0.191555
vt 0.0282996 0.223023
vt 0.927611 0.0469086
vt 0.931271 0.0896114
vt 0.0687295 0.0896114
vt 0.0687295 0.0896114
vt 0.950186 0.140054
vt 0.983258 0.292891
vt 0.0168175 0.292891
vt 0.0173213 0.292891
vt 0.858366 0.00908315
f 65/77/1 49/61/1 57/69/1
f 45/57/1 25/41/1 65/77/1
f 17/33/1 69/81/1 45/57/1
f 17/33/1 45/57/1 65/77/1
f 40/4/1 3/3/1 17/33/1
f 70/82/1 54/66/1 40/4/1
f 46/58/1 26/42/1 70/82/1
f 46/58/1 70/82/1 40/4/1
f 14/30/1 66/78/1 46/58/1
f 2/2/1 22/38/1 14/30/1
f 2/2/1 14/30/1 46/58/1
f 2/2/1 46/58/1 40/4/1
f 2/2/1 40/4/1 17/33/1
f 2/2/1 17/33/1 65/77/1
f 2/2/1 65/77/1 57/69/1
f 2/2/1 57/69/1 37/53/1
f 47/59/2 63/75/2 71/83/2
f 51/63/2 67/79/2 47/59/2
f 41/55/2 23/39/2 51/63/2
f 41/55/2 51/63/2 47/59/2
f 56/68/2 72/84/2 41/55/2
f 48/60/2 28/44/2 56/68/2
f 48/60/2 56/68/2 41/55/2
f 16/32/2 68/80/2 48/60/2
f 6/6/2 24/40/2 16/32/2
f 6/6/2 16/32/2 48/60/2
f 6/6/2 48/60/2 41/55/2
f 44/8/2 6/6/2 41/55/2
f 43/7/2 44/8/2 41/55/2
f 43/7/2 41/55/2 47/59/2
f 43/7/2 47/59/2 71/83/2
f 43/7/2 71/83/2 55/67/2
f 36/12/3 38/10/3 1/9/3
f 1/9/3 5/11/3 36/12/3
f 8/16/4 4/14/4 18/13/4
f 18/13/4 42/15/4 8/16/4
f 7/20/5 39/18/5 4/17/5
f 4/17/5 8/19/5 7/20/5
f 19/24/6 53/22/6 39/21/6
f 39/21/6 7/23/6 19/24/6
f 32/48/9 10/26/8 30/46/7
f 30/46/7 12/28/10 32/48/9
f 61/73/13 11/27/12 31/47/11
f 31/47/11 29/45/14 61/73/13
f 64/76/17 50/62/16 58/70/15
f 58/70/15 20/36/18 64/76/17
f 13/29/21 15/31/20 59/71/19
f 59/71/19 21/37/22 13/29/21
f 60/72/25 34/50/24 62/74/23
f 62/74/23 52/64/26 60/72/25
f 33/49/29 35/51/28 27/43/27
f 27/43/27 9/25/30 33/49/29
f 20/36/18 58/70/15 38/54/31
f 38/54/31 36/52/32 20/36/18
f 21/37/22 59/71/19 5/5/33
f 5/5/33 1/1/34 21/37/22
f 52/64/26 62/74/23 10/26/8
f 10/26/8 32/48/9 52/64/26
f 9/25/30 27/43/27 11/27/12
f 11/27/12 61/73/13 9/25/30
f 12/28/10 30/46/7 50/62/16
f 50/62/16 64/76/17 12/28/10
f 29/45/14 31/47/11 15/31/20
f 15/31/20 13/29/21 29/45/14
f 42/56/35 18/34/35 34/50/24
f 34/50/24 60/72/25 42/56/35
f 53/65/36 19/35/36 35/51/28
f 35/51/28 33/49/29 53/65/36
f 39/18/39 53/65/38 17/33/37
f 17/33/37 3/3/40 39/18/39
f 4/14/42 39/18/42 3/3/41
f 3/3/41 40/4/43 4/14/42
f 18/34/46 4/14/45 40/4/44
f 40/4/44 54/66/47 18/34/46
f 1/9/50 38/10/49 2/2/48
f 2/2/48 37/53/51 1/9/50
f 36/12/54 5/11/53 41/55/52
f 41/55/52 72/84/55 36/12/54
f 8/16/58 42/56/57 6/6/56
f 6/6/56 44/8/59 8/16/58
f 7/20/61 8/16/61 44/8/60
f 44/8/60 43/7/61 7/20/61
f 19/35/64 7/20/63 43/7/62
f 43/7/62 55/67/65 19/35/64
f 65/77/68 25/41/67 61/73/66
f 61/73/66 29/45/69 65/77/68
f 46/58/72 66/78/71 30/46/70
f 30/46/70 10/26/73 46/58/72
f 47/59/76 67/79/75 31/47/74
f 31/47/74 11/27/77 47/59/76
f 48/60/80 68/80/79 32/48/78
f 32/48/78 12/28/81 48/60/80
f 57/69/84 49/61/83 13/29/82
f 13/29/82 21/37/85 57/69/84
f 14/30/88 22/38/87 58/70/86
f 58/70/86 50/62/89 14/30/88
f 51/63/92 23/39/91 59/71/90
f 59/71/90 15/31/93 51/63/92
f 16/32/96 24/40/95 60/72/94
f 60/72/94 52/64/97 16/32/96
f 45/57/100 69/81/99 33/49/98
f 33/49/98 9/25/101 45/57/100
f 70/82/104 26/42/103 62/74/102
f 62/74/102 34/50/105 70/82/104
f 71/83/108 63/75/107 27/43/106
f 27/43/106 35/51/109 71/83/108
f 56/68/112 28/44/111 64/76/110
f 64/76/110 20/36/113 56/68/112
f 37/53/51 57/69/84 21/37/85
f 21/37/85 1/9/50 37/53/51
f 22/38/87 2/2/48 38/10/49
f 38/10/49 58/70/86 22/38/87
f 23/39/91 41/55/52 5/11/53
f 5/11/53 59/71/90 23/39/91
f 24/40/95 6/6/56 42/56/57
f 42/56/57 60/72/94 24/40/95
f 25/41/67 45/57/100 9/25/101
f 9/25/101 61/73/66 25/41/67
f 26/42/103 46/58/72 10/26/73
f 10/26/73 62/74/102 26/42/103
f 63/75/107 47/59/76 11/27/77
f 11/27/77 27/43/106 63/75/107
f 28/44/111 48/60/80 12/28/81
f 12/28/81 64/76/110 28/44/111
f 49/61/83 65/77/68 29/45/69
f 29/45/69 13/29/82 49/61/83
f 66/78/71 14/30/88 50/62/89
f 50/62/89 30/46/70 66/78/71
f 67/79/75 51/63/92 15/31/93
f 15/31/93 31/47/74 67/79/75
f 68/80/79 16/32/96 52/64/97
f 52/64/97 32/48/78 68/80/79
f 69/81/99 17/33/37 53/65/38
f 53/65/38 33/49/98 69/81/99
f 54/66/47 70/82/104 34/50/105
f 34/50/105 18/34/46 54/66/47
f 55/67/65 71/83/108 35/51/109
f 35/51/109 19/35/64 55/67/65
f 72/84/55 56/68/112 20/36/113
f 20/36/113 36/12/54 72/84/55
