# Blender 3.3.1
# www.blender.org
g largebox_Mesh
v 0.750966 -6.811563 0.000000
v 6.788002 -5.193945 0.000000
v -0.866653 -0.774528 0.000000
v 5.170383 0.843091 0.000000
v -0.866653 -0.774528 12.547129
v 0.750966 -6.811563 12.547129
v 6.788002 -5.193945 12.547129
v 5.170383 0.843091 12.547129
vn -0.0000 -0.0000 -1.0000
vn -0.0000 -0.0000 1.0000
vn 0.9659 0.2588 -0.0000
vn -0.9659 -0.2588 -0.0000
vn -0.2588 0.9659 -0.0000
vn 0.2588 -0.9659 -0.0000
vt 0.000000 0.000000
vt 1.000000 0.000000
vt 0.000000 1.000000
vt 1.000000 1.000000
vt 0.000000 1.000000
vt 0.000000 0.000000
vt 1.000000 0.000000
vt 1.000000 1.000000
s 0
f 3/3/1 2/2/1 1/1/1
f 7/7/2 5/5/2 6/6/2
f 4/4/3 7/7/3 2/2/3
f 1/1/4 5/5/4 3/3/4
f 3/3/5 8/8/5 4/4/5
f 2/2/6 6/6/6 1/1/6
f 3/3/1 4/4/1 2/2/1
f 7/7/2 8/8/2 5/5/2
f 4/4/3 8/8/3 7/7/3
f 1/1/4 6/6/4 5/5/4
f 3/3/5 5/5/5 8/8/5
f 2/2/6 7/7/6 6/6/6
